M48
; DRILL file {KiCad (5.1.6)-1} date 09/12/20 17:39:11
; FORMAT={-:-/ absolute / inch / decimal}
; #@! TF.CreationDate,2020-09-12T17:39:11+02:00
; #@! TF.GenerationSoftware,Kicad,Pcbnew,(5.1.6)-1
; #@! TF.FileFunction,Plated,1,2,PTH
FMAT,2
INCH
T1C0.0157
T2C0.0197
T3C0.0394
T4C0.1260
%
G90
G05
T1
X4.1339Y-5.315
X4.4291Y-4.1339
X4.4291Y-4.5276
X4.45Y-5.315
X4.5276Y-5.7087
X4.9213Y-4.1339
X4.9213Y-4.5866
X4.9213Y-4.8819
X4.9213Y-5.2362
X4.9213Y-5.7087
X5.0Y-5.0
X5.315Y-4.5866
X5.315Y-4.8819
X5.315Y-5.2362
X5.315Y-5.7087
X5.5118Y-4.1339
X5.6102Y-4.4291
X5.6102Y-5.7087
X5.7087Y-4.5866
X5.7087Y-4.8819
X5.7087Y-5.2362
X6.1024Y-4.5866
X6.1024Y-4.8819
X6.1024Y-5.2362
X6.4Y-4.85
X6.65Y-4.8425
X6.6634Y-5.2362
X6.9783Y-4.6358
X7.0866Y-5.2362
X7.0866Y-5.5118
X7.2441Y-4.6358
X7.3917Y-4.3307
X7.4803Y-4.5472
X7.4803Y-5.2362
X7.4803Y-5.5118
T2
X4.0581Y-5.69
X4.0857Y-5.6231
X4.0857Y-5.7568
X4.1526Y-5.5955
X4.1526Y-5.7844
X4.2194Y-5.6231
X4.2194Y-5.7568
X4.247Y-5.69
X7.564Y-4.1526
X7.5917Y-4.0857
X7.5917Y-4.2194
X7.6585Y-4.0581
X7.6585Y-4.247
X7.7253Y-4.0857
X7.7253Y-4.2194
X7.753Y-4.1526
X4.0581Y-4.1526
X4.0857Y-4.0857
X4.0857Y-4.2194
X4.1526Y-4.0581
X4.1526Y-4.247
X4.2194Y-4.0857
X4.2194Y-4.2194
X4.247Y-4.1526
X7.564Y-5.69
X7.5917Y-5.6231
X7.5917Y-5.7568
X7.6585Y-5.5955
X7.6585Y-5.7844
X7.7253Y-5.6231
X7.7253Y-5.7568
X7.753Y-5.69
T3
X7.2425Y-5.7087
X7.3425Y-5.7087
X5.8465Y-4.1732
X5.9465Y-4.1732
X6.0465Y-4.1732
X6.1465Y-4.1732
X6.2465Y-4.1732
X6.3465Y-4.1732
X6.4465Y-4.1732
X6.5465Y-4.1732
X6.6465Y-4.1732
X6.7465Y-4.1732
X6.8465Y-4.1732
X6.9465Y-4.1732
X7.0465Y-4.1732
X7.1465Y-4.1732
X7.2465Y-4.1732
X7.3465Y-4.1732
X4.1535Y-4.5669
X4.1535Y-4.6669
X4.1535Y-4.7669
X4.1535Y-4.8669
X4.5Y-5.1
X4.6Y-5.1
X4.7Y-5.1
X4.8Y-5.1
X4.9Y-5.1
X5.0Y-5.1
X5.1Y-5.1
X5.8Y-4.5
X5.8Y-5.1
X5.9Y-4.5
X5.9Y-5.1
X6.0Y-4.5
X6.0Y-5.1
X6.1Y-4.5
X6.1Y-5.1
X6.2Y-4.5
X6.2Y-5.1
X6.3Y-4.5
X6.3Y-5.1
X6.4Y-4.5
X6.4Y-5.1
X6.5Y-4.5
X6.5Y-5.1
X6.6Y-4.5
X6.6Y-5.1
X6.7Y-4.5
X6.7Y-5.1
X6.8Y-4.5
X6.8Y-5.1
X6.9Y-4.5
X6.9Y-5.1
X7.0Y-4.5
X7.0Y-5.1
X7.1Y-4.5
X7.1Y-5.1
X7.2Y-4.5
X7.2Y-5.1
X7.6638Y-5.3
X7.6638Y-5.4
X7.6638Y-4.45
X7.6638Y-4.55
X7.6638Y-5.05
X7.6638Y-5.15
X7.6638Y-4.7
X7.6638Y-4.8
X7.6638Y-4.9
T4
X4.1526Y-5.69
X7.6585Y-4.1526
X4.1526Y-4.1526
X7.6585Y-5.69
T0
M30
