G04 #@! TF.GenerationSoftware,KiCad,Pcbnew,(5.1.6)-1*
G04 #@! TF.CreationDate,2020-09-12T17:38:01+02:00*
G04 #@! TF.ProjectId,vfo-do-with-trimmer_boutons regroup_s-10x5,76666f2d-646f-42d7-9769-74682d747269,rev?*
G04 #@! TF.SameCoordinates,Original*
G04 #@! TF.FileFunction,Legend,Bot*
G04 #@! TF.FilePolarity,Positive*
%FSLAX46Y46*%
G04 Gerber Fmt 4.6, Leading zero omitted, Abs format (unit mm)*
G04 Created by KiCad (PCBNEW (5.1.6)-1) date 2020-09-12 17:38:01*
%MOMM*%
%LPD*%
G01*
G04 APERTURE LIST*
%ADD10C,0.150000*%
%ADD11C,0.120000*%
%ADD12C,0.250000*%
%ADD13C,0.010000*%
G04 APERTURE END LIST*
D10*
X150857619Y-103957380D02*
X150857619Y-102957380D01*
X150429047Y-103957380D02*
X150429047Y-103433571D01*
X150476666Y-103338333D01*
X150571904Y-103290714D01*
X150714761Y-103290714D01*
X150810000Y-103338333D01*
X150857619Y-103385952D01*
X150095714Y-103290714D02*
X149714761Y-103290714D01*
X149952857Y-102957380D02*
X149952857Y-103814523D01*
X149905238Y-103909761D01*
X149810000Y-103957380D01*
X149714761Y-103957380D01*
X149524285Y-103290714D02*
X149143333Y-103290714D01*
X149381428Y-102957380D02*
X149381428Y-103814523D01*
X149333809Y-103909761D01*
X149238571Y-103957380D01*
X149143333Y-103957380D01*
X148810000Y-103290714D02*
X148810000Y-104290714D01*
X148810000Y-103338333D02*
X148714761Y-103290714D01*
X148524285Y-103290714D01*
X148429047Y-103338333D01*
X148381428Y-103385952D01*
X148333809Y-103481190D01*
X148333809Y-103766904D01*
X148381428Y-103862142D01*
X148429047Y-103909761D01*
X148524285Y-103957380D01*
X148714761Y-103957380D01*
X148810000Y-103909761D01*
X147952857Y-103909761D02*
X147857619Y-103957380D01*
X147667142Y-103957380D01*
X147571904Y-103909761D01*
X147524285Y-103814523D01*
X147524285Y-103766904D01*
X147571904Y-103671666D01*
X147667142Y-103624047D01*
X147810000Y-103624047D01*
X147905238Y-103576428D01*
X147952857Y-103481190D01*
X147952857Y-103433571D01*
X147905238Y-103338333D01*
X147810000Y-103290714D01*
X147667142Y-103290714D01*
X147571904Y-103338333D01*
X147095714Y-103862142D02*
X147048095Y-103909761D01*
X147095714Y-103957380D01*
X147143333Y-103909761D01*
X147095714Y-103862142D01*
X147095714Y-103957380D01*
X147095714Y-103338333D02*
X147048095Y-103385952D01*
X147095714Y-103433571D01*
X147143333Y-103385952D01*
X147095714Y-103338333D01*
X147095714Y-103433571D01*
X145905238Y-102909761D02*
X146762380Y-104195476D01*
X144857619Y-102909761D02*
X145714761Y-104195476D01*
X144095714Y-103290714D02*
X144095714Y-104100238D01*
X144143333Y-104195476D01*
X144190952Y-104243095D01*
X144286190Y-104290714D01*
X144429047Y-104290714D01*
X144524285Y-104243095D01*
X144095714Y-103909761D02*
X144190952Y-103957380D01*
X144381428Y-103957380D01*
X144476666Y-103909761D01*
X144524285Y-103862142D01*
X144571904Y-103766904D01*
X144571904Y-103481190D01*
X144524285Y-103385952D01*
X144476666Y-103338333D01*
X144381428Y-103290714D01*
X144190952Y-103290714D01*
X144095714Y-103338333D01*
X143619523Y-103957380D02*
X143619523Y-103290714D01*
X143619523Y-102957380D02*
X143667142Y-103005000D01*
X143619523Y-103052619D01*
X143571904Y-103005000D01*
X143619523Y-102957380D01*
X143619523Y-103052619D01*
X143286190Y-103290714D02*
X142905238Y-103290714D01*
X143143333Y-102957380D02*
X143143333Y-103814523D01*
X143095714Y-103909761D01*
X143000476Y-103957380D01*
X142905238Y-103957380D01*
X142571904Y-103957380D02*
X142571904Y-102957380D01*
X142143333Y-103957380D02*
X142143333Y-103433571D01*
X142190952Y-103338333D01*
X142286190Y-103290714D01*
X142429047Y-103290714D01*
X142524285Y-103338333D01*
X142571904Y-103385952D01*
X141238571Y-103290714D02*
X141238571Y-103957380D01*
X141667142Y-103290714D02*
X141667142Y-103814523D01*
X141619523Y-103909761D01*
X141524285Y-103957380D01*
X141381428Y-103957380D01*
X141286190Y-103909761D01*
X141238571Y-103862142D01*
X140762380Y-103957380D02*
X140762380Y-102957380D01*
X140762380Y-103338333D02*
X140667142Y-103290714D01*
X140476666Y-103290714D01*
X140381428Y-103338333D01*
X140333809Y-103385952D01*
X140286190Y-103481190D01*
X140286190Y-103766904D01*
X140333809Y-103862142D01*
X140381428Y-103909761D01*
X140476666Y-103957380D01*
X140667142Y-103957380D01*
X140762380Y-103909761D01*
X139857619Y-103862142D02*
X139810000Y-103909761D01*
X139857619Y-103957380D01*
X139905238Y-103909761D01*
X139857619Y-103862142D01*
X139857619Y-103957380D01*
X138952857Y-103909761D02*
X139048095Y-103957380D01*
X139238571Y-103957380D01*
X139333809Y-103909761D01*
X139381428Y-103862142D01*
X139429047Y-103766904D01*
X139429047Y-103481190D01*
X139381428Y-103385952D01*
X139333809Y-103338333D01*
X139238571Y-103290714D01*
X139048095Y-103290714D01*
X138952857Y-103338333D01*
X138381428Y-103957380D02*
X138476666Y-103909761D01*
X138524285Y-103862142D01*
X138571904Y-103766904D01*
X138571904Y-103481190D01*
X138524285Y-103385952D01*
X138476666Y-103338333D01*
X138381428Y-103290714D01*
X138238571Y-103290714D01*
X138143333Y-103338333D01*
X138095714Y-103385952D01*
X138048095Y-103481190D01*
X138048095Y-103766904D01*
X138095714Y-103862142D01*
X138143333Y-103909761D01*
X138238571Y-103957380D01*
X138381428Y-103957380D01*
X137619523Y-103957380D02*
X137619523Y-103290714D01*
X137619523Y-103385952D02*
X137571904Y-103338333D01*
X137476666Y-103290714D01*
X137333809Y-103290714D01*
X137238571Y-103338333D01*
X137190952Y-103433571D01*
X137190952Y-103957380D01*
X137190952Y-103433571D02*
X137143333Y-103338333D01*
X137048095Y-103290714D01*
X136905238Y-103290714D01*
X136810000Y-103338333D01*
X136762380Y-103433571D01*
X136762380Y-103957380D01*
X135571904Y-102909761D02*
X136429047Y-104195476D01*
X135238571Y-103957380D02*
X135238571Y-103290714D01*
X135238571Y-103481190D02*
X135190952Y-103385952D01*
X135143333Y-103338333D01*
X135048095Y-103290714D01*
X134952857Y-103290714D01*
X134619523Y-103957380D02*
X134619523Y-103290714D01*
X134619523Y-102957380D02*
X134667142Y-103005000D01*
X134619523Y-103052619D01*
X134571904Y-103005000D01*
X134619523Y-102957380D01*
X134619523Y-103052619D01*
X133714761Y-103909761D02*
X133810000Y-103957380D01*
X134000476Y-103957380D01*
X134095714Y-103909761D01*
X134143333Y-103862142D01*
X134190952Y-103766904D01*
X134190952Y-103481190D01*
X134143333Y-103385952D01*
X134095714Y-103338333D01*
X134000476Y-103290714D01*
X133810000Y-103290714D01*
X133714761Y-103338333D01*
X133286190Y-103957380D02*
X133286190Y-102957380D01*
X132857619Y-103957380D02*
X132857619Y-103433571D01*
X132905238Y-103338333D01*
X133000476Y-103290714D01*
X133143333Y-103290714D01*
X133238571Y-103338333D01*
X133286190Y-103385952D01*
X131952857Y-103957380D02*
X131952857Y-103433571D01*
X132000476Y-103338333D01*
X132095714Y-103290714D01*
X132286190Y-103290714D01*
X132381428Y-103338333D01*
X131952857Y-103909761D02*
X132048095Y-103957380D01*
X132286190Y-103957380D01*
X132381428Y-103909761D01*
X132429047Y-103814523D01*
X132429047Y-103719285D01*
X132381428Y-103624047D01*
X132286190Y-103576428D01*
X132048095Y-103576428D01*
X131952857Y-103528809D01*
X131476666Y-103957380D02*
X131476666Y-103290714D01*
X131476666Y-103481190D02*
X131429047Y-103385952D01*
X131381428Y-103338333D01*
X131286190Y-103290714D01*
X131190952Y-103290714D01*
X130429047Y-103957380D02*
X130429047Y-102957380D01*
X130429047Y-103909761D02*
X130524285Y-103957380D01*
X130714761Y-103957380D01*
X130810000Y-103909761D01*
X130857619Y-103862142D01*
X130905238Y-103766904D01*
X130905238Y-103481190D01*
X130857619Y-103385952D01*
X130810000Y-103338333D01*
X130714761Y-103290714D01*
X130524285Y-103290714D01*
X130429047Y-103338333D01*
X129952857Y-103576428D02*
X129190952Y-103576428D01*
X128857619Y-103290714D02*
X128476666Y-103290714D01*
X128714761Y-103957380D02*
X128714761Y-103100238D01*
X128667142Y-103005000D01*
X128571904Y-102957380D01*
X128476666Y-102957380D01*
X127714761Y-103957380D02*
X127714761Y-103433571D01*
X127762380Y-103338333D01*
X127857619Y-103290714D01*
X128048095Y-103290714D01*
X128143333Y-103338333D01*
X127714761Y-103909761D02*
X127810000Y-103957380D01*
X128048095Y-103957380D01*
X128143333Y-103909761D01*
X128190952Y-103814523D01*
X128190952Y-103719285D01*
X128143333Y-103624047D01*
X128048095Y-103576428D01*
X127810000Y-103576428D01*
X127714761Y-103528809D01*
X126810000Y-103290714D02*
X126810000Y-104100238D01*
X126857619Y-104195476D01*
X126905238Y-104243095D01*
X127000476Y-104290714D01*
X127143333Y-104290714D01*
X127238571Y-104243095D01*
X126810000Y-103909761D02*
X126905238Y-103957380D01*
X127095714Y-103957380D01*
X127190952Y-103909761D01*
X127238571Y-103862142D01*
X127286190Y-103766904D01*
X127286190Y-103481190D01*
X127238571Y-103385952D01*
X127190952Y-103338333D01*
X127095714Y-103290714D01*
X126905238Y-103290714D01*
X126810000Y-103338333D01*
X126190952Y-103957380D02*
X126286190Y-103909761D01*
X126333809Y-103862142D01*
X126381428Y-103766904D01*
X126381428Y-103481190D01*
X126333809Y-103385952D01*
X126286190Y-103338333D01*
X126190952Y-103290714D01*
X126048095Y-103290714D01*
X125952857Y-103338333D01*
X125905238Y-103385952D01*
X125857619Y-103481190D01*
X125857619Y-103766904D01*
X125905238Y-103862142D01*
X125952857Y-103909761D01*
X126048095Y-103957380D01*
X126190952Y-103957380D01*
X125571904Y-103290714D02*
X125190952Y-103290714D01*
X125429047Y-102957380D02*
X125429047Y-103814523D01*
X125381428Y-103909761D01*
X125286190Y-103957380D01*
X125190952Y-103957380D01*
X124143333Y-102909761D02*
X125000476Y-104195476D01*
X123810000Y-103957380D02*
X123810000Y-103290714D01*
X123810000Y-103481190D02*
X123762380Y-103385952D01*
X123714761Y-103338333D01*
X123619523Y-103290714D01*
X123524285Y-103290714D01*
X122762380Y-103957380D02*
X122762380Y-103433571D01*
X122810000Y-103338333D01*
X122905238Y-103290714D01*
X123095714Y-103290714D01*
X123190952Y-103338333D01*
X122762380Y-103909761D02*
X122857619Y-103957380D01*
X123095714Y-103957380D01*
X123190952Y-103909761D01*
X123238571Y-103814523D01*
X123238571Y-103719285D01*
X123190952Y-103624047D01*
X123095714Y-103576428D01*
X122857619Y-103576428D01*
X122762380Y-103528809D01*
X122286190Y-103576428D02*
X121524285Y-103576428D01*
X121143333Y-103290714D02*
X120952857Y-103957380D01*
X120762380Y-103481190D01*
X120571904Y-103957380D01*
X120381428Y-103290714D01*
X120095714Y-102957380D02*
X119476666Y-102957380D01*
X119810000Y-103338333D01*
X119667142Y-103338333D01*
X119571904Y-103385952D01*
X119524285Y-103433571D01*
X119476666Y-103528809D01*
X119476666Y-103766904D01*
X119524285Y-103862142D01*
X119571904Y-103909761D01*
X119667142Y-103957380D01*
X119952857Y-103957380D01*
X120048095Y-103909761D01*
X120095714Y-103862142D01*
X119048095Y-103290714D02*
X119048095Y-104290714D01*
X119048095Y-103338333D02*
X118952857Y-103290714D01*
X118762380Y-103290714D01*
X118667142Y-103338333D01*
X118619523Y-103385952D01*
X118571904Y-103481190D01*
X118571904Y-103766904D01*
X118619523Y-103862142D01*
X118667142Y-103909761D01*
X118762380Y-103957380D01*
X118952857Y-103957380D01*
X119048095Y-103909761D01*
X118143333Y-103957380D02*
X118143333Y-103290714D01*
X118143333Y-103385952D02*
X118095714Y-103338333D01*
X118000476Y-103290714D01*
X117857619Y-103290714D01*
X117762380Y-103338333D01*
X117714761Y-103433571D01*
X117714761Y-103957380D01*
X117714761Y-103433571D02*
X117667142Y-103338333D01*
X117571904Y-103290714D01*
X117429047Y-103290714D01*
X117333809Y-103338333D01*
X117286190Y-103433571D01*
X117286190Y-103957380D01*
X116810000Y-103576428D02*
X116048095Y-103576428D01*
X115667142Y-103290714D02*
X115429047Y-103957380D01*
X115190952Y-103290714D01*
X114952857Y-103290714D02*
X114571904Y-103290714D01*
X114810000Y-103957380D02*
X114810000Y-103100238D01*
X114762380Y-103005000D01*
X114667142Y-102957380D01*
X114571904Y-102957380D01*
X114095714Y-103957380D02*
X114190952Y-103909761D01*
X114238571Y-103862142D01*
X114286190Y-103766904D01*
X114286190Y-103481190D01*
X114238571Y-103385952D01*
X114190952Y-103338333D01*
X114095714Y-103290714D01*
X113952857Y-103290714D01*
X113857619Y-103338333D01*
X113810000Y-103385952D01*
X113762380Y-103481190D01*
X113762380Y-103766904D01*
X113810000Y-103862142D01*
X113857619Y-103909761D01*
X113952857Y-103957380D01*
X114095714Y-103957380D01*
X113333809Y-103576428D02*
X112571904Y-103576428D01*
X111667142Y-103957380D02*
X111667142Y-102957380D01*
X111667142Y-103909761D02*
X111762380Y-103957380D01*
X111952857Y-103957380D01*
X112048095Y-103909761D01*
X112095714Y-103862142D01*
X112143333Y-103766904D01*
X112143333Y-103481190D01*
X112095714Y-103385952D01*
X112048095Y-103338333D01*
X111952857Y-103290714D01*
X111762380Y-103290714D01*
X111667142Y-103338333D01*
X111048095Y-103957380D02*
X111143333Y-103909761D01*
X111190952Y-103862142D01*
X111238571Y-103766904D01*
X111238571Y-103481190D01*
X111190952Y-103385952D01*
X111143333Y-103338333D01*
X111048095Y-103290714D01*
X110905238Y-103290714D01*
X110810000Y-103338333D01*
X110762380Y-103385952D01*
X110714761Y-103481190D01*
X110714761Y-103766904D01*
X110762380Y-103862142D01*
X110810000Y-103909761D01*
X110905238Y-103957380D01*
X111048095Y-103957380D01*
D11*
X113030000Y-138430000D02*
X113030000Y-111760000D01*
X185420000Y-138430000D02*
X113030000Y-138430000D01*
X185420000Y-111760000D02*
X185420000Y-138430000D01*
X113030000Y-111760000D02*
X185420000Y-111760000D01*
X187960000Y-147320000D02*
X187960000Y-104670000D01*
X110490000Y-147320000D02*
X187960000Y-147320000D01*
X110490000Y-104670000D02*
X110490000Y-147320000D01*
X187930000Y-104670000D02*
X110490000Y-104670000D01*
D12*
X172128928Y-140337380D02*
X171938452Y-140337380D01*
X171843214Y-140385000D01*
X171747976Y-140480238D01*
X171700357Y-140670714D01*
X171700357Y-141004047D01*
X171747976Y-141194523D01*
X171843214Y-141289761D01*
X171938452Y-141337380D01*
X172128928Y-141337380D01*
X172224166Y-141289761D01*
X172319404Y-141194523D01*
X172367023Y-141004047D01*
X172367023Y-140670714D01*
X172319404Y-140480238D01*
X172224166Y-140385000D01*
X172128928Y-140337380D01*
X171319404Y-141289761D02*
X171224166Y-141337380D01*
X171033690Y-141337380D01*
X170938452Y-141289761D01*
X170890833Y-141194523D01*
X170890833Y-141146904D01*
X170938452Y-141051666D01*
X171033690Y-141004047D01*
X171176547Y-141004047D01*
X171271785Y-140956428D01*
X171319404Y-140861190D01*
X171319404Y-140813571D01*
X171271785Y-140718333D01*
X171176547Y-140670714D01*
X171033690Y-140670714D01*
X170938452Y-140718333D01*
X170033690Y-141289761D02*
X170128928Y-141337380D01*
X170319404Y-141337380D01*
X170414642Y-141289761D01*
X170462261Y-141242142D01*
X170509880Y-141146904D01*
X170509880Y-140861190D01*
X170462261Y-140765952D01*
X170414642Y-140718333D01*
X170319404Y-140670714D01*
X170128928Y-140670714D01*
X170033690Y-140718333D01*
X169605119Y-141337380D02*
X169605119Y-140670714D01*
X169605119Y-140337380D02*
X169652738Y-140385000D01*
X169605119Y-140432619D01*
X169557499Y-140385000D01*
X169605119Y-140337380D01*
X169605119Y-140432619D01*
X168986071Y-141337380D02*
X169081309Y-141289761D01*
X169128928Y-141194523D01*
X169128928Y-140337380D01*
X168462261Y-141337380D02*
X168557499Y-141289761D01*
X168605119Y-141194523D01*
X168605119Y-140337380D01*
X167652738Y-141337380D02*
X167652738Y-140813571D01*
X167700357Y-140718333D01*
X167795595Y-140670714D01*
X167986071Y-140670714D01*
X168081309Y-140718333D01*
X167652738Y-141289761D02*
X167747976Y-141337380D01*
X167986071Y-141337380D01*
X168081309Y-141289761D01*
X168128928Y-141194523D01*
X168128928Y-141099285D01*
X168081309Y-141004047D01*
X167986071Y-140956428D01*
X167747976Y-140956428D01*
X167652738Y-140908809D01*
X167319404Y-140670714D02*
X166938452Y-140670714D01*
X167176547Y-140337380D02*
X167176547Y-141194523D01*
X167128928Y-141289761D01*
X167033690Y-141337380D01*
X166938452Y-141337380D01*
X166224166Y-141289761D02*
X166319404Y-141337380D01*
X166509880Y-141337380D01*
X166605119Y-141289761D01*
X166652738Y-141194523D01*
X166652738Y-140813571D01*
X166605119Y-140718333D01*
X166509880Y-140670714D01*
X166319404Y-140670714D01*
X166224166Y-140718333D01*
X166176547Y-140813571D01*
X166176547Y-140908809D01*
X166652738Y-141004047D01*
X165319404Y-140670714D02*
X165319404Y-141337380D01*
X165747976Y-140670714D02*
X165747976Y-141194523D01*
X165700357Y-141289761D01*
X165605119Y-141337380D01*
X165462261Y-141337380D01*
X165367023Y-141289761D01*
X165319404Y-141242142D01*
X164843214Y-141337380D02*
X164843214Y-140670714D01*
X164843214Y-140861190D02*
X164795595Y-140765952D01*
X164747976Y-140718333D01*
X164652738Y-140670714D01*
X164557500Y-140670714D01*
X163033690Y-141337380D02*
X163033690Y-140813571D01*
X163081309Y-140718333D01*
X163176547Y-140670714D01*
X163367023Y-140670714D01*
X163462261Y-140718333D01*
X163033690Y-141289761D02*
X163128928Y-141337380D01*
X163367023Y-141337380D01*
X163462261Y-141289761D01*
X163509880Y-141194523D01*
X163509880Y-141099285D01*
X163462261Y-141004047D01*
X163367023Y-140956428D01*
X163128928Y-140956428D01*
X163033690Y-140908809D01*
X163367023Y-140289761D02*
X163224166Y-140432619D01*
X161938452Y-140670714D02*
X161557500Y-140670714D01*
X161795595Y-141337380D02*
X161795595Y-140480238D01*
X161747976Y-140385000D01*
X161652738Y-140337380D01*
X161557500Y-140337380D01*
X161224166Y-141337380D02*
X161224166Y-140670714D01*
X161224166Y-140861190D02*
X161176547Y-140765952D01*
X161128928Y-140718333D01*
X161033690Y-140670714D01*
X160938452Y-140670714D01*
X160224166Y-141289761D02*
X160319404Y-141337380D01*
X160509880Y-141337380D01*
X160605119Y-141289761D01*
X160652738Y-141194523D01*
X160652738Y-140813571D01*
X160605119Y-140718333D01*
X160509880Y-140670714D01*
X160319404Y-140670714D01*
X160224166Y-140718333D01*
X160176547Y-140813571D01*
X160176547Y-140908809D01*
X160652738Y-141004047D01*
X160319404Y-140289761D02*
X160462261Y-140432619D01*
X159319404Y-140670714D02*
X159319404Y-141670714D01*
X159319404Y-141289761D02*
X159414642Y-141337380D01*
X159605119Y-141337380D01*
X159700357Y-141289761D01*
X159747976Y-141242142D01*
X159795595Y-141146904D01*
X159795595Y-140861190D01*
X159747976Y-140765952D01*
X159700357Y-140718333D01*
X159605119Y-140670714D01*
X159414642Y-140670714D01*
X159319404Y-140718333D01*
X158414642Y-140670714D02*
X158414642Y-141337380D01*
X158843214Y-140670714D02*
X158843214Y-141194523D01*
X158795595Y-141289761D01*
X158700357Y-141337380D01*
X158557500Y-141337380D01*
X158462261Y-141289761D01*
X158414642Y-141242142D01*
X157557500Y-141289761D02*
X157652738Y-141337380D01*
X157843214Y-141337380D01*
X157938452Y-141289761D01*
X157986071Y-141194523D01*
X157986071Y-140813571D01*
X157938452Y-140718333D01*
X157843214Y-140670714D01*
X157652738Y-140670714D01*
X157557500Y-140718333D01*
X157509880Y-140813571D01*
X157509880Y-140908809D01*
X157986071Y-141004047D01*
X157081309Y-140670714D02*
X157081309Y-141337380D01*
X157081309Y-140765952D02*
X157033690Y-140718333D01*
X156938452Y-140670714D01*
X156795595Y-140670714D01*
X156700357Y-140718333D01*
X156652738Y-140813571D01*
X156652738Y-141337380D01*
X155747976Y-141289761D02*
X155843214Y-141337380D01*
X156033690Y-141337380D01*
X156128928Y-141289761D01*
X156176547Y-141242142D01*
X156224166Y-141146904D01*
X156224166Y-140861190D01*
X156176547Y-140765952D01*
X156128928Y-140718333D01*
X156033690Y-140670714D01*
X155843214Y-140670714D01*
X155747976Y-140718333D01*
X154938452Y-141289761D02*
X155033690Y-141337380D01*
X155224166Y-141337380D01*
X155319404Y-141289761D01*
X155367023Y-141194523D01*
X155367023Y-140813571D01*
X155319404Y-140718333D01*
X155224166Y-140670714D01*
X155033690Y-140670714D01*
X154938452Y-140718333D01*
X154890833Y-140813571D01*
X154890833Y-140908809D01*
X155367023Y-141004047D01*
X153795595Y-140670714D02*
X153557500Y-141337380D01*
X153319404Y-140670714D01*
X152509880Y-141337380D02*
X152509880Y-140813571D01*
X152557500Y-140718333D01*
X152652738Y-140670714D01*
X152843214Y-140670714D01*
X152938452Y-140718333D01*
X152509880Y-141289761D02*
X152605119Y-141337380D01*
X152843214Y-141337380D01*
X152938452Y-141289761D01*
X152986071Y-141194523D01*
X152986071Y-141099285D01*
X152938452Y-141004047D01*
X152843214Y-140956428D01*
X152605119Y-140956428D01*
X152509880Y-140908809D01*
X152033690Y-141337380D02*
X152033690Y-140670714D01*
X152033690Y-140861190D02*
X151986071Y-140765952D01*
X151938452Y-140718333D01*
X151843214Y-140670714D01*
X151747976Y-140670714D01*
X151414642Y-141337380D02*
X151414642Y-140670714D01*
X151414642Y-140337380D02*
X151462261Y-140385000D01*
X151414642Y-140432619D01*
X151367023Y-140385000D01*
X151414642Y-140337380D01*
X151414642Y-140432619D01*
X150509880Y-141337380D02*
X150509880Y-140813571D01*
X150557500Y-140718333D01*
X150652738Y-140670714D01*
X150843214Y-140670714D01*
X150938452Y-140718333D01*
X150509880Y-141289761D02*
X150605119Y-141337380D01*
X150843214Y-141337380D01*
X150938452Y-141289761D01*
X150986071Y-141194523D01*
X150986071Y-141099285D01*
X150938452Y-141004047D01*
X150843214Y-140956428D01*
X150605119Y-140956428D01*
X150509880Y-140908809D01*
X150033690Y-141337380D02*
X150033690Y-140337380D01*
X150033690Y-140718333D02*
X149938452Y-140670714D01*
X149747976Y-140670714D01*
X149652738Y-140718333D01*
X149605119Y-140765952D01*
X149557500Y-140861190D01*
X149557500Y-141146904D01*
X149605119Y-141242142D01*
X149652738Y-141289761D01*
X149747976Y-141337380D01*
X149938452Y-141337380D01*
X150033690Y-141289761D01*
X148986071Y-141337380D02*
X149081309Y-141289761D01*
X149128928Y-141194523D01*
X149128928Y-140337380D01*
X148224166Y-141289761D02*
X148319404Y-141337380D01*
X148509880Y-141337380D01*
X148605119Y-141289761D01*
X148652738Y-141194523D01*
X148652738Y-140813571D01*
X148605119Y-140718333D01*
X148509880Y-140670714D01*
X148319404Y-140670714D01*
X148224166Y-140718333D01*
X148176547Y-140813571D01*
X148176547Y-140908809D01*
X148652738Y-141004047D01*
X146700357Y-141718333D02*
X146747976Y-141670714D01*
X146843214Y-141527857D01*
X146890833Y-141432619D01*
X146938452Y-141289761D01*
X146986071Y-141051666D01*
X146986071Y-140861190D01*
X146938452Y-140623095D01*
X146890833Y-140480238D01*
X146843214Y-140385000D01*
X146747976Y-140242142D01*
X146700357Y-140194523D01*
X146462261Y-140337380D02*
X146128928Y-141337380D01*
X145795595Y-140337380D01*
X145128928Y-140813571D02*
X145462261Y-140813571D01*
X145462261Y-141337380D02*
X145462261Y-140337380D01*
X144986071Y-140337380D01*
X144414642Y-140337380D02*
X144224166Y-140337380D01*
X144128928Y-140385000D01*
X144033690Y-140480238D01*
X143986071Y-140670714D01*
X143986071Y-141004047D01*
X144033690Y-141194523D01*
X144128928Y-141289761D01*
X144224166Y-141337380D01*
X144414642Y-141337380D01*
X144509880Y-141289761D01*
X144605119Y-141194523D01*
X144652738Y-141004047D01*
X144652738Y-140670714D01*
X144605119Y-140480238D01*
X144509880Y-140385000D01*
X144414642Y-140337380D01*
X143557500Y-140956428D02*
X142795595Y-140956428D01*
X142319404Y-141337380D02*
X142319404Y-140337380D01*
X142081309Y-140337380D01*
X141938452Y-140385000D01*
X141843214Y-140480238D01*
X141795595Y-140575476D01*
X141747976Y-140765952D01*
X141747976Y-140908809D01*
X141795595Y-141099285D01*
X141843214Y-141194523D01*
X141938452Y-141289761D01*
X142081309Y-141337380D01*
X142319404Y-141337380D01*
X141128928Y-140337380D02*
X140938452Y-140337380D01*
X140843214Y-140385000D01*
X140747976Y-140480238D01*
X140700357Y-140670714D01*
X140700357Y-141004047D01*
X140747976Y-141194523D01*
X140843214Y-141289761D01*
X140938452Y-141337380D01*
X141128928Y-141337380D01*
X141224166Y-141289761D01*
X141319404Y-141194523D01*
X141367023Y-141004047D01*
X141367023Y-140670714D01*
X141319404Y-140480238D01*
X141224166Y-140385000D01*
X141128928Y-140337380D01*
X140367023Y-141718333D02*
X140319404Y-141670714D01*
X140224166Y-141527857D01*
X140176547Y-141432619D01*
X140128928Y-141289761D01*
X140081309Y-141051666D01*
X140081309Y-140861190D01*
X140128928Y-140623095D01*
X140176547Y-140480238D01*
X140224166Y-140385000D01*
X140319404Y-140242142D01*
X140367023Y-140194523D01*
X171747976Y-143087380D02*
X172081309Y-142611190D01*
X172319404Y-143087380D02*
X172319404Y-142087380D01*
X171938452Y-142087380D01*
X171843214Y-142135000D01*
X171795595Y-142182619D01*
X171747976Y-142277857D01*
X171747976Y-142420714D01*
X171795595Y-142515952D01*
X171843214Y-142563571D01*
X171938452Y-142611190D01*
X172319404Y-142611190D01*
X171319404Y-143087380D02*
X171319404Y-142420714D01*
X171319404Y-142087380D02*
X171367023Y-142135000D01*
X171319404Y-142182619D01*
X171271785Y-142135000D01*
X171319404Y-142087380D01*
X171319404Y-142182619D01*
X170414642Y-143039761D02*
X170509880Y-143087380D01*
X170700357Y-143087380D01*
X170795595Y-143039761D01*
X170843214Y-142992142D01*
X170890833Y-142896904D01*
X170890833Y-142611190D01*
X170843214Y-142515952D01*
X170795595Y-142468333D01*
X170700357Y-142420714D01*
X170509880Y-142420714D01*
X170414642Y-142468333D01*
X169986071Y-143087380D02*
X169986071Y-142087380D01*
X169557500Y-143087380D02*
X169557500Y-142563571D01*
X169605119Y-142468333D01*
X169700357Y-142420714D01*
X169843214Y-142420714D01*
X169938452Y-142468333D01*
X169986071Y-142515952D01*
X168652738Y-143087380D02*
X168652738Y-142563571D01*
X168700357Y-142468333D01*
X168795595Y-142420714D01*
X168986071Y-142420714D01*
X169081309Y-142468333D01*
X168652738Y-143039761D02*
X168747976Y-143087380D01*
X168986071Y-143087380D01*
X169081309Y-143039761D01*
X169128928Y-142944523D01*
X169128928Y-142849285D01*
X169081309Y-142754047D01*
X168986071Y-142706428D01*
X168747976Y-142706428D01*
X168652738Y-142658809D01*
X168176547Y-143087380D02*
X168176547Y-142420714D01*
X168176547Y-142611190D02*
X168128928Y-142515952D01*
X168081309Y-142468333D01*
X167986071Y-142420714D01*
X167890833Y-142420714D01*
X167128928Y-143087380D02*
X167128928Y-142087380D01*
X167128928Y-143039761D02*
X167224166Y-143087380D01*
X167414642Y-143087380D01*
X167509880Y-143039761D01*
X167557500Y-142992142D01*
X167605119Y-142896904D01*
X167605119Y-142611190D01*
X167557500Y-142515952D01*
X167509880Y-142468333D01*
X167414642Y-142420714D01*
X167224166Y-142420714D01*
X167128928Y-142468333D01*
X165557500Y-142563571D02*
X165890833Y-142563571D01*
X165890833Y-143087380D02*
X165890833Y-142087380D01*
X165414642Y-142087380D01*
X164605119Y-143087380D02*
X164605119Y-142563571D01*
X164652738Y-142468333D01*
X164747976Y-142420714D01*
X164938452Y-142420714D01*
X165033690Y-142468333D01*
X164605119Y-143039761D02*
X164700357Y-143087380D01*
X164938452Y-143087380D01*
X165033690Y-143039761D01*
X165081309Y-142944523D01*
X165081309Y-142849285D01*
X165033690Y-142754047D01*
X164938452Y-142706428D01*
X164700357Y-142706428D01*
X164605119Y-142658809D01*
X163700357Y-142420714D02*
X163700357Y-143230238D01*
X163747976Y-143325476D01*
X163795595Y-143373095D01*
X163890833Y-143420714D01*
X164033690Y-143420714D01*
X164128928Y-143373095D01*
X163700357Y-143039761D02*
X163795595Y-143087380D01*
X163986071Y-143087380D01*
X164081309Y-143039761D01*
X164128928Y-142992142D01*
X164176547Y-142896904D01*
X164176547Y-142611190D01*
X164128928Y-142515952D01*
X164081309Y-142468333D01*
X163986071Y-142420714D01*
X163795595Y-142420714D01*
X163700357Y-142468333D01*
X163081309Y-143087380D02*
X163176547Y-143039761D01*
X163224166Y-142992142D01*
X163271785Y-142896904D01*
X163271785Y-142611190D01*
X163224166Y-142515952D01*
X163176547Y-142468333D01*
X163081309Y-142420714D01*
X162938452Y-142420714D01*
X162843214Y-142468333D01*
X162795595Y-142515952D01*
X162747976Y-142611190D01*
X162747976Y-142896904D01*
X162795595Y-142992142D01*
X162843214Y-143039761D01*
X162938452Y-143087380D01*
X163081309Y-143087380D01*
X162462261Y-142420714D02*
X162081309Y-142420714D01*
X162319404Y-142087380D02*
X162319404Y-142944523D01*
X162271785Y-143039761D01*
X162176547Y-143087380D01*
X162081309Y-143087380D01*
X161700357Y-143039761D02*
X161700357Y-143087380D01*
X161747976Y-143182619D01*
X161795595Y-143230238D01*
X160557500Y-143039761D02*
X160414642Y-143087380D01*
X160176547Y-143087380D01*
X160081309Y-143039761D01*
X160033690Y-142992142D01*
X159986071Y-142896904D01*
X159986071Y-142801666D01*
X160033690Y-142706428D01*
X160081309Y-142658809D01*
X160176547Y-142611190D01*
X160367023Y-142563571D01*
X160462261Y-142515952D01*
X160509880Y-142468333D01*
X160557500Y-142373095D01*
X160557500Y-142277857D01*
X160509880Y-142182619D01*
X160462261Y-142135000D01*
X160367023Y-142087380D01*
X160128928Y-142087380D01*
X159986071Y-142135000D01*
X159176547Y-143039761D02*
X159271785Y-143087380D01*
X159462261Y-143087380D01*
X159557500Y-143039761D01*
X159605119Y-142944523D01*
X159605119Y-142563571D01*
X159557500Y-142468333D01*
X159462261Y-142420714D01*
X159271785Y-142420714D01*
X159176547Y-142468333D01*
X159128928Y-142563571D01*
X159128928Y-142658809D01*
X159605119Y-142754047D01*
X158700357Y-142420714D02*
X158700357Y-143420714D01*
X158700357Y-142468333D02*
X158605119Y-142420714D01*
X158414642Y-142420714D01*
X158319404Y-142468333D01*
X158271785Y-142515952D01*
X158224166Y-142611190D01*
X158224166Y-142896904D01*
X158271785Y-142992142D01*
X158319404Y-143039761D01*
X158414642Y-143087380D01*
X158605119Y-143087380D01*
X158700357Y-143039761D01*
X157938452Y-142420714D02*
X157557500Y-142420714D01*
X157795595Y-142087380D02*
X157795595Y-142944523D01*
X157747976Y-143039761D01*
X157652738Y-143087380D01*
X157557500Y-143087380D01*
X157224166Y-142992142D02*
X157176547Y-143039761D01*
X157224166Y-143087380D01*
X157271785Y-143039761D01*
X157224166Y-142992142D01*
X157224166Y-143087380D01*
X156033690Y-142182619D02*
X155986071Y-142135000D01*
X155890833Y-142087380D01*
X155652738Y-142087380D01*
X155557500Y-142135000D01*
X155509880Y-142182619D01*
X155462261Y-142277857D01*
X155462261Y-142373095D01*
X155509880Y-142515952D01*
X156081309Y-143087380D01*
X155462261Y-143087380D01*
X154843214Y-142087380D02*
X154747976Y-142087380D01*
X154652738Y-142135000D01*
X154605119Y-142182619D01*
X154557500Y-142277857D01*
X154509880Y-142468333D01*
X154509880Y-142706428D01*
X154557500Y-142896904D01*
X154605119Y-142992142D01*
X154652738Y-143039761D01*
X154747976Y-143087380D01*
X154843214Y-143087380D01*
X154938452Y-143039761D01*
X154986071Y-142992142D01*
X155033690Y-142896904D01*
X155081309Y-142706428D01*
X155081309Y-142468333D01*
X155033690Y-142277857D01*
X154986071Y-142182619D01*
X154938452Y-142135000D01*
X154843214Y-142087380D01*
X154128928Y-142182619D02*
X154081309Y-142135000D01*
X153986071Y-142087380D01*
X153747976Y-142087380D01*
X153652738Y-142135000D01*
X153605119Y-142182619D01*
X153557500Y-142277857D01*
X153557500Y-142373095D01*
X153605119Y-142515952D01*
X154176547Y-143087380D01*
X153557500Y-143087380D01*
X152938452Y-142087380D02*
X152843214Y-142087380D01*
X152747976Y-142135000D01*
X152700357Y-142182619D01*
X152652738Y-142277857D01*
X152605119Y-142468333D01*
X152605119Y-142706428D01*
X152652738Y-142896904D01*
X152700357Y-142992142D01*
X152747976Y-143039761D01*
X152843214Y-143087380D01*
X152938452Y-143087380D01*
X153033690Y-143039761D01*
X153081309Y-142992142D01*
X153128928Y-142896904D01*
X153176547Y-142706428D01*
X153176547Y-142468333D01*
X153128928Y-142277857D01*
X153081309Y-142182619D01*
X153033690Y-142135000D01*
X152938452Y-142087380D01*
X172367023Y-144789761D02*
X172224166Y-144837380D01*
X171986071Y-144837380D01*
X171890833Y-144789761D01*
X171843214Y-144742142D01*
X171795595Y-144646904D01*
X171795595Y-144551666D01*
X171843214Y-144456428D01*
X171890833Y-144408809D01*
X171986071Y-144361190D01*
X172176547Y-144313571D01*
X172271785Y-144265952D01*
X172319404Y-144218333D01*
X172367023Y-144123095D01*
X172367023Y-144027857D01*
X172319404Y-143932619D01*
X172271785Y-143885000D01*
X172176547Y-143837380D01*
X171938452Y-143837380D01*
X171795595Y-143885000D01*
X170938452Y-144789761D02*
X171033690Y-144837380D01*
X171224166Y-144837380D01*
X171319404Y-144789761D01*
X171367023Y-144742142D01*
X171414642Y-144646904D01*
X171414642Y-144361190D01*
X171367023Y-144265952D01*
X171319404Y-144218333D01*
X171224166Y-144170714D01*
X171033690Y-144170714D01*
X170938452Y-144218333D01*
X170509880Y-144837380D02*
X170509880Y-143837380D01*
X170081309Y-144837380D02*
X170081309Y-144313571D01*
X170128928Y-144218333D01*
X170224166Y-144170714D01*
X170367023Y-144170714D01*
X170462261Y-144218333D01*
X170509880Y-144265952D01*
X169224166Y-144789761D02*
X169319404Y-144837380D01*
X169509880Y-144837380D01*
X169605119Y-144789761D01*
X169652738Y-144694523D01*
X169652738Y-144313571D01*
X169605119Y-144218333D01*
X169509880Y-144170714D01*
X169319404Y-144170714D01*
X169224166Y-144218333D01*
X169176547Y-144313571D01*
X169176547Y-144408809D01*
X169652738Y-144504047D01*
X169319404Y-143789761D02*
X169462261Y-143932619D01*
X168747976Y-144837380D02*
X168747976Y-144170714D01*
X168747976Y-144265952D02*
X168700357Y-144218333D01*
X168605119Y-144170714D01*
X168462261Y-144170714D01*
X168367023Y-144218333D01*
X168319404Y-144313571D01*
X168319404Y-144837380D01*
X168319404Y-144313571D02*
X168271785Y-144218333D01*
X168176547Y-144170714D01*
X168033690Y-144170714D01*
X167938452Y-144218333D01*
X167890833Y-144313571D01*
X167890833Y-144837380D01*
X166986071Y-144837380D02*
X166986071Y-144313571D01*
X167033690Y-144218333D01*
X167128928Y-144170714D01*
X167319404Y-144170714D01*
X167414642Y-144218333D01*
X166986071Y-144789761D02*
X167081309Y-144837380D01*
X167319404Y-144837380D01*
X167414642Y-144789761D01*
X167462261Y-144694523D01*
X167462261Y-144599285D01*
X167414642Y-144504047D01*
X167319404Y-144456428D01*
X167081309Y-144456428D01*
X166986071Y-144408809D01*
X165319404Y-144837380D02*
X165319404Y-143837380D01*
X165319404Y-144789761D02*
X165414642Y-144837380D01*
X165605119Y-144837380D01*
X165700357Y-144789761D01*
X165747976Y-144742142D01*
X165795595Y-144646904D01*
X165795595Y-144361190D01*
X165747976Y-144265952D01*
X165700357Y-144218333D01*
X165605119Y-144170714D01*
X165414642Y-144170714D01*
X165319404Y-144218333D01*
X164462261Y-144789761D02*
X164557500Y-144837380D01*
X164747976Y-144837380D01*
X164843214Y-144789761D01*
X164890833Y-144694523D01*
X164890833Y-144313571D01*
X164843214Y-144218333D01*
X164747976Y-144170714D01*
X164557500Y-144170714D01*
X164462261Y-144218333D01*
X164414642Y-144313571D01*
X164414642Y-144408809D01*
X164890833Y-144504047D01*
X163319404Y-143837380D02*
X163081309Y-144837380D01*
X162890833Y-144123095D01*
X162700357Y-144837380D01*
X162462261Y-143837380D01*
X162176547Y-143837380D02*
X161557500Y-143837380D01*
X161890833Y-144218333D01*
X161747976Y-144218333D01*
X161652738Y-144265952D01*
X161605119Y-144313571D01*
X161557500Y-144408809D01*
X161557500Y-144646904D01*
X161605119Y-144742142D01*
X161652738Y-144789761D01*
X161747976Y-144837380D01*
X162033690Y-144837380D01*
X162128928Y-144789761D01*
X162176547Y-144742142D01*
X161128928Y-144837380D02*
X161128928Y-143837380D01*
X160747976Y-143837380D01*
X160652738Y-143885000D01*
X160605119Y-143932619D01*
X160557500Y-144027857D01*
X160557500Y-144170714D01*
X160605119Y-144265952D01*
X160652738Y-144313571D01*
X160747976Y-144361190D01*
X161128928Y-144361190D01*
X160128928Y-144837380D02*
X160128928Y-143837380D01*
X159795595Y-144551666D01*
X159462261Y-143837380D01*
X159462261Y-144837380D01*
X172319404Y-146587380D02*
X172319404Y-145587380D01*
X171890833Y-146587380D02*
X171890833Y-146063571D01*
X171938452Y-145968333D01*
X172033690Y-145920714D01*
X172176547Y-145920714D01*
X172271785Y-145968333D01*
X172319404Y-146015952D01*
X171557500Y-145920714D02*
X171176547Y-145920714D01*
X171414642Y-145587380D02*
X171414642Y-146444523D01*
X171367023Y-146539761D01*
X171271785Y-146587380D01*
X171176547Y-146587380D01*
X170986071Y-145920714D02*
X170605119Y-145920714D01*
X170843214Y-145587380D02*
X170843214Y-146444523D01*
X170795595Y-146539761D01*
X170700357Y-146587380D01*
X170605119Y-146587380D01*
X170271785Y-145920714D02*
X170271785Y-146920714D01*
X170271785Y-145968333D02*
X170176547Y-145920714D01*
X169986071Y-145920714D01*
X169890833Y-145968333D01*
X169843214Y-146015952D01*
X169795595Y-146111190D01*
X169795595Y-146396904D01*
X169843214Y-146492142D01*
X169890833Y-146539761D01*
X169986071Y-146587380D01*
X170176547Y-146587380D01*
X170271785Y-146539761D01*
X169414642Y-146539761D02*
X169319404Y-146587380D01*
X169128928Y-146587380D01*
X169033690Y-146539761D01*
X168986071Y-146444523D01*
X168986071Y-146396904D01*
X169033690Y-146301666D01*
X169128928Y-146254047D01*
X169271785Y-146254047D01*
X169367023Y-146206428D01*
X169414642Y-146111190D01*
X169414642Y-146063571D01*
X169367023Y-145968333D01*
X169271785Y-145920714D01*
X169128928Y-145920714D01*
X169033690Y-145968333D01*
X168557500Y-146492142D02*
X168509880Y-146539761D01*
X168557500Y-146587380D01*
X168605119Y-146539761D01*
X168557500Y-146492142D01*
X168557500Y-146587380D01*
X168557500Y-145968333D02*
X168509880Y-146015952D01*
X168557500Y-146063571D01*
X168605119Y-146015952D01*
X168557500Y-145968333D01*
X168557500Y-146063571D01*
X167367023Y-145539761D02*
X168224166Y-146825476D01*
X166319404Y-145539761D02*
X167176547Y-146825476D01*
X165557500Y-145920714D02*
X165557500Y-146730238D01*
X165605119Y-146825476D01*
X165652738Y-146873095D01*
X165747976Y-146920714D01*
X165890833Y-146920714D01*
X165986071Y-146873095D01*
X165557500Y-146539761D02*
X165652738Y-146587380D01*
X165843214Y-146587380D01*
X165938452Y-146539761D01*
X165986071Y-146492142D01*
X166033690Y-146396904D01*
X166033690Y-146111190D01*
X165986071Y-146015952D01*
X165938452Y-145968333D01*
X165843214Y-145920714D01*
X165652738Y-145920714D01*
X165557500Y-145968333D01*
X165081309Y-146587380D02*
X165081309Y-145920714D01*
X165081309Y-145587380D02*
X165128928Y-145635000D01*
X165081309Y-145682619D01*
X165033690Y-145635000D01*
X165081309Y-145587380D01*
X165081309Y-145682619D01*
X164747976Y-145920714D02*
X164367023Y-145920714D01*
X164605119Y-145587380D02*
X164605119Y-146444523D01*
X164557500Y-146539761D01*
X164462261Y-146587380D01*
X164367023Y-146587380D01*
X164033690Y-146587380D02*
X164033690Y-145587380D01*
X163605119Y-146587380D02*
X163605119Y-146063571D01*
X163652738Y-145968333D01*
X163747976Y-145920714D01*
X163890833Y-145920714D01*
X163986071Y-145968333D01*
X164033690Y-146015952D01*
X162700357Y-145920714D02*
X162700357Y-146587380D01*
X163128928Y-145920714D02*
X163128928Y-146444523D01*
X163081309Y-146539761D01*
X162986071Y-146587380D01*
X162843214Y-146587380D01*
X162747976Y-146539761D01*
X162700357Y-146492142D01*
X162224166Y-146587380D02*
X162224166Y-145587380D01*
X162224166Y-145968333D02*
X162128928Y-145920714D01*
X161938452Y-145920714D01*
X161843214Y-145968333D01*
X161795595Y-146015952D01*
X161747976Y-146111190D01*
X161747976Y-146396904D01*
X161795595Y-146492142D01*
X161843214Y-146539761D01*
X161938452Y-146587380D01*
X162128928Y-146587380D01*
X162224166Y-146539761D01*
X161319404Y-146492142D02*
X161271785Y-146539761D01*
X161319404Y-146587380D01*
X161367023Y-146539761D01*
X161319404Y-146492142D01*
X161319404Y-146587380D01*
X160414642Y-146539761D02*
X160509880Y-146587380D01*
X160700357Y-146587380D01*
X160795595Y-146539761D01*
X160843214Y-146492142D01*
X160890833Y-146396904D01*
X160890833Y-146111190D01*
X160843214Y-146015952D01*
X160795595Y-145968333D01*
X160700357Y-145920714D01*
X160509880Y-145920714D01*
X160414642Y-145968333D01*
X159843214Y-146587380D02*
X159938452Y-146539761D01*
X159986071Y-146492142D01*
X160033690Y-146396904D01*
X160033690Y-146111190D01*
X159986071Y-146015952D01*
X159938452Y-145968333D01*
X159843214Y-145920714D01*
X159700357Y-145920714D01*
X159605119Y-145968333D01*
X159557500Y-146015952D01*
X159509880Y-146111190D01*
X159509880Y-146396904D01*
X159557500Y-146492142D01*
X159605119Y-146539761D01*
X159700357Y-146587380D01*
X159843214Y-146587380D01*
X159081309Y-146587380D02*
X159081309Y-145920714D01*
X159081309Y-146015952D02*
X159033690Y-145968333D01*
X158938452Y-145920714D01*
X158795595Y-145920714D01*
X158700357Y-145968333D01*
X158652738Y-146063571D01*
X158652738Y-146587380D01*
X158652738Y-146063571D02*
X158605119Y-145968333D01*
X158509880Y-145920714D01*
X158367023Y-145920714D01*
X158271785Y-145968333D01*
X158224166Y-146063571D01*
X158224166Y-146587380D01*
X157033690Y-145539761D02*
X157890833Y-146825476D01*
X156700357Y-146587380D02*
X156700357Y-145920714D01*
X156700357Y-146111190D02*
X156652738Y-146015952D01*
X156605119Y-145968333D01*
X156509880Y-145920714D01*
X156414642Y-145920714D01*
X156081309Y-146587380D02*
X156081309Y-145920714D01*
X156081309Y-145587380D02*
X156128928Y-145635000D01*
X156081309Y-145682619D01*
X156033690Y-145635000D01*
X156081309Y-145587380D01*
X156081309Y-145682619D01*
X155176547Y-146539761D02*
X155271785Y-146587380D01*
X155462261Y-146587380D01*
X155557500Y-146539761D01*
X155605119Y-146492142D01*
X155652738Y-146396904D01*
X155652738Y-146111190D01*
X155605119Y-146015952D01*
X155557500Y-145968333D01*
X155462261Y-145920714D01*
X155271785Y-145920714D01*
X155176547Y-145968333D01*
X154747976Y-146587380D02*
X154747976Y-145587380D01*
X154319404Y-146587380D02*
X154319404Y-146063571D01*
X154367023Y-145968333D01*
X154462261Y-145920714D01*
X154605119Y-145920714D01*
X154700357Y-145968333D01*
X154747976Y-146015952D01*
X153414642Y-146587380D02*
X153414642Y-146063571D01*
X153462261Y-145968333D01*
X153557500Y-145920714D01*
X153747976Y-145920714D01*
X153843214Y-145968333D01*
X153414642Y-146539761D02*
X153509880Y-146587380D01*
X153747976Y-146587380D01*
X153843214Y-146539761D01*
X153890833Y-146444523D01*
X153890833Y-146349285D01*
X153843214Y-146254047D01*
X153747976Y-146206428D01*
X153509880Y-146206428D01*
X153414642Y-146158809D01*
X152938452Y-146587380D02*
X152938452Y-145920714D01*
X152938452Y-146111190D02*
X152890833Y-146015952D01*
X152843214Y-145968333D01*
X152747976Y-145920714D01*
X152652738Y-145920714D01*
X151890833Y-146587380D02*
X151890833Y-145587380D01*
X151890833Y-146539761D02*
X151986071Y-146587380D01*
X152176547Y-146587380D01*
X152271785Y-146539761D01*
X152319404Y-146492142D01*
X152367023Y-146396904D01*
X152367023Y-146111190D01*
X152319404Y-146015952D01*
X152271785Y-145968333D01*
X152176547Y-145920714D01*
X151986071Y-145920714D01*
X151890833Y-145968333D01*
X151414642Y-146206428D02*
X150652738Y-146206428D01*
X150319404Y-145920714D02*
X149938452Y-145920714D01*
X150176547Y-146587380D02*
X150176547Y-145730238D01*
X150128928Y-145635000D01*
X150033690Y-145587380D01*
X149938452Y-145587380D01*
X149176547Y-146587380D02*
X149176547Y-146063571D01*
X149224166Y-145968333D01*
X149319404Y-145920714D01*
X149509880Y-145920714D01*
X149605119Y-145968333D01*
X149176547Y-146539761D02*
X149271785Y-146587380D01*
X149509880Y-146587380D01*
X149605119Y-146539761D01*
X149652738Y-146444523D01*
X149652738Y-146349285D01*
X149605119Y-146254047D01*
X149509880Y-146206428D01*
X149271785Y-146206428D01*
X149176547Y-146158809D01*
X148271785Y-145920714D02*
X148271785Y-146730238D01*
X148319404Y-146825476D01*
X148367023Y-146873095D01*
X148462261Y-146920714D01*
X148605119Y-146920714D01*
X148700357Y-146873095D01*
X148271785Y-146539761D02*
X148367023Y-146587380D01*
X148557500Y-146587380D01*
X148652738Y-146539761D01*
X148700357Y-146492142D01*
X148747976Y-146396904D01*
X148747976Y-146111190D01*
X148700357Y-146015952D01*
X148652738Y-145968333D01*
X148557500Y-145920714D01*
X148367023Y-145920714D01*
X148271785Y-145968333D01*
X147652738Y-146587380D02*
X147747976Y-146539761D01*
X147795595Y-146492142D01*
X147843214Y-146396904D01*
X147843214Y-146111190D01*
X147795595Y-146015952D01*
X147747976Y-145968333D01*
X147652738Y-145920714D01*
X147509880Y-145920714D01*
X147414642Y-145968333D01*
X147367023Y-146015952D01*
X147319404Y-146111190D01*
X147319404Y-146396904D01*
X147367023Y-146492142D01*
X147414642Y-146539761D01*
X147509880Y-146587380D01*
X147652738Y-146587380D01*
X147033690Y-145920714D02*
X146652738Y-145920714D01*
X146890833Y-145587380D02*
X146890833Y-146444523D01*
X146843214Y-146539761D01*
X146747976Y-146587380D01*
X146652738Y-146587380D01*
X145605119Y-145539761D02*
X146462261Y-146825476D01*
X145271785Y-146587380D02*
X145271785Y-145920714D01*
X145271785Y-146111190D02*
X145224166Y-146015952D01*
X145176547Y-145968333D01*
X145081309Y-145920714D01*
X144986071Y-145920714D01*
X144224166Y-146587380D02*
X144224166Y-146063571D01*
X144271785Y-145968333D01*
X144367023Y-145920714D01*
X144557500Y-145920714D01*
X144652738Y-145968333D01*
X144224166Y-146539761D02*
X144319404Y-146587380D01*
X144557500Y-146587380D01*
X144652738Y-146539761D01*
X144700357Y-146444523D01*
X144700357Y-146349285D01*
X144652738Y-146254047D01*
X144557500Y-146206428D01*
X144319404Y-146206428D01*
X144224166Y-146158809D01*
X143747976Y-146206428D02*
X142986071Y-146206428D01*
X142605119Y-145920714D02*
X142414642Y-146587380D01*
X142224166Y-146111190D01*
X142033690Y-146587380D01*
X141843214Y-145920714D01*
X141557500Y-145587380D02*
X140938452Y-145587380D01*
X141271785Y-145968333D01*
X141128928Y-145968333D01*
X141033690Y-146015952D01*
X140986071Y-146063571D01*
X140938452Y-146158809D01*
X140938452Y-146396904D01*
X140986071Y-146492142D01*
X141033690Y-146539761D01*
X141128928Y-146587380D01*
X141414642Y-146587380D01*
X141509880Y-146539761D01*
X141557500Y-146492142D01*
X140509880Y-145920714D02*
X140509880Y-146920714D01*
X140509880Y-145968333D02*
X140414642Y-145920714D01*
X140224166Y-145920714D01*
X140128928Y-145968333D01*
X140081309Y-146015952D01*
X140033690Y-146111190D01*
X140033690Y-146396904D01*
X140081309Y-146492142D01*
X140128928Y-146539761D01*
X140224166Y-146587380D01*
X140414642Y-146587380D01*
X140509880Y-146539761D01*
X139605119Y-146587380D02*
X139605119Y-145920714D01*
X139605119Y-146015952D02*
X139557500Y-145968333D01*
X139462261Y-145920714D01*
X139319404Y-145920714D01*
X139224166Y-145968333D01*
X139176547Y-146063571D01*
X139176547Y-146587380D01*
X139176547Y-146063571D02*
X139128928Y-145968333D01*
X139033690Y-145920714D01*
X138890833Y-145920714D01*
X138795595Y-145968333D01*
X138747976Y-146063571D01*
X138747976Y-146587380D01*
X138271785Y-146206428D02*
X137509880Y-146206428D01*
X137128928Y-145920714D02*
X136890833Y-146587380D01*
X136652738Y-145920714D01*
X136414642Y-145920714D02*
X136033690Y-145920714D01*
X136271785Y-146587380D02*
X136271785Y-145730238D01*
X136224166Y-145635000D01*
X136128928Y-145587380D01*
X136033690Y-145587380D01*
X135557500Y-146587380D02*
X135652738Y-146539761D01*
X135700357Y-146492142D01*
X135747976Y-146396904D01*
X135747976Y-146111190D01*
X135700357Y-146015952D01*
X135652738Y-145968333D01*
X135557500Y-145920714D01*
X135414642Y-145920714D01*
X135319404Y-145968333D01*
X135271785Y-146015952D01*
X135224166Y-146111190D01*
X135224166Y-146396904D01*
X135271785Y-146492142D01*
X135319404Y-146539761D01*
X135414642Y-146587380D01*
X135557500Y-146587380D01*
X134795595Y-146206428D02*
X134033690Y-146206428D01*
X133128928Y-146587380D02*
X133128928Y-145587380D01*
X133128928Y-146539761D02*
X133224166Y-146587380D01*
X133414642Y-146587380D01*
X133509880Y-146539761D01*
X133557500Y-146492142D01*
X133605119Y-146396904D01*
X133605119Y-146111190D01*
X133557500Y-146015952D01*
X133509880Y-145968333D01*
X133414642Y-145920714D01*
X133224166Y-145920714D01*
X133128928Y-145968333D01*
X132509880Y-146587380D02*
X132605119Y-146539761D01*
X132652738Y-146492142D01*
X132700357Y-146396904D01*
X132700357Y-146111190D01*
X132652738Y-146015952D01*
X132605119Y-145968333D01*
X132509880Y-145920714D01*
X132367023Y-145920714D01*
X132271785Y-145968333D01*
X132224166Y-146015952D01*
X132176547Y-146111190D01*
X132176547Y-146396904D01*
X132224166Y-146492142D01*
X132271785Y-146539761D01*
X132367023Y-146587380D01*
X132509880Y-146587380D01*
D10*
X186690476Y-104452380D02*
X187166666Y-104452380D01*
X187166666Y-103452380D01*
X185785714Y-104357142D02*
X185833333Y-104404761D01*
X185976190Y-104452380D01*
X186071428Y-104452380D01*
X186214285Y-104404761D01*
X186309523Y-104309523D01*
X186357142Y-104214285D01*
X186404761Y-104023809D01*
X186404761Y-103880952D01*
X186357142Y-103690476D01*
X186309523Y-103595238D01*
X186214285Y-103500000D01*
X186071428Y-103452380D01*
X185976190Y-103452380D01*
X185833333Y-103500000D01*
X185785714Y-103547619D01*
X185357142Y-104452380D02*
X185357142Y-103452380D01*
X185119047Y-103452380D01*
X184976190Y-103500000D01*
X184880952Y-103595238D01*
X184833333Y-103690476D01*
X184785714Y-103880952D01*
X184785714Y-104023809D01*
X184833333Y-104214285D01*
X184880952Y-104309523D01*
X184976190Y-104404761D01*
X185119047Y-104452380D01*
X185357142Y-104452380D01*
D13*
G36*
X181031114Y-146094505D02*
G01*
X180956461Y-146131727D01*
X180890569Y-146200261D01*
X180872423Y-146225648D01*
X180852655Y-146258866D01*
X180839828Y-146294945D01*
X180832490Y-146343098D01*
X180829187Y-146412536D01*
X180828462Y-146504206D01*
X180831737Y-146629830D01*
X180843123Y-146724154D01*
X180864959Y-146794523D01*
X180899581Y-146848286D01*
X180949330Y-146892788D01*
X180952986Y-146895423D01*
X181002015Y-146922377D01*
X181061055Y-146935712D01*
X181136141Y-146939000D01*
X181258205Y-146939000D01*
X181258256Y-147057497D01*
X181259392Y-147123492D01*
X181266314Y-147162202D01*
X181284402Y-147185419D01*
X181319038Y-147204933D01*
X181327355Y-147208920D01*
X181366280Y-147227603D01*
X181396417Y-147239403D01*
X181418826Y-147240422D01*
X181434567Y-147226761D01*
X181444698Y-147194522D01*
X181450277Y-147139804D01*
X181452365Y-147058711D01*
X181452019Y-146947344D01*
X181450300Y-146801802D01*
X181449763Y-146758269D01*
X181447828Y-146608205D01*
X181446096Y-146510042D01*
X181258308Y-146510042D01*
X181257252Y-146593364D01*
X181252562Y-146647880D01*
X181241949Y-146683837D01*
X181223128Y-146711482D01*
X181210350Y-146724965D01*
X181158110Y-146764417D01*
X181111858Y-146767628D01*
X181064133Y-146735049D01*
X181062923Y-146733846D01*
X181043506Y-146708668D01*
X181031693Y-146674447D01*
X181025735Y-146621748D01*
X181023880Y-146541131D01*
X181023846Y-146523271D01*
X181028330Y-146412175D01*
X181042926Y-146335161D01*
X181069350Y-146288147D01*
X181109317Y-146267050D01*
X181132416Y-146264923D01*
X181187238Y-146274900D01*
X181224842Y-146307752D01*
X181247477Y-146367857D01*
X181257394Y-146459598D01*
X181258308Y-146510042D01*
X181446096Y-146510042D01*
X181445778Y-146492060D01*
X181443127Y-146404679D01*
X181439394Y-146340905D01*
X181434093Y-146295582D01*
X181426742Y-146263555D01*
X181416857Y-146239668D01*
X181403954Y-146218764D01*
X181398421Y-146210898D01*
X181325031Y-146136595D01*
X181232240Y-146094467D01*
X181124904Y-146082722D01*
X181031114Y-146094505D01*
G37*
X181031114Y-146094505D02*
X180956461Y-146131727D01*
X180890569Y-146200261D01*
X180872423Y-146225648D01*
X180852655Y-146258866D01*
X180839828Y-146294945D01*
X180832490Y-146343098D01*
X180829187Y-146412536D01*
X180828462Y-146504206D01*
X180831737Y-146629830D01*
X180843123Y-146724154D01*
X180864959Y-146794523D01*
X180899581Y-146848286D01*
X180949330Y-146892788D01*
X180952986Y-146895423D01*
X181002015Y-146922377D01*
X181061055Y-146935712D01*
X181136141Y-146939000D01*
X181258205Y-146939000D01*
X181258256Y-147057497D01*
X181259392Y-147123492D01*
X181266314Y-147162202D01*
X181284402Y-147185419D01*
X181319038Y-147204933D01*
X181327355Y-147208920D01*
X181366280Y-147227603D01*
X181396417Y-147239403D01*
X181418826Y-147240422D01*
X181434567Y-147226761D01*
X181444698Y-147194522D01*
X181450277Y-147139804D01*
X181452365Y-147058711D01*
X181452019Y-146947344D01*
X181450300Y-146801802D01*
X181449763Y-146758269D01*
X181447828Y-146608205D01*
X181446096Y-146510042D01*
X181258308Y-146510042D01*
X181257252Y-146593364D01*
X181252562Y-146647880D01*
X181241949Y-146683837D01*
X181223128Y-146711482D01*
X181210350Y-146724965D01*
X181158110Y-146764417D01*
X181111858Y-146767628D01*
X181064133Y-146735049D01*
X181062923Y-146733846D01*
X181043506Y-146708668D01*
X181031693Y-146674447D01*
X181025735Y-146621748D01*
X181023880Y-146541131D01*
X181023846Y-146523271D01*
X181028330Y-146412175D01*
X181042926Y-146335161D01*
X181069350Y-146288147D01*
X181109317Y-146267050D01*
X181132416Y-146264923D01*
X181187238Y-146274900D01*
X181224842Y-146307752D01*
X181247477Y-146367857D01*
X181257394Y-146459598D01*
X181258308Y-146510042D01*
X181446096Y-146510042D01*
X181445778Y-146492060D01*
X181443127Y-146404679D01*
X181439394Y-146340905D01*
X181434093Y-146295582D01*
X181426742Y-146263555D01*
X181416857Y-146239668D01*
X181403954Y-146218764D01*
X181398421Y-146210898D01*
X181325031Y-146136595D01*
X181232240Y-146094467D01*
X181124904Y-146082722D01*
X181031114Y-146094505D01*
G36*
X179528336Y-146105089D02*
G01*
X179465633Y-146141358D01*
X179422039Y-146177358D01*
X179390155Y-146215075D01*
X179368190Y-146261199D01*
X179354351Y-146322421D01*
X179346847Y-146405431D01*
X179343883Y-146516919D01*
X179343539Y-146597062D01*
X179343539Y-146892065D01*
X179509615Y-146966515D01*
X179519385Y-146643402D01*
X179523421Y-146522729D01*
X179527656Y-146435141D01*
X179532903Y-146374650D01*
X179539975Y-146335268D01*
X179549689Y-146311007D01*
X179562856Y-146295880D01*
X179567081Y-146292606D01*
X179631091Y-146267034D01*
X179695792Y-146277153D01*
X179734308Y-146304000D01*
X179749975Y-146323024D01*
X179760820Y-146347988D01*
X179767712Y-146385834D01*
X179771521Y-146443502D01*
X179773117Y-146527935D01*
X179773385Y-146615928D01*
X179773437Y-146726323D01*
X179775328Y-146804463D01*
X179781655Y-146857165D01*
X179795017Y-146891242D01*
X179818015Y-146913511D01*
X179853246Y-146930787D01*
X179900303Y-146948738D01*
X179951697Y-146968278D01*
X179945579Y-146621485D01*
X179943116Y-146496468D01*
X179940233Y-146404082D01*
X179936102Y-146337881D01*
X179929893Y-146291420D01*
X179920774Y-146258256D01*
X179907917Y-146231944D01*
X179892416Y-146208729D01*
X179817629Y-146134569D01*
X179726372Y-146091684D01*
X179627117Y-146081412D01*
X179528336Y-146105089D01*
G37*
X179528336Y-146105089D02*
X179465633Y-146141358D01*
X179422039Y-146177358D01*
X179390155Y-146215075D01*
X179368190Y-146261199D01*
X179354351Y-146322421D01*
X179346847Y-146405431D01*
X179343883Y-146516919D01*
X179343539Y-146597062D01*
X179343539Y-146892065D01*
X179509615Y-146966515D01*
X179519385Y-146643402D01*
X179523421Y-146522729D01*
X179527656Y-146435141D01*
X179532903Y-146374650D01*
X179539975Y-146335268D01*
X179549689Y-146311007D01*
X179562856Y-146295880D01*
X179567081Y-146292606D01*
X179631091Y-146267034D01*
X179695792Y-146277153D01*
X179734308Y-146304000D01*
X179749975Y-146323024D01*
X179760820Y-146347988D01*
X179767712Y-146385834D01*
X179771521Y-146443502D01*
X179773117Y-146527935D01*
X179773385Y-146615928D01*
X179773437Y-146726323D01*
X179775328Y-146804463D01*
X179781655Y-146857165D01*
X179795017Y-146891242D01*
X179818015Y-146913511D01*
X179853246Y-146930787D01*
X179900303Y-146948738D01*
X179951697Y-146968278D01*
X179945579Y-146621485D01*
X179943116Y-146496468D01*
X179940233Y-146404082D01*
X179936102Y-146337881D01*
X179929893Y-146291420D01*
X179920774Y-146258256D01*
X179907917Y-146231944D01*
X179892416Y-146208729D01*
X179817629Y-146134569D01*
X179726372Y-146091684D01*
X179627117Y-146081412D01*
X179528336Y-146105089D01*
G36*
X181783114Y-146097256D02*
G01*
X181691536Y-146145409D01*
X181623951Y-146222905D01*
X181599943Y-146272727D01*
X181581262Y-146347533D01*
X181571699Y-146442052D01*
X181570792Y-146545210D01*
X181578079Y-146645935D01*
X181593097Y-146733153D01*
X181615385Y-146795791D01*
X181622235Y-146806579D01*
X181703368Y-146887105D01*
X181799734Y-146935336D01*
X181904299Y-146949450D01*
X182010032Y-146927629D01*
X182039457Y-146914547D01*
X182096759Y-146874231D01*
X182147050Y-146820775D01*
X182151803Y-146813995D01*
X182171122Y-146781321D01*
X182183892Y-146746394D01*
X182191436Y-146700414D01*
X182195076Y-146634584D01*
X182196135Y-146540105D01*
X182196154Y-146518923D01*
X182196106Y-146512182D01*
X182000769Y-146512182D01*
X181999632Y-146601349D01*
X181995159Y-146660520D01*
X181985754Y-146698741D01*
X181969824Y-146725053D01*
X181961692Y-146733846D01*
X181914942Y-146767261D01*
X181869553Y-146765737D01*
X181823660Y-146736752D01*
X181796288Y-146705809D01*
X181780077Y-146660643D01*
X181770974Y-146589420D01*
X181770349Y-146581114D01*
X181768796Y-146452037D01*
X181785035Y-146356172D01*
X181818848Y-146294107D01*
X181870016Y-146266432D01*
X181888280Y-146264923D01*
X181936240Y-146272513D01*
X181969047Y-146298808D01*
X181989105Y-146349095D01*
X181998822Y-146428664D01*
X182000769Y-146512182D01*
X182196106Y-146512182D01*
X182195426Y-146418249D01*
X182192371Y-146347906D01*
X182185678Y-146299163D01*
X182174040Y-146263288D01*
X182156147Y-146231548D01*
X182152192Y-146225648D01*
X182085733Y-146146104D01*
X182013315Y-146099929D01*
X181925151Y-146081599D01*
X181895213Y-146080703D01*
X181783114Y-146097256D01*
G37*
X181783114Y-146097256D02*
X181691536Y-146145409D01*
X181623951Y-146222905D01*
X181599943Y-146272727D01*
X181581262Y-146347533D01*
X181571699Y-146442052D01*
X181570792Y-146545210D01*
X181578079Y-146645935D01*
X181593097Y-146733153D01*
X181615385Y-146795791D01*
X181622235Y-146806579D01*
X181703368Y-146887105D01*
X181799734Y-146935336D01*
X181904299Y-146949450D01*
X182010032Y-146927629D01*
X182039457Y-146914547D01*
X182096759Y-146874231D01*
X182147050Y-146820775D01*
X182151803Y-146813995D01*
X182171122Y-146781321D01*
X182183892Y-146746394D01*
X182191436Y-146700414D01*
X182195076Y-146634584D01*
X182196135Y-146540105D01*
X182196154Y-146518923D01*
X182196106Y-146512182D01*
X182000769Y-146512182D01*
X181999632Y-146601349D01*
X181995159Y-146660520D01*
X181985754Y-146698741D01*
X181969824Y-146725053D01*
X181961692Y-146733846D01*
X181914942Y-146767261D01*
X181869553Y-146765737D01*
X181823660Y-146736752D01*
X181796288Y-146705809D01*
X181780077Y-146660643D01*
X181770974Y-146589420D01*
X181770349Y-146581114D01*
X181768796Y-146452037D01*
X181785035Y-146356172D01*
X181818848Y-146294107D01*
X181870016Y-146266432D01*
X181888280Y-146264923D01*
X181936240Y-146272513D01*
X181969047Y-146298808D01*
X181989105Y-146349095D01*
X181998822Y-146428664D01*
X182000769Y-146512182D01*
X182196106Y-146512182D01*
X182195426Y-146418249D01*
X182192371Y-146347906D01*
X182185678Y-146299163D01*
X182174040Y-146263288D01*
X182156147Y-146231548D01*
X182152192Y-146225648D01*
X182085733Y-146146104D01*
X182013315Y-146099929D01*
X181925151Y-146081599D01*
X181895213Y-146080703D01*
X181783114Y-146097256D01*
G36*
X180265746Y-146109745D02*
G01*
X180188714Y-146161567D01*
X180129184Y-146236412D01*
X180093622Y-146331654D01*
X180086429Y-146401756D01*
X180087246Y-146431009D01*
X180094086Y-146453407D01*
X180112888Y-146473474D01*
X180149592Y-146495733D01*
X180210138Y-146524709D01*
X180300466Y-146564927D01*
X180300923Y-146565129D01*
X180384067Y-146603210D01*
X180452247Y-146637025D01*
X180498495Y-146662933D01*
X180515842Y-146677295D01*
X180515846Y-146677411D01*
X180500557Y-146708685D01*
X180464804Y-146743157D01*
X180423758Y-146767990D01*
X180402963Y-146772923D01*
X180346230Y-146755862D01*
X180297373Y-146713133D01*
X180273535Y-146666155D01*
X180250603Y-146631522D01*
X180205682Y-146592081D01*
X180152877Y-146558009D01*
X180106290Y-146539480D01*
X180096548Y-146538462D01*
X180085582Y-146555215D01*
X180084921Y-146598039D01*
X180092980Y-146655781D01*
X180108173Y-146717289D01*
X180128914Y-146771409D01*
X180129962Y-146773510D01*
X180192379Y-146860660D01*
X180273274Y-146919939D01*
X180365144Y-146949034D01*
X180460487Y-146945634D01*
X180551802Y-146907428D01*
X180555862Y-146904741D01*
X180627694Y-146839642D01*
X180674927Y-146754705D01*
X180701066Y-146643021D01*
X180704574Y-146611643D01*
X180710787Y-146463536D01*
X180703339Y-146394468D01*
X180515846Y-146394468D01*
X180513410Y-146437552D01*
X180500086Y-146450126D01*
X180466868Y-146440719D01*
X180414506Y-146418483D01*
X180355976Y-146390610D01*
X180354521Y-146389872D01*
X180304911Y-146363777D01*
X180285000Y-146346363D01*
X180289910Y-146328107D01*
X180310584Y-146304120D01*
X180363181Y-146269406D01*
X180419823Y-146266856D01*
X180470631Y-146292119D01*
X180505724Y-146340847D01*
X180515846Y-146394468D01*
X180703339Y-146394468D01*
X180698008Y-146345036D01*
X180665222Y-146251055D01*
X180619579Y-146185215D01*
X180537198Y-146118681D01*
X180446454Y-146085676D01*
X180353815Y-146083573D01*
X180265746Y-146109745D01*
G37*
X180265746Y-146109745D02*
X180188714Y-146161567D01*
X180129184Y-146236412D01*
X180093622Y-146331654D01*
X180086429Y-146401756D01*
X180087246Y-146431009D01*
X180094086Y-146453407D01*
X180112888Y-146473474D01*
X180149592Y-146495733D01*
X180210138Y-146524709D01*
X180300466Y-146564927D01*
X180300923Y-146565129D01*
X180384067Y-146603210D01*
X180452247Y-146637025D01*
X180498495Y-146662933D01*
X180515842Y-146677295D01*
X180515846Y-146677411D01*
X180500557Y-146708685D01*
X180464804Y-146743157D01*
X180423758Y-146767990D01*
X180402963Y-146772923D01*
X180346230Y-146755862D01*
X180297373Y-146713133D01*
X180273535Y-146666155D01*
X180250603Y-146631522D01*
X180205682Y-146592081D01*
X180152877Y-146558009D01*
X180106290Y-146539480D01*
X180096548Y-146538462D01*
X180085582Y-146555215D01*
X180084921Y-146598039D01*
X180092980Y-146655781D01*
X180108173Y-146717289D01*
X180128914Y-146771409D01*
X180129962Y-146773510D01*
X180192379Y-146860660D01*
X180273274Y-146919939D01*
X180365144Y-146949034D01*
X180460487Y-146945634D01*
X180551802Y-146907428D01*
X180555862Y-146904741D01*
X180627694Y-146839642D01*
X180674927Y-146754705D01*
X180701066Y-146643021D01*
X180704574Y-146611643D01*
X180710787Y-146463536D01*
X180703339Y-146394468D01*
X180515846Y-146394468D01*
X180513410Y-146437552D01*
X180500086Y-146450126D01*
X180466868Y-146440719D01*
X180414506Y-146418483D01*
X180355976Y-146390610D01*
X180354521Y-146389872D01*
X180304911Y-146363777D01*
X180285000Y-146346363D01*
X180289910Y-146328107D01*
X180310584Y-146304120D01*
X180363181Y-146269406D01*
X180419823Y-146266856D01*
X180470631Y-146292119D01*
X180505724Y-146340847D01*
X180515846Y-146394468D01*
X180703339Y-146394468D01*
X180698008Y-146345036D01*
X180665222Y-146251055D01*
X180619579Y-146185215D01*
X180537198Y-146118681D01*
X180446454Y-146085676D01*
X180353815Y-146083573D01*
X180265746Y-146109745D01*
G36*
X178640154Y-146002120D02*
G01*
X178634428Y-146081980D01*
X178627851Y-146129039D01*
X178618738Y-146149566D01*
X178605402Y-146149829D01*
X178601077Y-146147378D01*
X178543556Y-146129636D01*
X178468732Y-146130672D01*
X178392661Y-146148910D01*
X178345082Y-146172505D01*
X178296298Y-146210198D01*
X178260636Y-146252855D01*
X178236155Y-146307057D01*
X178220913Y-146379384D01*
X178212970Y-146476419D01*
X178210384Y-146604742D01*
X178210338Y-146629358D01*
X178210308Y-146905870D01*
X178271839Y-146927320D01*
X178315541Y-146941912D01*
X178339518Y-146948706D01*
X178340223Y-146948769D01*
X178342585Y-146930345D01*
X178344594Y-146879526D01*
X178346099Y-146802993D01*
X178346947Y-146707430D01*
X178347077Y-146649329D01*
X178347349Y-146534771D01*
X178348748Y-146452667D01*
X178352151Y-146396393D01*
X178358433Y-146359326D01*
X178368471Y-146334844D01*
X178383139Y-146316325D01*
X178392298Y-146307406D01*
X178455211Y-146271466D01*
X178523864Y-146268775D01*
X178586152Y-146299170D01*
X178597671Y-146310144D01*
X178614567Y-146330779D01*
X178626286Y-146355256D01*
X178633767Y-146390647D01*
X178637946Y-146444026D01*
X178639763Y-146522466D01*
X178640154Y-146630617D01*
X178640154Y-146905870D01*
X178701685Y-146927320D01*
X178745387Y-146941912D01*
X178769364Y-146948706D01*
X178770070Y-146948769D01*
X178771874Y-146930069D01*
X178773500Y-146877322D01*
X178774883Y-146795557D01*
X178775958Y-146689805D01*
X178776660Y-146565094D01*
X178776923Y-146426455D01*
X178776923Y-145891806D01*
X178649923Y-145838236D01*
X178640154Y-146002120D01*
G37*
X178640154Y-146002120D02*
X178634428Y-146081980D01*
X178627851Y-146129039D01*
X178618738Y-146149566D01*
X178605402Y-146149829D01*
X178601077Y-146147378D01*
X178543556Y-146129636D01*
X178468732Y-146130672D01*
X178392661Y-146148910D01*
X178345082Y-146172505D01*
X178296298Y-146210198D01*
X178260636Y-146252855D01*
X178236155Y-146307057D01*
X178220913Y-146379384D01*
X178212970Y-146476419D01*
X178210384Y-146604742D01*
X178210338Y-146629358D01*
X178210308Y-146905870D01*
X178271839Y-146927320D01*
X178315541Y-146941912D01*
X178339518Y-146948706D01*
X178340223Y-146948769D01*
X178342585Y-146930345D01*
X178344594Y-146879526D01*
X178346099Y-146802993D01*
X178346947Y-146707430D01*
X178347077Y-146649329D01*
X178347349Y-146534771D01*
X178348748Y-146452667D01*
X178352151Y-146396393D01*
X178358433Y-146359326D01*
X178368471Y-146334844D01*
X178383139Y-146316325D01*
X178392298Y-146307406D01*
X178455211Y-146271466D01*
X178523864Y-146268775D01*
X178586152Y-146299170D01*
X178597671Y-146310144D01*
X178614567Y-146330779D01*
X178626286Y-146355256D01*
X178633767Y-146390647D01*
X178637946Y-146444026D01*
X178639763Y-146522466D01*
X178640154Y-146630617D01*
X178640154Y-146905870D01*
X178701685Y-146927320D01*
X178745387Y-146941912D01*
X178769364Y-146948706D01*
X178770070Y-146948769D01*
X178771874Y-146930069D01*
X178773500Y-146877322D01*
X178774883Y-146795557D01*
X178775958Y-146689805D01*
X178776660Y-146565094D01*
X178776923Y-146426455D01*
X178776923Y-145891806D01*
X178649923Y-145838236D01*
X178640154Y-146002120D01*
G36*
X177746499Y-146136303D02*
G01*
X177669940Y-146164733D01*
X177669064Y-146165279D01*
X177621715Y-146200127D01*
X177586759Y-146240852D01*
X177562175Y-146293925D01*
X177545938Y-146365814D01*
X177536025Y-146462992D01*
X177530414Y-146591928D01*
X177529923Y-146610298D01*
X177522859Y-146887287D01*
X177582305Y-146918028D01*
X177625319Y-146938802D01*
X177651290Y-146948646D01*
X177652491Y-146948769D01*
X177656986Y-146930606D01*
X177660556Y-146881612D01*
X177662752Y-146810031D01*
X177663231Y-146752068D01*
X177663242Y-146658170D01*
X177667534Y-146599203D01*
X177682497Y-146571079D01*
X177714518Y-146569706D01*
X177769986Y-146590998D01*
X177853731Y-146630136D01*
X177915311Y-146662643D01*
X177946983Y-146690845D01*
X177956294Y-146721582D01*
X177956308Y-146723104D01*
X177940943Y-146776054D01*
X177895453Y-146804660D01*
X177825834Y-146808803D01*
X177775687Y-146808084D01*
X177749246Y-146822527D01*
X177732757Y-146857218D01*
X177723267Y-146901416D01*
X177736943Y-146926493D01*
X177742093Y-146930082D01*
X177790575Y-146944496D01*
X177858469Y-146946537D01*
X177928388Y-146936983D01*
X177977932Y-146919522D01*
X178046430Y-146861364D01*
X178085366Y-146780408D01*
X178093077Y-146717160D01*
X178087193Y-146660111D01*
X178065899Y-146613542D01*
X178023735Y-146572181D01*
X177955241Y-146530755D01*
X177854956Y-146483993D01*
X177848846Y-146481350D01*
X177758510Y-146439617D01*
X177702765Y-146405391D01*
X177678871Y-146374635D01*
X177684087Y-146343311D01*
X177715672Y-146307383D01*
X177725117Y-146299116D01*
X177788383Y-146267058D01*
X177853936Y-146268407D01*
X177911028Y-146299838D01*
X177948907Y-146358024D01*
X177952426Y-146369446D01*
X177986700Y-146424837D01*
X178030191Y-146451518D01*
X178093077Y-146477960D01*
X178093077Y-146409548D01*
X178073948Y-146310110D01*
X178017169Y-146218902D01*
X177987622Y-146188389D01*
X177920458Y-146149228D01*
X177835044Y-146131500D01*
X177746499Y-146136303D01*
G37*
X177746499Y-146136303D02*
X177669940Y-146164733D01*
X177669064Y-146165279D01*
X177621715Y-146200127D01*
X177586759Y-146240852D01*
X177562175Y-146293925D01*
X177545938Y-146365814D01*
X177536025Y-146462992D01*
X177530414Y-146591928D01*
X177529923Y-146610298D01*
X177522859Y-146887287D01*
X177582305Y-146918028D01*
X177625319Y-146938802D01*
X177651290Y-146948646D01*
X177652491Y-146948769D01*
X177656986Y-146930606D01*
X177660556Y-146881612D01*
X177662752Y-146810031D01*
X177663231Y-146752068D01*
X177663242Y-146658170D01*
X177667534Y-146599203D01*
X177682497Y-146571079D01*
X177714518Y-146569706D01*
X177769986Y-146590998D01*
X177853731Y-146630136D01*
X177915311Y-146662643D01*
X177946983Y-146690845D01*
X177956294Y-146721582D01*
X177956308Y-146723104D01*
X177940943Y-146776054D01*
X177895453Y-146804660D01*
X177825834Y-146808803D01*
X177775687Y-146808084D01*
X177749246Y-146822527D01*
X177732757Y-146857218D01*
X177723267Y-146901416D01*
X177736943Y-146926493D01*
X177742093Y-146930082D01*
X177790575Y-146944496D01*
X177858469Y-146946537D01*
X177928388Y-146936983D01*
X177977932Y-146919522D01*
X178046430Y-146861364D01*
X178085366Y-146780408D01*
X178093077Y-146717160D01*
X178087193Y-146660111D01*
X178065899Y-146613542D01*
X178023735Y-146572181D01*
X177955241Y-146530755D01*
X177854956Y-146483993D01*
X177848846Y-146481350D01*
X177758510Y-146439617D01*
X177702765Y-146405391D01*
X177678871Y-146374635D01*
X177684087Y-146343311D01*
X177715672Y-146307383D01*
X177725117Y-146299116D01*
X177788383Y-146267058D01*
X177853936Y-146268407D01*
X177911028Y-146299838D01*
X177948907Y-146358024D01*
X177952426Y-146369446D01*
X177986700Y-146424837D01*
X178030191Y-146451518D01*
X178093077Y-146477960D01*
X178093077Y-146409548D01*
X178073948Y-146310110D01*
X178017169Y-146218902D01*
X177987622Y-146188389D01*
X177920458Y-146149228D01*
X177835044Y-146131500D01*
X177746499Y-146136303D01*
G36*
X177086638Y-146134670D02*
G01*
X176997883Y-146167421D01*
X176925978Y-146225350D01*
X176897856Y-146266128D01*
X176867198Y-146340954D01*
X176867835Y-146395058D01*
X176900013Y-146431446D01*
X176911919Y-146437633D01*
X176963325Y-146456925D01*
X176989578Y-146451982D01*
X176998470Y-146419587D01*
X176998923Y-146401692D01*
X177015203Y-146335859D01*
X177057635Y-146289807D01*
X177116612Y-146267564D01*
X177182525Y-146273161D01*
X177236105Y-146302229D01*
X177254202Y-146318810D01*
X177267029Y-146338925D01*
X177275694Y-146369332D01*
X177281304Y-146416788D01*
X177284965Y-146488050D01*
X177287785Y-146589875D01*
X177288516Y-146622115D01*
X177291180Y-146732410D01*
X177294208Y-146810036D01*
X177298750Y-146861396D01*
X177305954Y-146892890D01*
X177316967Y-146910920D01*
X177332940Y-146921888D01*
X177343166Y-146926733D01*
X177386594Y-146943301D01*
X177412158Y-146948769D01*
X177420605Y-146930507D01*
X177425761Y-146875296D01*
X177427654Y-146782499D01*
X177426311Y-146651478D01*
X177425893Y-146631269D01*
X177422942Y-146511733D01*
X177419452Y-146424449D01*
X177414486Y-146362591D01*
X177407107Y-146319336D01*
X177396376Y-146287860D01*
X177381355Y-146261339D01*
X177373498Y-146249975D01*
X177328447Y-146199692D01*
X177278060Y-146160581D01*
X177271892Y-146157167D01*
X177181542Y-146130212D01*
X177086638Y-146134670D01*
G37*
X177086638Y-146134670D02*
X176997883Y-146167421D01*
X176925978Y-146225350D01*
X176897856Y-146266128D01*
X176867198Y-146340954D01*
X176867835Y-146395058D01*
X176900013Y-146431446D01*
X176911919Y-146437633D01*
X176963325Y-146456925D01*
X176989578Y-146451982D01*
X176998470Y-146419587D01*
X176998923Y-146401692D01*
X177015203Y-146335859D01*
X177057635Y-146289807D01*
X177116612Y-146267564D01*
X177182525Y-146273161D01*
X177236105Y-146302229D01*
X177254202Y-146318810D01*
X177267029Y-146338925D01*
X177275694Y-146369332D01*
X177281304Y-146416788D01*
X177284965Y-146488050D01*
X177287785Y-146589875D01*
X177288516Y-146622115D01*
X177291180Y-146732410D01*
X177294208Y-146810036D01*
X177298750Y-146861396D01*
X177305954Y-146892890D01*
X177316967Y-146910920D01*
X177332940Y-146921888D01*
X177343166Y-146926733D01*
X177386594Y-146943301D01*
X177412158Y-146948769D01*
X177420605Y-146930507D01*
X177425761Y-146875296D01*
X177427654Y-146782499D01*
X177426311Y-146651478D01*
X177425893Y-146631269D01*
X177422942Y-146511733D01*
X177419452Y-146424449D01*
X177414486Y-146362591D01*
X177407107Y-146319336D01*
X177396376Y-146287860D01*
X177381355Y-146261339D01*
X177373498Y-146249975D01*
X177328447Y-146199692D01*
X177278060Y-146160581D01*
X177271892Y-146157167D01*
X177181542Y-146130212D01*
X177086638Y-146134670D01*
G36*
X176197919Y-146290289D02*
G01*
X176198167Y-146436320D01*
X176199128Y-146548655D01*
X176201206Y-146632678D01*
X176204807Y-146693769D01*
X176210335Y-146737309D01*
X176218196Y-146768679D01*
X176228793Y-146793262D01*
X176236818Y-146807294D01*
X176303272Y-146883388D01*
X176387530Y-146931084D01*
X176480751Y-146948199D01*
X176574100Y-146932546D01*
X176629688Y-146904418D01*
X176688043Y-146855760D01*
X176727814Y-146796333D01*
X176751810Y-146718507D01*
X176762839Y-146614652D01*
X176764401Y-146538462D01*
X176764191Y-146532986D01*
X176627692Y-146532986D01*
X176626859Y-146620355D01*
X176623039Y-146678192D01*
X176614254Y-146716029D01*
X176598526Y-146743398D01*
X176579734Y-146764042D01*
X176516625Y-146803890D01*
X176448863Y-146807295D01*
X176384821Y-146774025D01*
X176379836Y-146769517D01*
X176358561Y-146746067D01*
X176345221Y-146718166D01*
X176337999Y-146676641D01*
X176335077Y-146612316D01*
X176334615Y-146541200D01*
X176335617Y-146451858D01*
X176339762Y-146392258D01*
X176348764Y-146353089D01*
X176364333Y-146325040D01*
X176377098Y-146310144D01*
X176436400Y-146272575D01*
X176504699Y-146268057D01*
X176569890Y-146296753D01*
X176582472Y-146307406D01*
X176603889Y-146331063D01*
X176617256Y-146359251D01*
X176624434Y-146401245D01*
X176627281Y-146466319D01*
X176627692Y-146532986D01*
X176764191Y-146532986D01*
X176759678Y-146415765D01*
X176743638Y-146323577D01*
X176713472Y-146254269D01*
X176666371Y-146200211D01*
X176629688Y-146172505D01*
X176563010Y-146142572D01*
X176485728Y-146128678D01*
X176413890Y-146132397D01*
X176373692Y-146147400D01*
X176357918Y-146151670D01*
X176347450Y-146135750D01*
X176340144Y-146093089D01*
X176334615Y-146028106D01*
X176328563Y-145955732D01*
X176320156Y-145912187D01*
X176304859Y-145887287D01*
X176278136Y-145870845D01*
X176261346Y-145863564D01*
X176197846Y-145836963D01*
X176197919Y-146290289D01*
G37*
X176197919Y-146290289D02*
X176198167Y-146436320D01*
X176199128Y-146548655D01*
X176201206Y-146632678D01*
X176204807Y-146693769D01*
X176210335Y-146737309D01*
X176218196Y-146768679D01*
X176228793Y-146793262D01*
X176236818Y-146807294D01*
X176303272Y-146883388D01*
X176387530Y-146931084D01*
X176480751Y-146948199D01*
X176574100Y-146932546D01*
X176629688Y-146904418D01*
X176688043Y-146855760D01*
X176727814Y-146796333D01*
X176751810Y-146718507D01*
X176762839Y-146614652D01*
X176764401Y-146538462D01*
X176764191Y-146532986D01*
X176627692Y-146532986D01*
X176626859Y-146620355D01*
X176623039Y-146678192D01*
X176614254Y-146716029D01*
X176598526Y-146743398D01*
X176579734Y-146764042D01*
X176516625Y-146803890D01*
X176448863Y-146807295D01*
X176384821Y-146774025D01*
X176379836Y-146769517D01*
X176358561Y-146746067D01*
X176345221Y-146718166D01*
X176337999Y-146676641D01*
X176335077Y-146612316D01*
X176334615Y-146541200D01*
X176335617Y-146451858D01*
X176339762Y-146392258D01*
X176348764Y-146353089D01*
X176364333Y-146325040D01*
X176377098Y-146310144D01*
X176436400Y-146272575D01*
X176504699Y-146268057D01*
X176569890Y-146296753D01*
X176582472Y-146307406D01*
X176603889Y-146331063D01*
X176617256Y-146359251D01*
X176624434Y-146401245D01*
X176627281Y-146466319D01*
X176627692Y-146532986D01*
X176764191Y-146532986D01*
X176759678Y-146415765D01*
X176743638Y-146323577D01*
X176713472Y-146254269D01*
X176666371Y-146200211D01*
X176629688Y-146172505D01*
X176563010Y-146142572D01*
X176485728Y-146128678D01*
X176413890Y-146132397D01*
X176373692Y-146147400D01*
X176357918Y-146151670D01*
X176347450Y-146135750D01*
X176340144Y-146093089D01*
X176334615Y-146028106D01*
X176328563Y-145955732D01*
X176320156Y-145912187D01*
X176304859Y-145887287D01*
X176278136Y-145870845D01*
X176261346Y-145863564D01*
X176197846Y-145836963D01*
X176197919Y-146290289D01*
G36*
X175404071Y-146146662D02*
G01*
X175401089Y-146198068D01*
X175398753Y-146276192D01*
X175397251Y-146374857D01*
X175396769Y-146478343D01*
X175396769Y-146828533D01*
X175458599Y-146890363D01*
X175501207Y-146928462D01*
X175538610Y-146943895D01*
X175589730Y-146942918D01*
X175610022Y-146940433D01*
X175673446Y-146933200D01*
X175725905Y-146929055D01*
X175738692Y-146928672D01*
X175781801Y-146931176D01*
X175843456Y-146937462D01*
X175867362Y-146940433D01*
X175926078Y-146945028D01*
X175965536Y-146935046D01*
X176004662Y-146904228D01*
X176018785Y-146890363D01*
X176080615Y-146828533D01*
X176080615Y-146173503D01*
X176030850Y-146150829D01*
X175987998Y-146134034D01*
X175962927Y-146128154D01*
X175956499Y-146146736D01*
X175950491Y-146198655D01*
X175945303Y-146278172D01*
X175941336Y-146379546D01*
X175939423Y-146465192D01*
X175934077Y-146802231D01*
X175887440Y-146808825D01*
X175845024Y-146804214D01*
X175824240Y-146789287D01*
X175818430Y-146761377D01*
X175813470Y-146701925D01*
X175809754Y-146618466D01*
X175807676Y-146518532D01*
X175807376Y-146467104D01*
X175807077Y-146171054D01*
X175745546Y-146149604D01*
X175701996Y-146135020D01*
X175678306Y-146128219D01*
X175677623Y-146128154D01*
X175675246Y-146146642D01*
X175672634Y-146197906D01*
X175670005Y-146275649D01*
X175667579Y-146373574D01*
X175665885Y-146465192D01*
X175660539Y-146802231D01*
X175543308Y-146802231D01*
X175537928Y-146494746D01*
X175532549Y-146187261D01*
X175475399Y-146157707D01*
X175433203Y-146137413D01*
X175408230Y-146128204D01*
X175407509Y-146128154D01*
X175404071Y-146146662D01*
G37*
X175404071Y-146146662D02*
X175401089Y-146198068D01*
X175398753Y-146276192D01*
X175397251Y-146374857D01*
X175396769Y-146478343D01*
X175396769Y-146828533D01*
X175458599Y-146890363D01*
X175501207Y-146928462D01*
X175538610Y-146943895D01*
X175589730Y-146942918D01*
X175610022Y-146940433D01*
X175673446Y-146933200D01*
X175725905Y-146929055D01*
X175738692Y-146928672D01*
X175781801Y-146931176D01*
X175843456Y-146937462D01*
X175867362Y-146940433D01*
X175926078Y-146945028D01*
X175965536Y-146935046D01*
X176004662Y-146904228D01*
X176018785Y-146890363D01*
X176080615Y-146828533D01*
X176080615Y-146173503D01*
X176030850Y-146150829D01*
X175987998Y-146134034D01*
X175962927Y-146128154D01*
X175956499Y-146146736D01*
X175950491Y-146198655D01*
X175945303Y-146278172D01*
X175941336Y-146379546D01*
X175939423Y-146465192D01*
X175934077Y-146802231D01*
X175887440Y-146808825D01*
X175845024Y-146804214D01*
X175824240Y-146789287D01*
X175818430Y-146761377D01*
X175813470Y-146701925D01*
X175809754Y-146618466D01*
X175807676Y-146518532D01*
X175807376Y-146467104D01*
X175807077Y-146171054D01*
X175745546Y-146149604D01*
X175701996Y-146135020D01*
X175678306Y-146128219D01*
X175677623Y-146128154D01*
X175675246Y-146146642D01*
X175672634Y-146197906D01*
X175670005Y-146275649D01*
X175667579Y-146373574D01*
X175665885Y-146465192D01*
X175660539Y-146802231D01*
X175543308Y-146802231D01*
X175537928Y-146494746D01*
X175532549Y-146187261D01*
X175475399Y-146157707D01*
X175433203Y-146137413D01*
X175408230Y-146128204D01*
X175407509Y-146128154D01*
X175404071Y-146146662D01*
G36*
X174912667Y-146143528D02*
G01*
X174856410Y-146169117D01*
X174812253Y-146200124D01*
X174779899Y-146234795D01*
X174757562Y-146279520D01*
X174743454Y-146340692D01*
X174735789Y-146424701D01*
X174732780Y-146537940D01*
X174732462Y-146612509D01*
X174732462Y-146903420D01*
X174782227Y-146926095D01*
X174821424Y-146942667D01*
X174840843Y-146948769D01*
X174844558Y-146930610D01*
X174847505Y-146881648D01*
X174849309Y-146810153D01*
X174849692Y-146753385D01*
X174851339Y-146671371D01*
X174855778Y-146606309D01*
X174862260Y-146566467D01*
X174867410Y-146558000D01*
X174902023Y-146566646D01*
X174956360Y-146588823D01*
X175019278Y-146618886D01*
X175079632Y-146651192D01*
X175126279Y-146680098D01*
X175148074Y-146699961D01*
X175148161Y-146700175D01*
X175146286Y-146736935D01*
X175129475Y-146772026D01*
X175099961Y-146800528D01*
X175056884Y-146810061D01*
X175020068Y-146808950D01*
X174967926Y-146808133D01*
X174940556Y-146820349D01*
X174924118Y-146852624D01*
X174922045Y-146858710D01*
X174914919Y-146904739D01*
X174933976Y-146932687D01*
X174983647Y-146946007D01*
X175037303Y-146948470D01*
X175133858Y-146930210D01*
X175183841Y-146904131D01*
X175245571Y-146842868D01*
X175278310Y-146767670D01*
X175281247Y-146688211D01*
X175253576Y-146614167D01*
X175211953Y-146567769D01*
X175170396Y-146541793D01*
X175105078Y-146508907D01*
X175028962Y-146475557D01*
X175016274Y-146470461D01*
X174932667Y-146433565D01*
X174884470Y-146401046D01*
X174868970Y-146368718D01*
X174883450Y-146332394D01*
X174908308Y-146304000D01*
X174967061Y-146269039D01*
X175031707Y-146266417D01*
X175090992Y-146293358D01*
X175133661Y-146347088D01*
X175139261Y-146360950D01*
X175171867Y-146411936D01*
X175219470Y-146449787D01*
X175279539Y-146480850D01*
X175279539Y-146392768D01*
X175276003Y-146338951D01*
X175260844Y-146296534D01*
X175227232Y-146251279D01*
X175194965Y-146216420D01*
X175144791Y-146167062D01*
X175105807Y-146140547D01*
X175063936Y-146129911D01*
X175016540Y-146128154D01*
X174912667Y-146143528D01*
G37*
X174912667Y-146143528D02*
X174856410Y-146169117D01*
X174812253Y-146200124D01*
X174779899Y-146234795D01*
X174757562Y-146279520D01*
X174743454Y-146340692D01*
X174735789Y-146424701D01*
X174732780Y-146537940D01*
X174732462Y-146612509D01*
X174732462Y-146903420D01*
X174782227Y-146926095D01*
X174821424Y-146942667D01*
X174840843Y-146948769D01*
X174844558Y-146930610D01*
X174847505Y-146881648D01*
X174849309Y-146810153D01*
X174849692Y-146753385D01*
X174851339Y-146671371D01*
X174855778Y-146606309D01*
X174862260Y-146566467D01*
X174867410Y-146558000D01*
X174902023Y-146566646D01*
X174956360Y-146588823D01*
X175019278Y-146618886D01*
X175079632Y-146651192D01*
X175126279Y-146680098D01*
X175148074Y-146699961D01*
X175148161Y-146700175D01*
X175146286Y-146736935D01*
X175129475Y-146772026D01*
X175099961Y-146800528D01*
X175056884Y-146810061D01*
X175020068Y-146808950D01*
X174967926Y-146808133D01*
X174940556Y-146820349D01*
X174924118Y-146852624D01*
X174922045Y-146858710D01*
X174914919Y-146904739D01*
X174933976Y-146932687D01*
X174983647Y-146946007D01*
X175037303Y-146948470D01*
X175133858Y-146930210D01*
X175183841Y-146904131D01*
X175245571Y-146842868D01*
X175278310Y-146767670D01*
X175281247Y-146688211D01*
X175253576Y-146614167D01*
X175211953Y-146567769D01*
X175170396Y-146541793D01*
X175105078Y-146508907D01*
X175028962Y-146475557D01*
X175016274Y-146470461D01*
X174932667Y-146433565D01*
X174884470Y-146401046D01*
X174868970Y-146368718D01*
X174883450Y-146332394D01*
X174908308Y-146304000D01*
X174967061Y-146269039D01*
X175031707Y-146266417D01*
X175090992Y-146293358D01*
X175133661Y-146347088D01*
X175139261Y-146360950D01*
X175171867Y-146411936D01*
X175219470Y-146449787D01*
X175279539Y-146480850D01*
X175279539Y-146392768D01*
X175276003Y-146338951D01*
X175260844Y-146296534D01*
X175227232Y-146251279D01*
X175194965Y-146216420D01*
X175144791Y-146167062D01*
X175105807Y-146140547D01*
X175063936Y-146129911D01*
X175016540Y-146128154D01*
X174912667Y-146143528D01*
G36*
X174229193Y-146146782D02*
G01*
X174205839Y-146156988D01*
X174150098Y-146201134D01*
X174102431Y-146264967D01*
X174072952Y-146333087D01*
X174068154Y-146366670D01*
X174084240Y-146413556D01*
X174119525Y-146438365D01*
X174157356Y-146453387D01*
X174174679Y-146456155D01*
X174183114Y-146436066D01*
X174199770Y-146392351D01*
X174207077Y-146372598D01*
X174248052Y-146304271D01*
X174307378Y-146270191D01*
X174383448Y-146271239D01*
X174389082Y-146272581D01*
X174429695Y-146291836D01*
X174459552Y-146329375D01*
X174479945Y-146389809D01*
X174492164Y-146477751D01*
X174497500Y-146597813D01*
X174498000Y-146661698D01*
X174498248Y-146762403D01*
X174499874Y-146831054D01*
X174504199Y-146874673D01*
X174512546Y-146900282D01*
X174526235Y-146914903D01*
X174546589Y-146925558D01*
X174547766Y-146926095D01*
X174586962Y-146942667D01*
X174606381Y-146948769D01*
X174609365Y-146930319D01*
X174611919Y-146879323D01*
X174613860Y-146802308D01*
X174615003Y-146705805D01*
X174615231Y-146635184D01*
X174614068Y-146498525D01*
X174609521Y-146394851D01*
X174600001Y-146318108D01*
X174583919Y-146262246D01*
X174559687Y-146221212D01*
X174525714Y-146188954D01*
X174492167Y-146166440D01*
X174411501Y-146136476D01*
X174317619Y-146129718D01*
X174229193Y-146146782D01*
G37*
X174229193Y-146146782D02*
X174205839Y-146156988D01*
X174150098Y-146201134D01*
X174102431Y-146264967D01*
X174072952Y-146333087D01*
X174068154Y-146366670D01*
X174084240Y-146413556D01*
X174119525Y-146438365D01*
X174157356Y-146453387D01*
X174174679Y-146456155D01*
X174183114Y-146436066D01*
X174199770Y-146392351D01*
X174207077Y-146372598D01*
X174248052Y-146304271D01*
X174307378Y-146270191D01*
X174383448Y-146271239D01*
X174389082Y-146272581D01*
X174429695Y-146291836D01*
X174459552Y-146329375D01*
X174479945Y-146389809D01*
X174492164Y-146477751D01*
X174497500Y-146597813D01*
X174498000Y-146661698D01*
X174498248Y-146762403D01*
X174499874Y-146831054D01*
X174504199Y-146874673D01*
X174512546Y-146900282D01*
X174526235Y-146914903D01*
X174546589Y-146925558D01*
X174547766Y-146926095D01*
X174586962Y-146942667D01*
X174606381Y-146948769D01*
X174609365Y-146930319D01*
X174611919Y-146879323D01*
X174613860Y-146802308D01*
X174615003Y-146705805D01*
X174615231Y-146635184D01*
X174614068Y-146498525D01*
X174609521Y-146394851D01*
X174600001Y-146318108D01*
X174583919Y-146262246D01*
X174559687Y-146221212D01*
X174525714Y-146188954D01*
X174492167Y-146166440D01*
X174411501Y-146136476D01*
X174317619Y-146129718D01*
X174229193Y-146146782D01*
G36*
X173554776Y-146157838D02*
G01*
X173477472Y-146208361D01*
X173440186Y-146253590D01*
X173410647Y-146335663D01*
X173408301Y-146400607D01*
X173413615Y-146487445D01*
X173613885Y-146575103D01*
X173711261Y-146619887D01*
X173774887Y-146655913D01*
X173807971Y-146687117D01*
X173813720Y-146717436D01*
X173795342Y-146750805D01*
X173775077Y-146772923D01*
X173716111Y-146808393D01*
X173651976Y-146810879D01*
X173593074Y-146783235D01*
X173549803Y-146728320D01*
X173542064Y-146708928D01*
X173504994Y-146648364D01*
X173462346Y-146622552D01*
X173403846Y-146600471D01*
X173403846Y-146684184D01*
X173409018Y-146741150D01*
X173429277Y-146789189D01*
X173471738Y-146844346D01*
X173478049Y-146851514D01*
X173525280Y-146900585D01*
X173565879Y-146926920D01*
X173616672Y-146939035D01*
X173658780Y-146943003D01*
X173734098Y-146943991D01*
X173787714Y-146931466D01*
X173821162Y-146912869D01*
X173873732Y-146871975D01*
X173910121Y-146827748D01*
X173933150Y-146772126D01*
X173945641Y-146697047D01*
X173950413Y-146594449D01*
X173950794Y-146542376D01*
X173949499Y-146479948D01*
X173831529Y-146479948D01*
X173830161Y-146513438D01*
X173826751Y-146518923D01*
X173804247Y-146511472D01*
X173755818Y-146491753D01*
X173691092Y-146463718D01*
X173677557Y-146457692D01*
X173595756Y-146416096D01*
X173550688Y-146379538D01*
X173540783Y-146345296D01*
X173564474Y-146310648D01*
X173584040Y-146295339D01*
X173654640Y-146264721D01*
X173720720Y-146269780D01*
X173776041Y-146307151D01*
X173814364Y-146373473D01*
X173826651Y-146426116D01*
X173831529Y-146479948D01*
X173949499Y-146479948D01*
X173948270Y-146420720D01*
X173938968Y-146330710D01*
X173920540Y-146265167D01*
X173890640Y-146216912D01*
X173846920Y-146178767D01*
X173827859Y-146166440D01*
X173741274Y-146134336D01*
X173646478Y-146132316D01*
X173554776Y-146157838D01*
G37*
X173554776Y-146157838D02*
X173477472Y-146208361D01*
X173440186Y-146253590D01*
X173410647Y-146335663D01*
X173408301Y-146400607D01*
X173413615Y-146487445D01*
X173613885Y-146575103D01*
X173711261Y-146619887D01*
X173774887Y-146655913D01*
X173807971Y-146687117D01*
X173813720Y-146717436D01*
X173795342Y-146750805D01*
X173775077Y-146772923D01*
X173716111Y-146808393D01*
X173651976Y-146810879D01*
X173593074Y-146783235D01*
X173549803Y-146728320D01*
X173542064Y-146708928D01*
X173504994Y-146648364D01*
X173462346Y-146622552D01*
X173403846Y-146600471D01*
X173403846Y-146684184D01*
X173409018Y-146741150D01*
X173429277Y-146789189D01*
X173471738Y-146844346D01*
X173478049Y-146851514D01*
X173525280Y-146900585D01*
X173565879Y-146926920D01*
X173616672Y-146939035D01*
X173658780Y-146943003D01*
X173734098Y-146943991D01*
X173787714Y-146931466D01*
X173821162Y-146912869D01*
X173873732Y-146871975D01*
X173910121Y-146827748D01*
X173933150Y-146772126D01*
X173945641Y-146697047D01*
X173950413Y-146594449D01*
X173950794Y-146542376D01*
X173949499Y-146479948D01*
X173831529Y-146479948D01*
X173830161Y-146513438D01*
X173826751Y-146518923D01*
X173804247Y-146511472D01*
X173755818Y-146491753D01*
X173691092Y-146463718D01*
X173677557Y-146457692D01*
X173595756Y-146416096D01*
X173550688Y-146379538D01*
X173540783Y-146345296D01*
X173564474Y-146310648D01*
X173584040Y-146295339D01*
X173654640Y-146264721D01*
X173720720Y-146269780D01*
X173776041Y-146307151D01*
X173814364Y-146373473D01*
X173826651Y-146426116D01*
X173831529Y-146479948D01*
X173949499Y-146479948D01*
X173948270Y-146420720D01*
X173938968Y-146330710D01*
X173920540Y-146265167D01*
X173890640Y-146216912D01*
X173846920Y-146178767D01*
X173827859Y-146166440D01*
X173741274Y-146134336D01*
X173646478Y-146132316D01*
X173554776Y-146157838D01*
G36*
X177660122Y-139797776D02*
G01*
X177554388Y-139798355D01*
X177477868Y-139799922D01*
X177425628Y-139802972D01*
X177392737Y-139807996D01*
X177374263Y-139815489D01*
X177365273Y-139825944D01*
X177360837Y-139839853D01*
X177360406Y-139841654D01*
X177353667Y-139874145D01*
X177341192Y-139938252D01*
X177324281Y-140027151D01*
X177304229Y-140134019D01*
X177282336Y-140252033D01*
X177281571Y-140256178D01*
X177259641Y-140371831D01*
X177239123Y-140474014D01*
X177221341Y-140556598D01*
X177207619Y-140613456D01*
X177199282Y-140638458D01*
X177198884Y-140638901D01*
X177174323Y-140651110D01*
X177123685Y-140671456D01*
X177057905Y-140695545D01*
X177057539Y-140695674D01*
X176974683Y-140726818D01*
X176877000Y-140766491D01*
X176784923Y-140806381D01*
X176780566Y-140808353D01*
X176630593Y-140876420D01*
X176298502Y-140649639D01*
X176196626Y-140580504D01*
X176104343Y-140518697D01*
X176026997Y-140467733D01*
X175969936Y-140431127D01*
X175938505Y-140412394D01*
X175935521Y-140411004D01*
X175912679Y-140417190D01*
X175870018Y-140447035D01*
X175805872Y-140501947D01*
X175718579Y-140583334D01*
X175629465Y-140669922D01*
X175543559Y-140755247D01*
X175466673Y-140833108D01*
X175403436Y-140898697D01*
X175358477Y-140947205D01*
X175336424Y-140973825D01*
X175335604Y-140975195D01*
X175333166Y-140993463D01*
X175342350Y-141023295D01*
X175365426Y-141068721D01*
X175404663Y-141133770D01*
X175462330Y-141222470D01*
X175539205Y-141336657D01*
X175607430Y-141437162D01*
X175668418Y-141527303D01*
X175718644Y-141601849D01*
X175754584Y-141655565D01*
X175772713Y-141683218D01*
X175773854Y-141685095D01*
X175771641Y-141711590D01*
X175754862Y-141763086D01*
X175726858Y-141829851D01*
X175716878Y-141851172D01*
X175673328Y-141946159D01*
X175626866Y-142053937D01*
X175589123Y-142147192D01*
X175561927Y-142216406D01*
X175540325Y-142269006D01*
X175527842Y-142296497D01*
X175526291Y-142298616D01*
X175503332Y-142302124D01*
X175449214Y-142311738D01*
X175371132Y-142326089D01*
X175276281Y-142343807D01*
X175171857Y-142363525D01*
X175065056Y-142383874D01*
X174963074Y-142403486D01*
X174873106Y-142420991D01*
X174802347Y-142435022D01*
X174757994Y-142444209D01*
X174747115Y-142446807D01*
X174735878Y-142453218D01*
X174727395Y-142467697D01*
X174721286Y-142495133D01*
X174717168Y-142540411D01*
X174714659Y-142608420D01*
X174713379Y-142704047D01*
X174712946Y-142832180D01*
X174712923Y-142884701D01*
X174712923Y-143311845D01*
X174815500Y-143332091D01*
X174872569Y-143343070D01*
X174957731Y-143359095D01*
X175060628Y-143378233D01*
X175170904Y-143398551D01*
X175201385Y-143404132D01*
X175303145Y-143423917D01*
X175391795Y-143443373D01*
X175459892Y-143460697D01*
X175499996Y-143474088D01*
X175506677Y-143478079D01*
X175523081Y-143506342D01*
X175546601Y-143561109D01*
X175572684Y-143631588D01*
X175577858Y-143646769D01*
X175612044Y-143740896D01*
X175654477Y-143847101D01*
X175696003Y-143942473D01*
X175696208Y-143942916D01*
X175765360Y-144092525D01*
X175310488Y-144761617D01*
X175602500Y-145054116D01*
X175690820Y-145141170D01*
X175771375Y-145217909D01*
X175839640Y-145280237D01*
X175891092Y-145324056D01*
X175921206Y-145345270D01*
X175925526Y-145346616D01*
X175950889Y-145336016D01*
X176002642Y-145306547D01*
X176075132Y-145261705D01*
X176162706Y-145204984D01*
X176257388Y-145141462D01*
X176353484Y-145076668D01*
X176439163Y-145020287D01*
X176508984Y-144975788D01*
X176557506Y-144946639D01*
X176579218Y-144936308D01*
X176605707Y-144945050D01*
X176655938Y-144968087D01*
X176719549Y-145000631D01*
X176726292Y-145004249D01*
X176811954Y-145047210D01*
X176870694Y-145068279D01*
X176907228Y-145068503D01*
X176926269Y-145048928D01*
X176926380Y-145048654D01*
X176935898Y-145025472D01*
X176958597Y-144970441D01*
X176992718Y-144887822D01*
X177036500Y-144781872D01*
X177088184Y-144656852D01*
X177146008Y-144517020D01*
X177202009Y-144381637D01*
X177263553Y-144232234D01*
X177320061Y-144093832D01*
X177369839Y-143970673D01*
X177411194Y-143867002D01*
X177442432Y-143787059D01*
X177461859Y-143735088D01*
X177467846Y-143715692D01*
X177452832Y-143693443D01*
X177413561Y-143657982D01*
X177361193Y-143618887D01*
X177212059Y-143495245D01*
X177095489Y-143353522D01*
X177012882Y-143196704D01*
X176965634Y-143027775D01*
X176955143Y-142849722D01*
X176962769Y-142767539D01*
X177004318Y-142597031D01*
X177075877Y-142446459D01*
X177173005Y-142317309D01*
X177291266Y-142211064D01*
X177426220Y-142129210D01*
X177573429Y-142073232D01*
X177728456Y-142044615D01*
X177886861Y-142044844D01*
X178044206Y-142075405D01*
X178196054Y-142137782D01*
X178337965Y-142233460D01*
X178397197Y-142287572D01*
X178510797Y-142426520D01*
X178589894Y-142578361D01*
X178635014Y-142738667D01*
X178646684Y-142903012D01*
X178625431Y-143066971D01*
X178571780Y-143226118D01*
X178486260Y-143376025D01*
X178369395Y-143512267D01*
X178238807Y-143618887D01*
X178184412Y-143659642D01*
X178145986Y-143694718D01*
X178132154Y-143715726D01*
X178139397Y-143738635D01*
X178159995Y-143793365D01*
X178192254Y-143875672D01*
X178234479Y-143981315D01*
X178284977Y-144106050D01*
X178342052Y-144245636D01*
X178398146Y-144381670D01*
X178460033Y-144531201D01*
X178517356Y-144669767D01*
X178568356Y-144793107D01*
X178611273Y-144896964D01*
X178644347Y-144977080D01*
X178665819Y-145029195D01*
X178673775Y-145048654D01*
X178692571Y-145068423D01*
X178728926Y-145068365D01*
X178787521Y-145047441D01*
X178873032Y-145004613D01*
X178873708Y-145004249D01*
X178938093Y-144971012D01*
X178990139Y-144946802D01*
X179019488Y-144936404D01*
X179020783Y-144936308D01*
X179042876Y-144946855D01*
X179091652Y-144976184D01*
X179161669Y-145020827D01*
X179247486Y-145077314D01*
X179342612Y-145141462D01*
X179439460Y-145206411D01*
X179526747Y-145262896D01*
X179598819Y-145307421D01*
X179650023Y-145336490D01*
X179674474Y-145346616D01*
X179696990Y-145333307D01*
X179742258Y-145296112D01*
X179805756Y-145239128D01*
X179882961Y-145166449D01*
X179969349Y-145082171D01*
X179997601Y-145054016D01*
X180289713Y-144761416D01*
X180067369Y-144435104D01*
X179999798Y-144334897D01*
X179940493Y-144244963D01*
X179892783Y-144170510D01*
X179859993Y-144116751D01*
X179845452Y-144088894D01*
X179845026Y-144086912D01*
X179852692Y-144060655D01*
X179873311Y-144007837D01*
X179903315Y-143937310D01*
X179924375Y-143890093D01*
X179963752Y-143799694D01*
X180000835Y-143708366D01*
X180029585Y-143631200D01*
X180037395Y-143607692D01*
X180059583Y-143544916D01*
X180081273Y-143496411D01*
X180093187Y-143478079D01*
X180119477Y-143466859D01*
X180176858Y-143450954D01*
X180257882Y-143432167D01*
X180355105Y-143412299D01*
X180398615Y-143404132D01*
X180509104Y-143383829D01*
X180615084Y-143364170D01*
X180706199Y-143347088D01*
X180772092Y-143334518D01*
X180784500Y-143332091D01*
X180887077Y-143311845D01*
X180887077Y-142884701D01*
X180886847Y-142744246D01*
X180885901Y-142637979D01*
X180883859Y-142561013D01*
X180880338Y-142508460D01*
X180874957Y-142475433D01*
X180867334Y-142457045D01*
X180857088Y-142448408D01*
X180852885Y-142446807D01*
X180827530Y-142441127D01*
X180771516Y-142429795D01*
X180692036Y-142414179D01*
X180596288Y-142395647D01*
X180491467Y-142375569D01*
X180384768Y-142355312D01*
X180283387Y-142336246D01*
X180194521Y-142319739D01*
X180125363Y-142307159D01*
X180083111Y-142299875D01*
X180073710Y-142298616D01*
X180065193Y-142281763D01*
X180046340Y-142236870D01*
X180020676Y-142172430D01*
X180010877Y-142147192D01*
X179971352Y-142049686D01*
X179924808Y-141941959D01*
X179883123Y-141851172D01*
X179852450Y-141781753D01*
X179832044Y-141724710D01*
X179825232Y-141689777D01*
X179826318Y-141685095D01*
X179840715Y-141662991D01*
X179873588Y-141613831D01*
X179921410Y-141542848D01*
X179980652Y-141455278D01*
X180047785Y-141356357D01*
X180061059Y-141336830D01*
X180138954Y-141221140D01*
X180196213Y-141133044D01*
X180235119Y-141068486D01*
X180257956Y-141023411D01*
X180267006Y-140993763D01*
X180264552Y-140975485D01*
X180264489Y-140975369D01*
X180245173Y-140951361D01*
X180202449Y-140904947D01*
X180140949Y-140840937D01*
X180065302Y-140764145D01*
X179980139Y-140679382D01*
X179970535Y-140669922D01*
X179863210Y-140565989D01*
X179780385Y-140489675D01*
X179720395Y-140439571D01*
X179681577Y-140414270D01*
X179664480Y-140411004D01*
X179639527Y-140425250D01*
X179587745Y-140458156D01*
X179514480Y-140506208D01*
X179425080Y-140565890D01*
X179324889Y-140633688D01*
X179301499Y-140649639D01*
X178969407Y-140876420D01*
X178819435Y-140808353D01*
X178728230Y-140768685D01*
X178630331Y-140728791D01*
X178546169Y-140696983D01*
X178542462Y-140695674D01*
X178476631Y-140671576D01*
X178425884Y-140651200D01*
X178401158Y-140638936D01*
X178401116Y-140638901D01*
X178393271Y-140616734D01*
X178379934Y-140562217D01*
X178362430Y-140481480D01*
X178342083Y-140380650D01*
X178320218Y-140265856D01*
X178318429Y-140256178D01*
X178296496Y-140137904D01*
X178276360Y-140030542D01*
X178259320Y-139940917D01*
X178246672Y-139875851D01*
X178239716Y-139842168D01*
X178239594Y-139841654D01*
X178235361Y-139827325D01*
X178227129Y-139816507D01*
X178209967Y-139808706D01*
X178178942Y-139803429D01*
X178129122Y-139800182D01*
X178055576Y-139798472D01*
X177953371Y-139797807D01*
X177817575Y-139797693D01*
X177800000Y-139797692D01*
X177660122Y-139797776D01*
G37*
X177660122Y-139797776D02*
X177554388Y-139798355D01*
X177477868Y-139799922D01*
X177425628Y-139802972D01*
X177392737Y-139807996D01*
X177374263Y-139815489D01*
X177365273Y-139825944D01*
X177360837Y-139839853D01*
X177360406Y-139841654D01*
X177353667Y-139874145D01*
X177341192Y-139938252D01*
X177324281Y-140027151D01*
X177304229Y-140134019D01*
X177282336Y-140252033D01*
X177281571Y-140256178D01*
X177259641Y-140371831D01*
X177239123Y-140474014D01*
X177221341Y-140556598D01*
X177207619Y-140613456D01*
X177199282Y-140638458D01*
X177198884Y-140638901D01*
X177174323Y-140651110D01*
X177123685Y-140671456D01*
X177057905Y-140695545D01*
X177057539Y-140695674D01*
X176974683Y-140726818D01*
X176877000Y-140766491D01*
X176784923Y-140806381D01*
X176780566Y-140808353D01*
X176630593Y-140876420D01*
X176298502Y-140649639D01*
X176196626Y-140580504D01*
X176104343Y-140518697D01*
X176026997Y-140467733D01*
X175969936Y-140431127D01*
X175938505Y-140412394D01*
X175935521Y-140411004D01*
X175912679Y-140417190D01*
X175870018Y-140447035D01*
X175805872Y-140501947D01*
X175718579Y-140583334D01*
X175629465Y-140669922D01*
X175543559Y-140755247D01*
X175466673Y-140833108D01*
X175403436Y-140898697D01*
X175358477Y-140947205D01*
X175336424Y-140973825D01*
X175335604Y-140975195D01*
X175333166Y-140993463D01*
X175342350Y-141023295D01*
X175365426Y-141068721D01*
X175404663Y-141133770D01*
X175462330Y-141222470D01*
X175539205Y-141336657D01*
X175607430Y-141437162D01*
X175668418Y-141527303D01*
X175718644Y-141601849D01*
X175754584Y-141655565D01*
X175772713Y-141683218D01*
X175773854Y-141685095D01*
X175771641Y-141711590D01*
X175754862Y-141763086D01*
X175726858Y-141829851D01*
X175716878Y-141851172D01*
X175673328Y-141946159D01*
X175626866Y-142053937D01*
X175589123Y-142147192D01*
X175561927Y-142216406D01*
X175540325Y-142269006D01*
X175527842Y-142296497D01*
X175526291Y-142298616D01*
X175503332Y-142302124D01*
X175449214Y-142311738D01*
X175371132Y-142326089D01*
X175276281Y-142343807D01*
X175171857Y-142363525D01*
X175065056Y-142383874D01*
X174963074Y-142403486D01*
X174873106Y-142420991D01*
X174802347Y-142435022D01*
X174757994Y-142444209D01*
X174747115Y-142446807D01*
X174735878Y-142453218D01*
X174727395Y-142467697D01*
X174721286Y-142495133D01*
X174717168Y-142540411D01*
X174714659Y-142608420D01*
X174713379Y-142704047D01*
X174712946Y-142832180D01*
X174712923Y-142884701D01*
X174712923Y-143311845D01*
X174815500Y-143332091D01*
X174872569Y-143343070D01*
X174957731Y-143359095D01*
X175060628Y-143378233D01*
X175170904Y-143398551D01*
X175201385Y-143404132D01*
X175303145Y-143423917D01*
X175391795Y-143443373D01*
X175459892Y-143460697D01*
X175499996Y-143474088D01*
X175506677Y-143478079D01*
X175523081Y-143506342D01*
X175546601Y-143561109D01*
X175572684Y-143631588D01*
X175577858Y-143646769D01*
X175612044Y-143740896D01*
X175654477Y-143847101D01*
X175696003Y-143942473D01*
X175696208Y-143942916D01*
X175765360Y-144092525D01*
X175310488Y-144761617D01*
X175602500Y-145054116D01*
X175690820Y-145141170D01*
X175771375Y-145217909D01*
X175839640Y-145280237D01*
X175891092Y-145324056D01*
X175921206Y-145345270D01*
X175925526Y-145346616D01*
X175950889Y-145336016D01*
X176002642Y-145306547D01*
X176075132Y-145261705D01*
X176162706Y-145204984D01*
X176257388Y-145141462D01*
X176353484Y-145076668D01*
X176439163Y-145020287D01*
X176508984Y-144975788D01*
X176557506Y-144946639D01*
X176579218Y-144936308D01*
X176605707Y-144945050D01*
X176655938Y-144968087D01*
X176719549Y-145000631D01*
X176726292Y-145004249D01*
X176811954Y-145047210D01*
X176870694Y-145068279D01*
X176907228Y-145068503D01*
X176926269Y-145048928D01*
X176926380Y-145048654D01*
X176935898Y-145025472D01*
X176958597Y-144970441D01*
X176992718Y-144887822D01*
X177036500Y-144781872D01*
X177088184Y-144656852D01*
X177146008Y-144517020D01*
X177202009Y-144381637D01*
X177263553Y-144232234D01*
X177320061Y-144093832D01*
X177369839Y-143970673D01*
X177411194Y-143867002D01*
X177442432Y-143787059D01*
X177461859Y-143735088D01*
X177467846Y-143715692D01*
X177452832Y-143693443D01*
X177413561Y-143657982D01*
X177361193Y-143618887D01*
X177212059Y-143495245D01*
X177095489Y-143353522D01*
X177012882Y-143196704D01*
X176965634Y-143027775D01*
X176955143Y-142849722D01*
X176962769Y-142767539D01*
X177004318Y-142597031D01*
X177075877Y-142446459D01*
X177173005Y-142317309D01*
X177291266Y-142211064D01*
X177426220Y-142129210D01*
X177573429Y-142073232D01*
X177728456Y-142044615D01*
X177886861Y-142044844D01*
X178044206Y-142075405D01*
X178196054Y-142137782D01*
X178337965Y-142233460D01*
X178397197Y-142287572D01*
X178510797Y-142426520D01*
X178589894Y-142578361D01*
X178635014Y-142738667D01*
X178646684Y-142903012D01*
X178625431Y-143066971D01*
X178571780Y-143226118D01*
X178486260Y-143376025D01*
X178369395Y-143512267D01*
X178238807Y-143618887D01*
X178184412Y-143659642D01*
X178145986Y-143694718D01*
X178132154Y-143715726D01*
X178139397Y-143738635D01*
X178159995Y-143793365D01*
X178192254Y-143875672D01*
X178234479Y-143981315D01*
X178284977Y-144106050D01*
X178342052Y-144245636D01*
X178398146Y-144381670D01*
X178460033Y-144531201D01*
X178517356Y-144669767D01*
X178568356Y-144793107D01*
X178611273Y-144896964D01*
X178644347Y-144977080D01*
X178665819Y-145029195D01*
X178673775Y-145048654D01*
X178692571Y-145068423D01*
X178728926Y-145068365D01*
X178787521Y-145047441D01*
X178873032Y-145004613D01*
X178873708Y-145004249D01*
X178938093Y-144971012D01*
X178990139Y-144946802D01*
X179019488Y-144936404D01*
X179020783Y-144936308D01*
X179042876Y-144946855D01*
X179091652Y-144976184D01*
X179161669Y-145020827D01*
X179247486Y-145077314D01*
X179342612Y-145141462D01*
X179439460Y-145206411D01*
X179526747Y-145262896D01*
X179598819Y-145307421D01*
X179650023Y-145336490D01*
X179674474Y-145346616D01*
X179696990Y-145333307D01*
X179742258Y-145296112D01*
X179805756Y-145239128D01*
X179882961Y-145166449D01*
X179969349Y-145082171D01*
X179997601Y-145054016D01*
X180289713Y-144761416D01*
X180067369Y-144435104D01*
X179999798Y-144334897D01*
X179940493Y-144244963D01*
X179892783Y-144170510D01*
X179859993Y-144116751D01*
X179845452Y-144088894D01*
X179845026Y-144086912D01*
X179852692Y-144060655D01*
X179873311Y-144007837D01*
X179903315Y-143937310D01*
X179924375Y-143890093D01*
X179963752Y-143799694D01*
X180000835Y-143708366D01*
X180029585Y-143631200D01*
X180037395Y-143607692D01*
X180059583Y-143544916D01*
X180081273Y-143496411D01*
X180093187Y-143478079D01*
X180119477Y-143466859D01*
X180176858Y-143450954D01*
X180257882Y-143432167D01*
X180355105Y-143412299D01*
X180398615Y-143404132D01*
X180509104Y-143383829D01*
X180615084Y-143364170D01*
X180706199Y-143347088D01*
X180772092Y-143334518D01*
X180784500Y-143332091D01*
X180887077Y-143311845D01*
X180887077Y-142884701D01*
X180886847Y-142744246D01*
X180885901Y-142637979D01*
X180883859Y-142561013D01*
X180880338Y-142508460D01*
X180874957Y-142475433D01*
X180867334Y-142457045D01*
X180857088Y-142448408D01*
X180852885Y-142446807D01*
X180827530Y-142441127D01*
X180771516Y-142429795D01*
X180692036Y-142414179D01*
X180596288Y-142395647D01*
X180491467Y-142375569D01*
X180384768Y-142355312D01*
X180283387Y-142336246D01*
X180194521Y-142319739D01*
X180125363Y-142307159D01*
X180083111Y-142299875D01*
X180073710Y-142298616D01*
X180065193Y-142281763D01*
X180046340Y-142236870D01*
X180020676Y-142172430D01*
X180010877Y-142147192D01*
X179971352Y-142049686D01*
X179924808Y-141941959D01*
X179883123Y-141851172D01*
X179852450Y-141781753D01*
X179832044Y-141724710D01*
X179825232Y-141689777D01*
X179826318Y-141685095D01*
X179840715Y-141662991D01*
X179873588Y-141613831D01*
X179921410Y-141542848D01*
X179980652Y-141455278D01*
X180047785Y-141356357D01*
X180061059Y-141336830D01*
X180138954Y-141221140D01*
X180196213Y-141133044D01*
X180235119Y-141068486D01*
X180257956Y-141023411D01*
X180267006Y-140993763D01*
X180264552Y-140975485D01*
X180264489Y-140975369D01*
X180245173Y-140951361D01*
X180202449Y-140904947D01*
X180140949Y-140840937D01*
X180065302Y-140764145D01*
X179980139Y-140679382D01*
X179970535Y-140669922D01*
X179863210Y-140565989D01*
X179780385Y-140489675D01*
X179720395Y-140439571D01*
X179681577Y-140414270D01*
X179664480Y-140411004D01*
X179639527Y-140425250D01*
X179587745Y-140458156D01*
X179514480Y-140506208D01*
X179425080Y-140565890D01*
X179324889Y-140633688D01*
X179301499Y-140649639D01*
X178969407Y-140876420D01*
X178819435Y-140808353D01*
X178728230Y-140768685D01*
X178630331Y-140728791D01*
X178546169Y-140696983D01*
X178542462Y-140695674D01*
X178476631Y-140671576D01*
X178425884Y-140651200D01*
X178401158Y-140638936D01*
X178401116Y-140638901D01*
X178393271Y-140616734D01*
X178379934Y-140562217D01*
X178362430Y-140481480D01*
X178342083Y-140380650D01*
X178320218Y-140265856D01*
X178318429Y-140256178D01*
X178296496Y-140137904D01*
X178276360Y-140030542D01*
X178259320Y-139940917D01*
X178246672Y-139875851D01*
X178239716Y-139842168D01*
X178239594Y-139841654D01*
X178235361Y-139827325D01*
X178227129Y-139816507D01*
X178209967Y-139808706D01*
X178178942Y-139803429D01*
X178129122Y-139800182D01*
X178055576Y-139798472D01*
X177953371Y-139797807D01*
X177817575Y-139797693D01*
X177800000Y-139797692D01*
X177660122Y-139797776D01*
D11*
X149770000Y-104670000D02*
X149770000Y-107330000D01*
X149770000Y-104670000D02*
X187930000Y-104670000D01*
X187930000Y-104670000D02*
X187930000Y-107330000D01*
X149770000Y-107330000D02*
X187930000Y-107330000D01*
X147170000Y-107330000D02*
X148500000Y-107330000D01*
X147170000Y-106000000D02*
X147170000Y-107330000D01*
M02*
