G04 #@! TF.GenerationSoftware,KiCad,Pcbnew,(5.1.6)-1*
G04 #@! TF.CreationDate,2020-09-12T17:38:01+02:00*
G04 #@! TF.ProjectId,vfo-do-with-trimmer_boutons regroup_s-10x5,76666f2d-646f-42d7-9769-74682d747269,rev?*
G04 #@! TF.SameCoordinates,Original*
G04 #@! TF.FileFunction,Soldermask,Bot*
G04 #@! TF.FilePolarity,Negative*
%FSLAX46Y46*%
G04 Gerber Fmt 4.6, Leading zero omitted, Abs format (unit mm)*
G04 Created by KiCad (PCBNEW (5.1.6)-1) date 2020-09-12 17:38:01*
%MOMM*%
%LPD*%
G01*
G04 APERTURE LIST*
%ADD10C,0.100000*%
%ADD11O,1.700000X1.700000*%
%ADD12R,1.700000X1.700000*%
%ADD13O,1.800000X1.800000*%
%ADD14R,1.800000X1.800000*%
%ADD15C,0.900000*%
%ADD16C,6.500000*%
G04 APERTURE END LIST*
D10*
G36*
X200000000Y-150000000D02*
G01*
X198000000Y-150000000D01*
X198000000Y-102000000D01*
X200000000Y-102000000D01*
X200000000Y-150000000D01*
G37*
X200000000Y-150000000D02*
X198000000Y-150000000D01*
X198000000Y-102000000D01*
X200000000Y-102000000D01*
X200000000Y-150000000D01*
G36*
X198000000Y-150000000D02*
G01*
X102000000Y-150000000D01*
X102000000Y-148000000D01*
X198000000Y-148000000D01*
X198000000Y-150000000D01*
G37*
X198000000Y-150000000D02*
X102000000Y-150000000D01*
X102000000Y-148000000D01*
X198000000Y-148000000D01*
X198000000Y-150000000D01*
G36*
X102000000Y-150000000D02*
G01*
X100000000Y-150000000D01*
X100000000Y-102000000D01*
X102000000Y-102000000D01*
X102000000Y-150000000D01*
G37*
X102000000Y-150000000D02*
X100000000Y-150000000D01*
X100000000Y-102000000D01*
X102000000Y-102000000D01*
X102000000Y-150000000D01*
G36*
X200000000Y-102000000D02*
G01*
X100000000Y-102000000D01*
X100000000Y-100000000D01*
X200000000Y-100000000D01*
X200000000Y-102000000D01*
G37*
X200000000Y-102000000D02*
X100000000Y-102000000D01*
X100000000Y-100000000D01*
X200000000Y-100000000D01*
X200000000Y-102000000D01*
D11*
X147320000Y-129540000D03*
X147320000Y-114300000D03*
X182880000Y-129540000D03*
X149860000Y-114300000D03*
X180340000Y-129540000D03*
X152400000Y-114300000D03*
X177800000Y-129540000D03*
X154940000Y-114300000D03*
X175260000Y-129540000D03*
X157480000Y-114300000D03*
X172720000Y-129540000D03*
X160020000Y-114300000D03*
X170180000Y-129540000D03*
X162560000Y-114300000D03*
X167640000Y-129540000D03*
X165100000Y-114300000D03*
X165100000Y-129540000D03*
X167640000Y-114300000D03*
X162560000Y-129540000D03*
X170180000Y-114300000D03*
X160020000Y-129540000D03*
X172720000Y-114300000D03*
X157480000Y-129540000D03*
X175260000Y-114300000D03*
X154940000Y-129540000D03*
X177800000Y-114300000D03*
X152400000Y-129540000D03*
X180340000Y-114300000D03*
X149860000Y-129540000D03*
D12*
X182880000Y-114300000D03*
D13*
X105500000Y-123620000D03*
X105500000Y-121080000D03*
X105500000Y-118540000D03*
D14*
X105500000Y-116000000D03*
D13*
X183960000Y-145000000D03*
D14*
X186500000Y-145000000D03*
D13*
X186600000Y-106000000D03*
X184060000Y-106000000D03*
X181520000Y-106000000D03*
X178980000Y-106000000D03*
X176440000Y-106000000D03*
X173900000Y-106000000D03*
X171360000Y-106000000D03*
X168820000Y-106000000D03*
X166280000Y-106000000D03*
X163740000Y-106000000D03*
X161200000Y-106000000D03*
X158660000Y-106000000D03*
X156120000Y-106000000D03*
X153580000Y-106000000D03*
X151040000Y-106000000D03*
D14*
X148500000Y-106000000D03*
D13*
X129540000Y-129540000D03*
X127000000Y-129540000D03*
X124460000Y-129540000D03*
X121920000Y-129540000D03*
X119380000Y-129540000D03*
X116840000Y-129540000D03*
D14*
X114300000Y-129540000D03*
D13*
X194660000Y-130810000D03*
D14*
X194660000Y-128270000D03*
D13*
X194660000Y-115570000D03*
D14*
X194660000Y-113030000D03*
D13*
X194660000Y-137160000D03*
D14*
X194660000Y-134620000D03*
D13*
X194660000Y-124460000D03*
X194660000Y-121920000D03*
D14*
X194660000Y-119380000D03*
D15*
X107172056Y-103777944D03*
X105475000Y-103075000D03*
X103777944Y-103777944D03*
X103075000Y-105475000D03*
X103777944Y-107172056D03*
X105475000Y-107875000D03*
X107172056Y-107172056D03*
X107875000Y-105475000D03*
D16*
X105475000Y-105475000D03*
X194525000Y-144525000D03*
D15*
X196925000Y-144525000D03*
X196222056Y-146222056D03*
X194525000Y-146925000D03*
X192827944Y-146222056D03*
X192125000Y-144525000D03*
X192827944Y-142827944D03*
X194525000Y-142125000D03*
X196222056Y-142827944D03*
X196222056Y-103777944D03*
X194525000Y-103075000D03*
X192827944Y-103777944D03*
X192125000Y-105475000D03*
X192827944Y-107172056D03*
X194525000Y-107875000D03*
X196222056Y-107172056D03*
X196925000Y-105475000D03*
D16*
X194525000Y-105475000D03*
X105475000Y-144525000D03*
D15*
X107875000Y-144525000D03*
X107172056Y-146222056D03*
X105475000Y-146925000D03*
X103777944Y-146222056D03*
X103075000Y-144525000D03*
X103777944Y-142827944D03*
X105475000Y-142125000D03*
X107172056Y-142827944D03*
M02*
