G04 #@! TF.GenerationSoftware,KiCad,Pcbnew,(5.1.6)-1*
G04 #@! TF.CreationDate,2020-09-12T17:38:01+02:00*
G04 #@! TF.ProjectId,vfo-do-with-trimmer_boutons regroup_s-10x5,76666f2d-646f-42d7-9769-74682d747269,rev?*
G04 #@! TF.SameCoordinates,Original*
G04 #@! TF.FileFunction,Copper,L2,Bot*
G04 #@! TF.FilePolarity,Positive*
%FSLAX46Y46*%
G04 Gerber Fmt 4.6, Leading zero omitted, Abs format (unit mm)*
G04 Created by KiCad (PCBNEW (5.1.6)-1) date 2020-09-12 17:38:01*
%MOMM*%
%LPD*%
G01*
G04 APERTURE LIST*
G04 #@! TA.AperFunction,ComponentPad*
%ADD10O,1.600000X1.600000*%
G04 #@! TD*
G04 #@! TA.AperFunction,ComponentPad*
%ADD11R,1.600000X1.600000*%
G04 #@! TD*
G04 #@! TA.AperFunction,ComponentPad*
%ADD12O,1.700000X1.700000*%
G04 #@! TD*
G04 #@! TA.AperFunction,ComponentPad*
%ADD13R,1.700000X1.700000*%
G04 #@! TD*
G04 #@! TA.AperFunction,ComponentPad*
%ADD14C,0.800000*%
G04 #@! TD*
G04 #@! TA.AperFunction,ComponentPad*
%ADD15C,6.400000*%
G04 #@! TD*
G04 #@! TA.AperFunction,ViaPad*
%ADD16C,0.800000*%
G04 #@! TD*
G04 #@! TA.AperFunction,Conductor*
%ADD17C,0.250000*%
G04 #@! TD*
G04 #@! TA.AperFunction,Conductor*
%ADD18C,0.254000*%
G04 #@! TD*
G04 APERTURE END LIST*
D10*
X147320000Y-129540000D03*
X147320000Y-114300000D03*
X182880000Y-129540000D03*
X149860000Y-114300000D03*
X180340000Y-129540000D03*
X152400000Y-114300000D03*
X177800000Y-129540000D03*
X154940000Y-114300000D03*
X175260000Y-129540000D03*
X157480000Y-114300000D03*
X172720000Y-129540000D03*
X160020000Y-114300000D03*
X170180000Y-129540000D03*
X162560000Y-114300000D03*
X167640000Y-129540000D03*
X165100000Y-114300000D03*
X165100000Y-129540000D03*
X167640000Y-114300000D03*
X162560000Y-129540000D03*
X170180000Y-114300000D03*
X160020000Y-129540000D03*
X172720000Y-114300000D03*
X157480000Y-129540000D03*
X175260000Y-114300000D03*
X154940000Y-129540000D03*
X177800000Y-114300000D03*
X152400000Y-129540000D03*
X180340000Y-114300000D03*
X149860000Y-129540000D03*
D11*
X182880000Y-114300000D03*
D12*
X105500000Y-123620000D03*
X105500000Y-121080000D03*
X105500000Y-118540000D03*
D13*
X105500000Y-116000000D03*
D12*
X183960000Y-145000000D03*
D13*
X186500000Y-145000000D03*
D12*
X186600000Y-106000000D03*
X184060000Y-106000000D03*
X181520000Y-106000000D03*
X178980000Y-106000000D03*
X176440000Y-106000000D03*
X173900000Y-106000000D03*
X171360000Y-106000000D03*
X168820000Y-106000000D03*
X166280000Y-106000000D03*
X163740000Y-106000000D03*
X161200000Y-106000000D03*
X158660000Y-106000000D03*
X156120000Y-106000000D03*
X153580000Y-106000000D03*
X151040000Y-106000000D03*
D13*
X148500000Y-106000000D03*
D12*
X129540000Y-129540000D03*
X127000000Y-129540000D03*
X124460000Y-129540000D03*
X121920000Y-129540000D03*
X119380000Y-129540000D03*
X116840000Y-129540000D03*
D13*
X114300000Y-129540000D03*
D12*
X194660000Y-130810000D03*
D13*
X194660000Y-128270000D03*
D12*
X194660000Y-115570000D03*
D13*
X194660000Y-113030000D03*
D12*
X194660000Y-137160000D03*
D13*
X194660000Y-134620000D03*
D12*
X194660000Y-124460000D03*
X194660000Y-121920000D03*
D13*
X194660000Y-119380000D03*
D14*
X107172056Y-103777944D03*
X105475000Y-103075000D03*
X103777944Y-103777944D03*
X103075000Y-105475000D03*
X103777944Y-107172056D03*
X105475000Y-107875000D03*
X107172056Y-107172056D03*
X107875000Y-105475000D03*
D15*
X105475000Y-105475000D03*
X194525000Y-144525000D03*
D14*
X196925000Y-144525000D03*
X196222056Y-146222056D03*
X194525000Y-146925000D03*
X192827944Y-146222056D03*
X192125000Y-144525000D03*
X192827944Y-142827944D03*
X194525000Y-142125000D03*
X196222056Y-142827944D03*
X196222056Y-103777944D03*
X194525000Y-103075000D03*
X192827944Y-103777944D03*
X192125000Y-105475000D03*
X192827944Y-107172056D03*
X194525000Y-107875000D03*
X196222056Y-107172056D03*
X196925000Y-105475000D03*
D15*
X194525000Y-105475000D03*
X105475000Y-144525000D03*
D14*
X107875000Y-144525000D03*
X107172056Y-146222056D03*
X105475000Y-146925000D03*
X103777944Y-146222056D03*
X103075000Y-144525000D03*
X103777944Y-142827944D03*
X105475000Y-142125000D03*
X107172056Y-142827944D03*
D16*
X162560000Y-123190000D03*
X127000000Y-127000000D03*
X125000000Y-105000000D03*
X140000000Y-105000000D03*
X125000000Y-145000000D03*
X115000000Y-145000000D03*
X113030000Y-135000000D03*
X135000000Y-145000000D03*
X105000000Y-135000000D03*
X112500000Y-105000000D03*
X112500000Y-115000000D03*
X125000000Y-124000000D03*
X142500000Y-145000000D03*
X190000000Y-140000000D03*
X135000000Y-133000000D03*
X125000000Y-116500000D03*
X145000000Y-133000000D03*
X155000000Y-133000000D03*
X180000000Y-133000000D03*
X135000000Y-124000000D03*
X145000000Y-124000000D03*
X155000000Y-124000000D03*
X168910000Y-123000000D03*
X125000000Y-133000000D03*
X180000000Y-140000000D03*
X135000000Y-116500000D03*
X142500000Y-112500000D03*
X169250000Y-133000000D03*
X190000000Y-133000000D03*
X145000000Y-116500000D03*
X155000000Y-116500000D03*
X177250000Y-117750000D03*
X184000000Y-117750000D03*
X190000000Y-115500000D03*
X187750000Y-110000000D03*
D17*
X154940000Y-114300000D02*
X154940000Y-113030000D01*
X154940000Y-113030000D02*
X155575000Y-112395000D01*
X155575000Y-112395000D02*
X180975000Y-112395000D01*
X181520000Y-111850000D02*
X181520000Y-106000000D01*
X180975000Y-112395000D02*
X181520000Y-111850000D01*
X152400000Y-114300000D02*
X152400000Y-111760000D01*
X152400000Y-111760000D02*
X153035000Y-111125000D01*
X153035000Y-111125000D02*
X178435000Y-111125000D01*
X178980000Y-110580000D02*
X178980000Y-106000000D01*
X178435000Y-111125000D02*
X178980000Y-110580000D01*
X149860000Y-114300000D02*
X149860000Y-110490000D01*
X149860000Y-110490000D02*
X150495000Y-109855000D01*
X150495000Y-109855000D02*
X175895000Y-109855000D01*
X176440000Y-109310000D02*
X176440000Y-106000000D01*
X175895000Y-109855000D02*
X176440000Y-109310000D01*
X173900000Y-108040000D02*
X173900000Y-106000000D01*
X147955000Y-108585000D02*
X173355000Y-108585000D01*
X173355000Y-108585000D02*
X173900000Y-108040000D01*
X147320000Y-114300000D02*
X147320000Y-109220000D01*
X147320000Y-109220000D02*
X147955000Y-108585000D01*
X184150000Y-125730000D02*
X163830000Y-125730000D01*
X163830000Y-125730000D02*
X162560000Y-124460000D01*
X162560000Y-124460000D02*
X162560000Y-123190000D01*
X189230000Y-130810000D02*
X184150000Y-125730000D01*
X194660000Y-130810000D02*
X189230000Y-130810000D01*
X127000000Y-127000000D02*
X163830000Y-127000000D01*
X163830000Y-127000000D02*
X165100000Y-128270000D01*
X165100000Y-128270000D02*
X165100000Y-129540000D01*
X162560000Y-129540000D02*
X162560000Y-132080000D01*
X165100000Y-134620000D02*
X189230000Y-134620000D01*
X162560000Y-132080000D02*
X165100000Y-134620000D01*
X191770000Y-137160000D02*
X189230000Y-134620000D01*
X194660000Y-137160000D02*
X191770000Y-137160000D01*
X105500000Y-118540000D02*
X171020000Y-118540000D01*
X172720000Y-116840000D02*
X172720000Y-114300000D01*
X171020000Y-118540000D02*
X172720000Y-116840000D01*
X105500000Y-121080000D02*
X178640000Y-121080000D01*
X180340000Y-119380000D02*
X180340000Y-114300000D01*
X178640000Y-121080000D02*
X180340000Y-119380000D01*
D18*
G36*
X199594001Y-149594000D02*
G01*
X100406000Y-149594000D01*
X100406000Y-147225881D01*
X102953724Y-147225881D01*
X103313912Y-147715548D01*
X103977882Y-148075849D01*
X104699385Y-148299694D01*
X105450695Y-148378480D01*
X106202938Y-148309178D01*
X106927208Y-148094452D01*
X107595670Y-147742555D01*
X107636088Y-147715548D01*
X107996276Y-147225881D01*
X192003724Y-147225881D01*
X192363912Y-147715548D01*
X193027882Y-148075849D01*
X193749385Y-148299694D01*
X194500695Y-148378480D01*
X195252938Y-148309178D01*
X195977208Y-148094452D01*
X196645670Y-147742555D01*
X196686088Y-147715548D01*
X197046276Y-147225881D01*
X194525000Y-144704605D01*
X192003724Y-147225881D01*
X107996276Y-147225881D01*
X105475000Y-144704605D01*
X102953724Y-147225881D01*
X100406000Y-147225881D01*
X100406000Y-144500695D01*
X101621520Y-144500695D01*
X101690822Y-145252938D01*
X101905548Y-145977208D01*
X102257445Y-146645670D01*
X102284452Y-146686088D01*
X102774119Y-147046276D01*
X105295395Y-144525000D01*
X105654605Y-144525000D01*
X108175881Y-147046276D01*
X108665548Y-146686088D01*
X109025849Y-146022118D01*
X109249694Y-145300615D01*
X109293932Y-144878757D01*
X182729000Y-144878757D01*
X182729000Y-145121243D01*
X182776307Y-145359069D01*
X182869102Y-145583097D01*
X183003820Y-145784717D01*
X183175283Y-145956180D01*
X183376903Y-146090898D01*
X183600931Y-146183693D01*
X183838757Y-146231000D01*
X184081243Y-146231000D01*
X184319069Y-146183693D01*
X184543097Y-146090898D01*
X184744717Y-145956180D01*
X184916180Y-145784717D01*
X185013073Y-145639706D01*
X185011928Y-145850000D01*
X185024188Y-145974482D01*
X185060498Y-146094180D01*
X185119463Y-146204494D01*
X185198815Y-146301185D01*
X185295506Y-146380537D01*
X185405820Y-146439502D01*
X185525518Y-146475812D01*
X185650000Y-146488072D01*
X186214250Y-146485000D01*
X186373000Y-146326250D01*
X186373000Y-145127000D01*
X186627000Y-145127000D01*
X186627000Y-146326250D01*
X186785750Y-146485000D01*
X187350000Y-146488072D01*
X187474482Y-146475812D01*
X187594180Y-146439502D01*
X187704494Y-146380537D01*
X187801185Y-146301185D01*
X187880537Y-146204494D01*
X187939502Y-146094180D01*
X187975812Y-145974482D01*
X187988072Y-145850000D01*
X187985000Y-145285750D01*
X187826250Y-145127000D01*
X186627000Y-145127000D01*
X186373000Y-145127000D01*
X186353000Y-145127000D01*
X186353000Y-144873000D01*
X186373000Y-144873000D01*
X186373000Y-143673750D01*
X186627000Y-143673750D01*
X186627000Y-144873000D01*
X187826250Y-144873000D01*
X187985000Y-144714250D01*
X187986162Y-144500695D01*
X190671520Y-144500695D01*
X190740822Y-145252938D01*
X190955548Y-145977208D01*
X191307445Y-146645670D01*
X191334452Y-146686088D01*
X191824119Y-147046276D01*
X194345395Y-144525000D01*
X194704605Y-144525000D01*
X197225881Y-147046276D01*
X197715548Y-146686088D01*
X198075849Y-146022118D01*
X198299694Y-145300615D01*
X198378480Y-144549305D01*
X198309178Y-143797062D01*
X198094452Y-143072792D01*
X197742555Y-142404330D01*
X197715548Y-142363912D01*
X197225881Y-142003724D01*
X194704605Y-144525000D01*
X194345395Y-144525000D01*
X191824119Y-142003724D01*
X191334452Y-142363912D01*
X190974151Y-143027882D01*
X190750306Y-143749385D01*
X190671520Y-144500695D01*
X187986162Y-144500695D01*
X187988072Y-144150000D01*
X187975812Y-144025518D01*
X187939502Y-143905820D01*
X187880537Y-143795506D01*
X187801185Y-143698815D01*
X187704494Y-143619463D01*
X187594180Y-143560498D01*
X187474482Y-143524188D01*
X187350000Y-143511928D01*
X186785750Y-143515000D01*
X186627000Y-143673750D01*
X186373000Y-143673750D01*
X186214250Y-143515000D01*
X185650000Y-143511928D01*
X185525518Y-143524188D01*
X185405820Y-143560498D01*
X185295506Y-143619463D01*
X185198815Y-143698815D01*
X185119463Y-143795506D01*
X185060498Y-143905820D01*
X185024188Y-144025518D01*
X185011928Y-144150000D01*
X185013073Y-144360294D01*
X184916180Y-144215283D01*
X184744717Y-144043820D01*
X184543097Y-143909102D01*
X184319069Y-143816307D01*
X184081243Y-143769000D01*
X183838757Y-143769000D01*
X183600931Y-143816307D01*
X183376903Y-143909102D01*
X183175283Y-144043820D01*
X183003820Y-144215283D01*
X182869102Y-144416903D01*
X182776307Y-144640931D01*
X182729000Y-144878757D01*
X109293932Y-144878757D01*
X109328480Y-144549305D01*
X109259178Y-143797062D01*
X109044452Y-143072792D01*
X108692555Y-142404330D01*
X108665548Y-142363912D01*
X108175881Y-142003724D01*
X105654605Y-144525000D01*
X105295395Y-144525000D01*
X102774119Y-142003724D01*
X102284452Y-142363912D01*
X101924151Y-143027882D01*
X101700306Y-143749385D01*
X101621520Y-144500695D01*
X100406000Y-144500695D01*
X100406000Y-141824119D01*
X102953724Y-141824119D01*
X105475000Y-144345395D01*
X107996276Y-141824119D01*
X192003724Y-141824119D01*
X194525000Y-144345395D01*
X197046276Y-141824119D01*
X196686088Y-141334452D01*
X196022118Y-140974151D01*
X195300615Y-140750306D01*
X194549305Y-140671520D01*
X193797062Y-140740822D01*
X193072792Y-140955548D01*
X192404330Y-141307445D01*
X192363912Y-141334452D01*
X192003724Y-141824119D01*
X107996276Y-141824119D01*
X107636088Y-141334452D01*
X106972118Y-140974151D01*
X106250615Y-140750306D01*
X105499305Y-140671520D01*
X104747062Y-140740822D01*
X104022792Y-140955548D01*
X103354330Y-141307445D01*
X103313912Y-141334452D01*
X102953724Y-141824119D01*
X100406000Y-141824119D01*
X100406000Y-128690000D01*
X113067157Y-128690000D01*
X113067157Y-130390000D01*
X113074513Y-130464689D01*
X113096299Y-130536508D01*
X113131678Y-130602696D01*
X113179289Y-130660711D01*
X113237304Y-130708322D01*
X113303492Y-130743701D01*
X113375311Y-130765487D01*
X113450000Y-130772843D01*
X115150000Y-130772843D01*
X115224689Y-130765487D01*
X115296508Y-130743701D01*
X115362696Y-130708322D01*
X115420711Y-130660711D01*
X115468322Y-130602696D01*
X115503701Y-130536508D01*
X115525487Y-130464689D01*
X115532843Y-130390000D01*
X115532843Y-130233367D01*
X115644822Y-130421355D01*
X115839731Y-130637588D01*
X116073080Y-130811641D01*
X116335901Y-130936825D01*
X116483110Y-130981476D01*
X116713000Y-130860155D01*
X116713000Y-129667000D01*
X116693000Y-129667000D01*
X116693000Y-129413000D01*
X116713000Y-129413000D01*
X116713000Y-128219845D01*
X116967000Y-128219845D01*
X116967000Y-129413000D01*
X116987000Y-129413000D01*
X116987000Y-129667000D01*
X116967000Y-129667000D01*
X116967000Y-130860155D01*
X117196890Y-130981476D01*
X117344099Y-130936825D01*
X117606920Y-130811641D01*
X117840269Y-130637588D01*
X118035178Y-130421355D01*
X118184157Y-130171252D01*
X118241772Y-130008832D01*
X118289102Y-130123097D01*
X118423820Y-130324717D01*
X118595283Y-130496180D01*
X118796903Y-130630898D01*
X119020931Y-130723693D01*
X119258757Y-130771000D01*
X119501243Y-130771000D01*
X119739069Y-130723693D01*
X119963097Y-130630898D01*
X120164717Y-130496180D01*
X120336180Y-130324717D01*
X120470898Y-130123097D01*
X120563693Y-129899069D01*
X120611000Y-129661243D01*
X120611000Y-129418757D01*
X120689000Y-129418757D01*
X120689000Y-129661243D01*
X120736307Y-129899069D01*
X120829102Y-130123097D01*
X120963820Y-130324717D01*
X121135283Y-130496180D01*
X121336903Y-130630898D01*
X121560931Y-130723693D01*
X121798757Y-130771000D01*
X122041243Y-130771000D01*
X122279069Y-130723693D01*
X122503097Y-130630898D01*
X122704717Y-130496180D01*
X122876180Y-130324717D01*
X123010898Y-130123097D01*
X123103693Y-129899069D01*
X123151000Y-129661243D01*
X123151000Y-129418757D01*
X123229000Y-129418757D01*
X123229000Y-129661243D01*
X123276307Y-129899069D01*
X123369102Y-130123097D01*
X123503820Y-130324717D01*
X123675283Y-130496180D01*
X123876903Y-130630898D01*
X124100931Y-130723693D01*
X124338757Y-130771000D01*
X124581243Y-130771000D01*
X124819069Y-130723693D01*
X125043097Y-130630898D01*
X125244717Y-130496180D01*
X125416180Y-130324717D01*
X125550898Y-130123097D01*
X125643693Y-129899069D01*
X125691000Y-129661243D01*
X125691000Y-129418757D01*
X125769000Y-129418757D01*
X125769000Y-129661243D01*
X125816307Y-129899069D01*
X125909102Y-130123097D01*
X126043820Y-130324717D01*
X126215283Y-130496180D01*
X126416903Y-130630898D01*
X126640931Y-130723693D01*
X126878757Y-130771000D01*
X127121243Y-130771000D01*
X127359069Y-130723693D01*
X127583097Y-130630898D01*
X127784717Y-130496180D01*
X127956180Y-130324717D01*
X128090898Y-130123097D01*
X128183693Y-129899069D01*
X128231000Y-129661243D01*
X128231000Y-129418757D01*
X128309000Y-129418757D01*
X128309000Y-129661243D01*
X128356307Y-129899069D01*
X128449102Y-130123097D01*
X128583820Y-130324717D01*
X128755283Y-130496180D01*
X128956903Y-130630898D01*
X129180931Y-130723693D01*
X129418757Y-130771000D01*
X129661243Y-130771000D01*
X129899069Y-130723693D01*
X130123097Y-130630898D01*
X130324717Y-130496180D01*
X130496180Y-130324717D01*
X130630898Y-130123097D01*
X130723693Y-129899069D01*
X130771000Y-129661243D01*
X130771000Y-129423682D01*
X146139000Y-129423682D01*
X146139000Y-129656318D01*
X146184386Y-129884485D01*
X146273412Y-130099413D01*
X146402658Y-130292843D01*
X146567157Y-130457342D01*
X146760587Y-130586588D01*
X146975515Y-130675614D01*
X147203682Y-130721000D01*
X147436318Y-130721000D01*
X147664485Y-130675614D01*
X147879413Y-130586588D01*
X148072843Y-130457342D01*
X148237342Y-130292843D01*
X148366588Y-130099413D01*
X148455614Y-129884485D01*
X148501000Y-129656318D01*
X148501000Y-129423682D01*
X148679000Y-129423682D01*
X148679000Y-129656318D01*
X148724386Y-129884485D01*
X148813412Y-130099413D01*
X148942658Y-130292843D01*
X149107157Y-130457342D01*
X149300587Y-130586588D01*
X149515515Y-130675614D01*
X149743682Y-130721000D01*
X149976318Y-130721000D01*
X150204485Y-130675614D01*
X150419413Y-130586588D01*
X150612843Y-130457342D01*
X150777342Y-130292843D01*
X150906588Y-130099413D01*
X150995614Y-129884485D01*
X151041000Y-129656318D01*
X151041000Y-129423682D01*
X151219000Y-129423682D01*
X151219000Y-129656318D01*
X151264386Y-129884485D01*
X151353412Y-130099413D01*
X151482658Y-130292843D01*
X151647157Y-130457342D01*
X151840587Y-130586588D01*
X152055515Y-130675614D01*
X152283682Y-130721000D01*
X152516318Y-130721000D01*
X152744485Y-130675614D01*
X152959413Y-130586588D01*
X153152843Y-130457342D01*
X153317342Y-130292843D01*
X153446588Y-130099413D01*
X153535614Y-129884485D01*
X153581000Y-129656318D01*
X153581000Y-129423682D01*
X153759000Y-129423682D01*
X153759000Y-129656318D01*
X153804386Y-129884485D01*
X153893412Y-130099413D01*
X154022658Y-130292843D01*
X154187157Y-130457342D01*
X154380587Y-130586588D01*
X154595515Y-130675614D01*
X154823682Y-130721000D01*
X155056318Y-130721000D01*
X155284485Y-130675614D01*
X155499413Y-130586588D01*
X155692843Y-130457342D01*
X155857342Y-130292843D01*
X155986588Y-130099413D01*
X156075614Y-129884485D01*
X156121000Y-129656318D01*
X156121000Y-129423682D01*
X156299000Y-129423682D01*
X156299000Y-129656318D01*
X156344386Y-129884485D01*
X156433412Y-130099413D01*
X156562658Y-130292843D01*
X156727157Y-130457342D01*
X156920587Y-130586588D01*
X157135515Y-130675614D01*
X157363682Y-130721000D01*
X157596318Y-130721000D01*
X157824485Y-130675614D01*
X158039413Y-130586588D01*
X158232843Y-130457342D01*
X158397342Y-130292843D01*
X158526588Y-130099413D01*
X158615614Y-129884485D01*
X158661000Y-129656318D01*
X158661000Y-129423682D01*
X158839000Y-129423682D01*
X158839000Y-129656318D01*
X158884386Y-129884485D01*
X158973412Y-130099413D01*
X159102658Y-130292843D01*
X159267157Y-130457342D01*
X159460587Y-130586588D01*
X159675515Y-130675614D01*
X159903682Y-130721000D01*
X160136318Y-130721000D01*
X160364485Y-130675614D01*
X160579413Y-130586588D01*
X160772843Y-130457342D01*
X160937342Y-130292843D01*
X161066588Y-130099413D01*
X161155614Y-129884485D01*
X161201000Y-129656318D01*
X161201000Y-129423682D01*
X161379000Y-129423682D01*
X161379000Y-129656318D01*
X161424386Y-129884485D01*
X161513412Y-130099413D01*
X161642658Y-130292843D01*
X161807157Y-130457342D01*
X162000587Y-130586588D01*
X162054000Y-130608713D01*
X162054001Y-132055144D01*
X162051553Y-132080000D01*
X162061322Y-132179192D01*
X162090255Y-132274574D01*
X162090256Y-132274575D01*
X162137242Y-132362479D01*
X162200474Y-132439527D01*
X162219781Y-132455372D01*
X164724628Y-134960220D01*
X164740473Y-134979527D01*
X164817521Y-135042759D01*
X164905425Y-135089745D01*
X164978607Y-135111944D01*
X165000806Y-135118678D01*
X165010694Y-135119652D01*
X165075146Y-135126000D01*
X165075153Y-135126000D01*
X165099999Y-135128447D01*
X165124845Y-135126000D01*
X189020409Y-135126000D01*
X191394628Y-137500220D01*
X191410473Y-137519527D01*
X191487521Y-137582759D01*
X191575425Y-137629745D01*
X191648607Y-137651944D01*
X191670806Y-137658678D01*
X191680694Y-137659652D01*
X191745146Y-137666000D01*
X191745153Y-137666000D01*
X191769999Y-137668447D01*
X191794845Y-137666000D01*
X193537168Y-137666000D01*
X193569102Y-137743097D01*
X193703820Y-137944717D01*
X193875283Y-138116180D01*
X194076903Y-138250898D01*
X194300931Y-138343693D01*
X194538757Y-138391000D01*
X194781243Y-138391000D01*
X195019069Y-138343693D01*
X195243097Y-138250898D01*
X195444717Y-138116180D01*
X195616180Y-137944717D01*
X195750898Y-137743097D01*
X195843693Y-137519069D01*
X195891000Y-137281243D01*
X195891000Y-137038757D01*
X195843693Y-136800931D01*
X195750898Y-136576903D01*
X195616180Y-136375283D01*
X195444717Y-136203820D01*
X195299706Y-136106927D01*
X195510000Y-136108072D01*
X195634482Y-136095812D01*
X195754180Y-136059502D01*
X195864494Y-136000537D01*
X195961185Y-135921185D01*
X196040537Y-135824494D01*
X196099502Y-135714180D01*
X196135812Y-135594482D01*
X196148072Y-135470000D01*
X196145000Y-134905750D01*
X195986250Y-134747000D01*
X194787000Y-134747000D01*
X194787000Y-134767000D01*
X194533000Y-134767000D01*
X194533000Y-134747000D01*
X193333750Y-134747000D01*
X193175000Y-134905750D01*
X193171928Y-135470000D01*
X193184188Y-135594482D01*
X193220498Y-135714180D01*
X193279463Y-135824494D01*
X193358815Y-135921185D01*
X193455506Y-136000537D01*
X193565820Y-136059502D01*
X193685518Y-136095812D01*
X193810000Y-136108072D01*
X194020294Y-136106927D01*
X193875283Y-136203820D01*
X193703820Y-136375283D01*
X193569102Y-136576903D01*
X193537168Y-136654000D01*
X191979592Y-136654000D01*
X189605376Y-134279785D01*
X189589527Y-134260473D01*
X189512479Y-134197241D01*
X189424575Y-134150255D01*
X189329193Y-134121322D01*
X189254854Y-134114000D01*
X189254846Y-134114000D01*
X189230000Y-134111553D01*
X189205154Y-134114000D01*
X165309592Y-134114000D01*
X164965592Y-133770000D01*
X193171928Y-133770000D01*
X193175000Y-134334250D01*
X193333750Y-134493000D01*
X194533000Y-134493000D01*
X194533000Y-133293750D01*
X194787000Y-133293750D01*
X194787000Y-134493000D01*
X195986250Y-134493000D01*
X196145000Y-134334250D01*
X196148072Y-133770000D01*
X196135812Y-133645518D01*
X196099502Y-133525820D01*
X196040537Y-133415506D01*
X195961185Y-133318815D01*
X195864494Y-133239463D01*
X195754180Y-133180498D01*
X195634482Y-133144188D01*
X195510000Y-133131928D01*
X194945750Y-133135000D01*
X194787000Y-133293750D01*
X194533000Y-133293750D01*
X194374250Y-133135000D01*
X193810000Y-133131928D01*
X193685518Y-133144188D01*
X193565820Y-133180498D01*
X193455506Y-133239463D01*
X193358815Y-133318815D01*
X193279463Y-133415506D01*
X193220498Y-133525820D01*
X193184188Y-133645518D01*
X193171928Y-133770000D01*
X164965592Y-133770000D01*
X163066000Y-131870409D01*
X163066000Y-130608712D01*
X163119413Y-130586588D01*
X163312843Y-130457342D01*
X163477342Y-130292843D01*
X163606588Y-130099413D01*
X163695614Y-129884485D01*
X163741000Y-129656318D01*
X163741000Y-129423682D01*
X163695614Y-129195515D01*
X163606588Y-128980587D01*
X163477342Y-128787157D01*
X163312843Y-128622658D01*
X163119413Y-128493412D01*
X162904485Y-128404386D01*
X162676318Y-128359000D01*
X162443682Y-128359000D01*
X162215515Y-128404386D01*
X162000587Y-128493412D01*
X161807157Y-128622658D01*
X161642658Y-128787157D01*
X161513412Y-128980587D01*
X161424386Y-129195515D01*
X161379000Y-129423682D01*
X161201000Y-129423682D01*
X161155614Y-129195515D01*
X161066588Y-128980587D01*
X160937342Y-128787157D01*
X160772843Y-128622658D01*
X160579413Y-128493412D01*
X160364485Y-128404386D01*
X160136318Y-128359000D01*
X159903682Y-128359000D01*
X159675515Y-128404386D01*
X159460587Y-128493412D01*
X159267157Y-128622658D01*
X159102658Y-128787157D01*
X158973412Y-128980587D01*
X158884386Y-129195515D01*
X158839000Y-129423682D01*
X158661000Y-129423682D01*
X158615614Y-129195515D01*
X158526588Y-128980587D01*
X158397342Y-128787157D01*
X158232843Y-128622658D01*
X158039413Y-128493412D01*
X157824485Y-128404386D01*
X157596318Y-128359000D01*
X157363682Y-128359000D01*
X157135515Y-128404386D01*
X156920587Y-128493412D01*
X156727157Y-128622658D01*
X156562658Y-128787157D01*
X156433412Y-128980587D01*
X156344386Y-129195515D01*
X156299000Y-129423682D01*
X156121000Y-129423682D01*
X156075614Y-129195515D01*
X155986588Y-128980587D01*
X155857342Y-128787157D01*
X155692843Y-128622658D01*
X155499413Y-128493412D01*
X155284485Y-128404386D01*
X155056318Y-128359000D01*
X154823682Y-128359000D01*
X154595515Y-128404386D01*
X154380587Y-128493412D01*
X154187157Y-128622658D01*
X154022658Y-128787157D01*
X153893412Y-128980587D01*
X153804386Y-129195515D01*
X153759000Y-129423682D01*
X153581000Y-129423682D01*
X153535614Y-129195515D01*
X153446588Y-128980587D01*
X153317342Y-128787157D01*
X153152843Y-128622658D01*
X152959413Y-128493412D01*
X152744485Y-128404386D01*
X152516318Y-128359000D01*
X152283682Y-128359000D01*
X152055515Y-128404386D01*
X151840587Y-128493412D01*
X151647157Y-128622658D01*
X151482658Y-128787157D01*
X151353412Y-128980587D01*
X151264386Y-129195515D01*
X151219000Y-129423682D01*
X151041000Y-129423682D01*
X150995614Y-129195515D01*
X150906588Y-128980587D01*
X150777342Y-128787157D01*
X150612843Y-128622658D01*
X150419413Y-128493412D01*
X150204485Y-128404386D01*
X149976318Y-128359000D01*
X149743682Y-128359000D01*
X149515515Y-128404386D01*
X149300587Y-128493412D01*
X149107157Y-128622658D01*
X148942658Y-128787157D01*
X148813412Y-128980587D01*
X148724386Y-129195515D01*
X148679000Y-129423682D01*
X148501000Y-129423682D01*
X148455614Y-129195515D01*
X148366588Y-128980587D01*
X148237342Y-128787157D01*
X148072843Y-128622658D01*
X147879413Y-128493412D01*
X147664485Y-128404386D01*
X147436318Y-128359000D01*
X147203682Y-128359000D01*
X146975515Y-128404386D01*
X146760587Y-128493412D01*
X146567157Y-128622658D01*
X146402658Y-128787157D01*
X146273412Y-128980587D01*
X146184386Y-129195515D01*
X146139000Y-129423682D01*
X130771000Y-129423682D01*
X130771000Y-129418757D01*
X130723693Y-129180931D01*
X130630898Y-128956903D01*
X130496180Y-128755283D01*
X130324717Y-128583820D01*
X130123097Y-128449102D01*
X129899069Y-128356307D01*
X129661243Y-128309000D01*
X129418757Y-128309000D01*
X129180931Y-128356307D01*
X128956903Y-128449102D01*
X128755283Y-128583820D01*
X128583820Y-128755283D01*
X128449102Y-128956903D01*
X128356307Y-129180931D01*
X128309000Y-129418757D01*
X128231000Y-129418757D01*
X128183693Y-129180931D01*
X128090898Y-128956903D01*
X127956180Y-128755283D01*
X127784717Y-128583820D01*
X127583097Y-128449102D01*
X127359069Y-128356307D01*
X127121243Y-128309000D01*
X126878757Y-128309000D01*
X126640931Y-128356307D01*
X126416903Y-128449102D01*
X126215283Y-128583820D01*
X126043820Y-128755283D01*
X125909102Y-128956903D01*
X125816307Y-129180931D01*
X125769000Y-129418757D01*
X125691000Y-129418757D01*
X125643693Y-129180931D01*
X125550898Y-128956903D01*
X125416180Y-128755283D01*
X125244717Y-128583820D01*
X125043097Y-128449102D01*
X124819069Y-128356307D01*
X124581243Y-128309000D01*
X124338757Y-128309000D01*
X124100931Y-128356307D01*
X123876903Y-128449102D01*
X123675283Y-128583820D01*
X123503820Y-128755283D01*
X123369102Y-128956903D01*
X123276307Y-129180931D01*
X123229000Y-129418757D01*
X123151000Y-129418757D01*
X123103693Y-129180931D01*
X123010898Y-128956903D01*
X122876180Y-128755283D01*
X122704717Y-128583820D01*
X122503097Y-128449102D01*
X122279069Y-128356307D01*
X122041243Y-128309000D01*
X121798757Y-128309000D01*
X121560931Y-128356307D01*
X121336903Y-128449102D01*
X121135283Y-128583820D01*
X120963820Y-128755283D01*
X120829102Y-128956903D01*
X120736307Y-129180931D01*
X120689000Y-129418757D01*
X120611000Y-129418757D01*
X120563693Y-129180931D01*
X120470898Y-128956903D01*
X120336180Y-128755283D01*
X120164717Y-128583820D01*
X119963097Y-128449102D01*
X119739069Y-128356307D01*
X119501243Y-128309000D01*
X119258757Y-128309000D01*
X119020931Y-128356307D01*
X118796903Y-128449102D01*
X118595283Y-128583820D01*
X118423820Y-128755283D01*
X118289102Y-128956903D01*
X118241772Y-129071168D01*
X118184157Y-128908748D01*
X118035178Y-128658645D01*
X117840269Y-128442412D01*
X117606920Y-128268359D01*
X117344099Y-128143175D01*
X117196890Y-128098524D01*
X116967000Y-128219845D01*
X116713000Y-128219845D01*
X116483110Y-128098524D01*
X116335901Y-128143175D01*
X116073080Y-128268359D01*
X115839731Y-128442412D01*
X115644822Y-128658645D01*
X115532843Y-128846633D01*
X115532843Y-128690000D01*
X115525487Y-128615311D01*
X115503701Y-128543492D01*
X115468322Y-128477304D01*
X115420711Y-128419289D01*
X115362696Y-128371678D01*
X115296508Y-128336299D01*
X115224689Y-128314513D01*
X115150000Y-128307157D01*
X113450000Y-128307157D01*
X113375311Y-128314513D01*
X113303492Y-128336299D01*
X113237304Y-128371678D01*
X113179289Y-128419289D01*
X113131678Y-128477304D01*
X113096299Y-128543492D01*
X113074513Y-128615311D01*
X113067157Y-128690000D01*
X100406000Y-128690000D01*
X100406000Y-126923078D01*
X126219000Y-126923078D01*
X126219000Y-127076922D01*
X126249013Y-127227809D01*
X126307887Y-127369942D01*
X126393358Y-127497859D01*
X126502141Y-127606642D01*
X126630058Y-127692113D01*
X126772191Y-127750987D01*
X126923078Y-127781000D01*
X127076922Y-127781000D01*
X127227809Y-127750987D01*
X127369942Y-127692113D01*
X127497859Y-127606642D01*
X127598501Y-127506000D01*
X163620409Y-127506000D01*
X164588128Y-128473720D01*
X164540587Y-128493412D01*
X164347157Y-128622658D01*
X164182658Y-128787157D01*
X164053412Y-128980587D01*
X163964386Y-129195515D01*
X163919000Y-129423682D01*
X163919000Y-129656318D01*
X163964386Y-129884485D01*
X164053412Y-130099413D01*
X164182658Y-130292843D01*
X164347157Y-130457342D01*
X164540587Y-130586588D01*
X164755515Y-130675614D01*
X164983682Y-130721000D01*
X165216318Y-130721000D01*
X165444485Y-130675614D01*
X165659413Y-130586588D01*
X165852843Y-130457342D01*
X166017342Y-130292843D01*
X166146588Y-130099413D01*
X166235614Y-129884485D01*
X166281000Y-129656318D01*
X166281000Y-129423682D01*
X166459000Y-129423682D01*
X166459000Y-129656318D01*
X166504386Y-129884485D01*
X166593412Y-130099413D01*
X166722658Y-130292843D01*
X166887157Y-130457342D01*
X167080587Y-130586588D01*
X167295515Y-130675614D01*
X167523682Y-130721000D01*
X167756318Y-130721000D01*
X167984485Y-130675614D01*
X168199413Y-130586588D01*
X168392843Y-130457342D01*
X168557342Y-130292843D01*
X168686588Y-130099413D01*
X168775614Y-129884485D01*
X168821000Y-129656318D01*
X168821000Y-129423682D01*
X168999000Y-129423682D01*
X168999000Y-129656318D01*
X169044386Y-129884485D01*
X169133412Y-130099413D01*
X169262658Y-130292843D01*
X169427157Y-130457342D01*
X169620587Y-130586588D01*
X169835515Y-130675614D01*
X170063682Y-130721000D01*
X170296318Y-130721000D01*
X170524485Y-130675614D01*
X170739413Y-130586588D01*
X170932843Y-130457342D01*
X171097342Y-130292843D01*
X171226588Y-130099413D01*
X171315614Y-129884485D01*
X171361000Y-129656318D01*
X171361000Y-129423682D01*
X171539000Y-129423682D01*
X171539000Y-129656318D01*
X171584386Y-129884485D01*
X171673412Y-130099413D01*
X171802658Y-130292843D01*
X171967157Y-130457342D01*
X172160587Y-130586588D01*
X172375515Y-130675614D01*
X172603682Y-130721000D01*
X172836318Y-130721000D01*
X173064485Y-130675614D01*
X173279413Y-130586588D01*
X173472843Y-130457342D01*
X173637342Y-130292843D01*
X173766588Y-130099413D01*
X173855614Y-129884485D01*
X173901000Y-129656318D01*
X173901000Y-129423682D01*
X174079000Y-129423682D01*
X174079000Y-129656318D01*
X174124386Y-129884485D01*
X174213412Y-130099413D01*
X174342658Y-130292843D01*
X174507157Y-130457342D01*
X174700587Y-130586588D01*
X174915515Y-130675614D01*
X175143682Y-130721000D01*
X175376318Y-130721000D01*
X175604485Y-130675614D01*
X175819413Y-130586588D01*
X176012843Y-130457342D01*
X176177342Y-130292843D01*
X176306588Y-130099413D01*
X176395614Y-129884485D01*
X176441000Y-129656318D01*
X176441000Y-129423682D01*
X176619000Y-129423682D01*
X176619000Y-129656318D01*
X176664386Y-129884485D01*
X176753412Y-130099413D01*
X176882658Y-130292843D01*
X177047157Y-130457342D01*
X177240587Y-130586588D01*
X177455515Y-130675614D01*
X177683682Y-130721000D01*
X177916318Y-130721000D01*
X178144485Y-130675614D01*
X178359413Y-130586588D01*
X178552843Y-130457342D01*
X178717342Y-130292843D01*
X178846588Y-130099413D01*
X178935614Y-129884485D01*
X178978875Y-129667002D01*
X179069375Y-129667002D01*
X178948091Y-129889040D01*
X179042930Y-130153881D01*
X179187615Y-130395131D01*
X179376586Y-130603519D01*
X179602580Y-130771037D01*
X179856913Y-130891246D01*
X179990961Y-130931904D01*
X180213000Y-130809915D01*
X180213000Y-129667000D01*
X180193000Y-129667000D01*
X180193000Y-129413000D01*
X180213000Y-129413000D01*
X180213000Y-128270085D01*
X180467000Y-128270085D01*
X180467000Y-129413000D01*
X180487000Y-129413000D01*
X180487000Y-129667000D01*
X180467000Y-129667000D01*
X180467000Y-130809915D01*
X180689039Y-130931904D01*
X180823087Y-130891246D01*
X181077420Y-130771037D01*
X181303414Y-130603519D01*
X181492385Y-130395131D01*
X181637070Y-130153881D01*
X181731909Y-129889040D01*
X181610625Y-129667002D01*
X181701125Y-129667002D01*
X181744386Y-129884485D01*
X181833412Y-130099413D01*
X181962658Y-130292843D01*
X182127157Y-130457342D01*
X182320587Y-130586588D01*
X182535515Y-130675614D01*
X182763682Y-130721000D01*
X182996318Y-130721000D01*
X183224485Y-130675614D01*
X183439413Y-130586588D01*
X183632843Y-130457342D01*
X183797342Y-130292843D01*
X183926588Y-130099413D01*
X184015614Y-129884485D01*
X184061000Y-129656318D01*
X184061000Y-129423682D01*
X184015614Y-129195515D01*
X183926588Y-128980587D01*
X183797342Y-128787157D01*
X183632843Y-128622658D01*
X183439413Y-128493412D01*
X183224485Y-128404386D01*
X182996318Y-128359000D01*
X182763682Y-128359000D01*
X182535515Y-128404386D01*
X182320587Y-128493412D01*
X182127157Y-128622658D01*
X181962658Y-128787157D01*
X181833412Y-128980587D01*
X181744386Y-129195515D01*
X181701125Y-129412998D01*
X181610625Y-129412998D01*
X181731909Y-129190960D01*
X181637070Y-128926119D01*
X181492385Y-128684869D01*
X181303414Y-128476481D01*
X181077420Y-128308963D01*
X180823087Y-128188754D01*
X180689039Y-128148096D01*
X180467000Y-128270085D01*
X180213000Y-128270085D01*
X179990961Y-128148096D01*
X179856913Y-128188754D01*
X179602580Y-128308963D01*
X179376586Y-128476481D01*
X179187615Y-128684869D01*
X179042930Y-128926119D01*
X178948091Y-129190960D01*
X179069375Y-129412998D01*
X178978875Y-129412998D01*
X178935614Y-129195515D01*
X178846588Y-128980587D01*
X178717342Y-128787157D01*
X178552843Y-128622658D01*
X178359413Y-128493412D01*
X178144485Y-128404386D01*
X177916318Y-128359000D01*
X177683682Y-128359000D01*
X177455515Y-128404386D01*
X177240587Y-128493412D01*
X177047157Y-128622658D01*
X176882658Y-128787157D01*
X176753412Y-128980587D01*
X176664386Y-129195515D01*
X176619000Y-129423682D01*
X176441000Y-129423682D01*
X176395614Y-129195515D01*
X176306588Y-128980587D01*
X176177342Y-128787157D01*
X176012843Y-128622658D01*
X175819413Y-128493412D01*
X175604485Y-128404386D01*
X175376318Y-128359000D01*
X175143682Y-128359000D01*
X174915515Y-128404386D01*
X174700587Y-128493412D01*
X174507157Y-128622658D01*
X174342658Y-128787157D01*
X174213412Y-128980587D01*
X174124386Y-129195515D01*
X174079000Y-129423682D01*
X173901000Y-129423682D01*
X173855614Y-129195515D01*
X173766588Y-128980587D01*
X173637342Y-128787157D01*
X173472843Y-128622658D01*
X173279413Y-128493412D01*
X173064485Y-128404386D01*
X172836318Y-128359000D01*
X172603682Y-128359000D01*
X172375515Y-128404386D01*
X172160587Y-128493412D01*
X171967157Y-128622658D01*
X171802658Y-128787157D01*
X171673412Y-128980587D01*
X171584386Y-129195515D01*
X171539000Y-129423682D01*
X171361000Y-129423682D01*
X171315614Y-129195515D01*
X171226588Y-128980587D01*
X171097342Y-128787157D01*
X170932843Y-128622658D01*
X170739413Y-128493412D01*
X170524485Y-128404386D01*
X170296318Y-128359000D01*
X170063682Y-128359000D01*
X169835515Y-128404386D01*
X169620587Y-128493412D01*
X169427157Y-128622658D01*
X169262658Y-128787157D01*
X169133412Y-128980587D01*
X169044386Y-129195515D01*
X168999000Y-129423682D01*
X168821000Y-129423682D01*
X168775614Y-129195515D01*
X168686588Y-128980587D01*
X168557342Y-128787157D01*
X168392843Y-128622658D01*
X168199413Y-128493412D01*
X167984485Y-128404386D01*
X167756318Y-128359000D01*
X167523682Y-128359000D01*
X167295515Y-128404386D01*
X167080587Y-128493412D01*
X166887157Y-128622658D01*
X166722658Y-128787157D01*
X166593412Y-128980587D01*
X166504386Y-129195515D01*
X166459000Y-129423682D01*
X166281000Y-129423682D01*
X166235614Y-129195515D01*
X166146588Y-128980587D01*
X166017342Y-128787157D01*
X165852843Y-128622658D01*
X165659413Y-128493412D01*
X165606000Y-128471288D01*
X165606000Y-128294845D01*
X165608447Y-128269999D01*
X165606000Y-128245153D01*
X165606000Y-128245146D01*
X165598678Y-128170807D01*
X165569745Y-128075425D01*
X165522759Y-127987521D01*
X165459527Y-127910473D01*
X165440220Y-127894628D01*
X164205376Y-126659785D01*
X164189527Y-126640473D01*
X164112479Y-126577241D01*
X164024575Y-126530255D01*
X163929193Y-126501322D01*
X163854854Y-126494000D01*
X163854846Y-126494000D01*
X163830000Y-126491553D01*
X163805154Y-126494000D01*
X127598501Y-126494000D01*
X127497859Y-126393358D01*
X127369942Y-126307887D01*
X127227809Y-126249013D01*
X127076922Y-126219000D01*
X126923078Y-126219000D01*
X126772191Y-126249013D01*
X126630058Y-126307887D01*
X126502141Y-126393358D01*
X126393358Y-126502141D01*
X126307887Y-126630058D01*
X126249013Y-126772191D01*
X126219000Y-126923078D01*
X100406000Y-126923078D01*
X100406000Y-123498757D01*
X104269000Y-123498757D01*
X104269000Y-123741243D01*
X104316307Y-123979069D01*
X104409102Y-124203097D01*
X104543820Y-124404717D01*
X104715283Y-124576180D01*
X104916903Y-124710898D01*
X105140931Y-124803693D01*
X105378757Y-124851000D01*
X105621243Y-124851000D01*
X105859069Y-124803693D01*
X106083097Y-124710898D01*
X106284717Y-124576180D01*
X106456180Y-124404717D01*
X106590898Y-124203097D01*
X106683693Y-123979069D01*
X106731000Y-123741243D01*
X106731000Y-123498757D01*
X106683693Y-123260931D01*
X106622451Y-123113078D01*
X161779000Y-123113078D01*
X161779000Y-123266922D01*
X161809013Y-123417809D01*
X161867887Y-123559942D01*
X161953358Y-123687859D01*
X162054001Y-123788502D01*
X162054000Y-124435153D01*
X162051553Y-124460000D01*
X162054000Y-124484846D01*
X162054000Y-124484853D01*
X162061322Y-124559192D01*
X162090255Y-124654574D01*
X162137241Y-124742479D01*
X162200473Y-124819527D01*
X162219785Y-124835376D01*
X163454628Y-126070220D01*
X163470473Y-126089527D01*
X163547521Y-126152759D01*
X163635425Y-126199745D01*
X163730806Y-126228678D01*
X163740694Y-126229652D01*
X163805146Y-126236000D01*
X163805153Y-126236000D01*
X163829999Y-126238447D01*
X163854845Y-126236000D01*
X183940409Y-126236000D01*
X188854628Y-131150220D01*
X188870473Y-131169527D01*
X188947521Y-131232759D01*
X189035425Y-131279745D01*
X189130807Y-131308678D01*
X189230000Y-131318448D01*
X189254854Y-131316000D01*
X193537168Y-131316000D01*
X193569102Y-131393097D01*
X193703820Y-131594717D01*
X193875283Y-131766180D01*
X194076903Y-131900898D01*
X194300931Y-131993693D01*
X194538757Y-132041000D01*
X194781243Y-132041000D01*
X195019069Y-131993693D01*
X195243097Y-131900898D01*
X195444717Y-131766180D01*
X195616180Y-131594717D01*
X195750898Y-131393097D01*
X195843693Y-131169069D01*
X195891000Y-130931243D01*
X195891000Y-130688757D01*
X195843693Y-130450931D01*
X195750898Y-130226903D01*
X195616180Y-130025283D01*
X195444717Y-129853820D01*
X195299706Y-129756927D01*
X195510000Y-129758072D01*
X195634482Y-129745812D01*
X195754180Y-129709502D01*
X195864494Y-129650537D01*
X195961185Y-129571185D01*
X196040537Y-129474494D01*
X196099502Y-129364180D01*
X196135812Y-129244482D01*
X196148072Y-129120000D01*
X196145000Y-128555750D01*
X195986250Y-128397000D01*
X194787000Y-128397000D01*
X194787000Y-128417000D01*
X194533000Y-128417000D01*
X194533000Y-128397000D01*
X193333750Y-128397000D01*
X193175000Y-128555750D01*
X193171928Y-129120000D01*
X193184188Y-129244482D01*
X193220498Y-129364180D01*
X193279463Y-129474494D01*
X193358815Y-129571185D01*
X193455506Y-129650537D01*
X193565820Y-129709502D01*
X193685518Y-129745812D01*
X193810000Y-129758072D01*
X194020294Y-129756927D01*
X193875283Y-129853820D01*
X193703820Y-130025283D01*
X193569102Y-130226903D01*
X193537168Y-130304000D01*
X189439592Y-130304000D01*
X186555592Y-127420000D01*
X193171928Y-127420000D01*
X193175000Y-127984250D01*
X193333750Y-128143000D01*
X194533000Y-128143000D01*
X194533000Y-126943750D01*
X194787000Y-126943750D01*
X194787000Y-128143000D01*
X195986250Y-128143000D01*
X196145000Y-127984250D01*
X196148072Y-127420000D01*
X196135812Y-127295518D01*
X196099502Y-127175820D01*
X196040537Y-127065506D01*
X195961185Y-126968815D01*
X195864494Y-126889463D01*
X195754180Y-126830498D01*
X195634482Y-126794188D01*
X195510000Y-126781928D01*
X194945750Y-126785000D01*
X194787000Y-126943750D01*
X194533000Y-126943750D01*
X194374250Y-126785000D01*
X193810000Y-126781928D01*
X193685518Y-126794188D01*
X193565820Y-126830498D01*
X193455506Y-126889463D01*
X193358815Y-126968815D01*
X193279463Y-127065506D01*
X193220498Y-127175820D01*
X193184188Y-127295518D01*
X193171928Y-127420000D01*
X186555592Y-127420000D01*
X184525376Y-125389785D01*
X184509527Y-125370473D01*
X184432479Y-125307241D01*
X184344575Y-125260255D01*
X184249193Y-125231322D01*
X184174854Y-125224000D01*
X184174846Y-125224000D01*
X184150000Y-125221553D01*
X184125154Y-125224000D01*
X164039592Y-125224000D01*
X163154349Y-124338757D01*
X193429000Y-124338757D01*
X193429000Y-124581243D01*
X193476307Y-124819069D01*
X193569102Y-125043097D01*
X193703820Y-125244717D01*
X193875283Y-125416180D01*
X194076903Y-125550898D01*
X194300931Y-125643693D01*
X194538757Y-125691000D01*
X194781243Y-125691000D01*
X195019069Y-125643693D01*
X195243097Y-125550898D01*
X195444717Y-125416180D01*
X195616180Y-125244717D01*
X195750898Y-125043097D01*
X195843693Y-124819069D01*
X195891000Y-124581243D01*
X195891000Y-124338757D01*
X195843693Y-124100931D01*
X195750898Y-123876903D01*
X195616180Y-123675283D01*
X195444717Y-123503820D01*
X195243097Y-123369102D01*
X195019069Y-123276307D01*
X194781243Y-123229000D01*
X194538757Y-123229000D01*
X194300931Y-123276307D01*
X194076903Y-123369102D01*
X193875283Y-123503820D01*
X193703820Y-123675283D01*
X193569102Y-123876903D01*
X193476307Y-124100931D01*
X193429000Y-124338757D01*
X163154349Y-124338757D01*
X163066000Y-124250409D01*
X163066000Y-123788501D01*
X163166642Y-123687859D01*
X163252113Y-123559942D01*
X163310987Y-123417809D01*
X163341000Y-123266922D01*
X163341000Y-123113078D01*
X163310987Y-122962191D01*
X163252113Y-122820058D01*
X163166642Y-122692141D01*
X163057859Y-122583358D01*
X162929942Y-122497887D01*
X162787809Y-122439013D01*
X162636922Y-122409000D01*
X162483078Y-122409000D01*
X162332191Y-122439013D01*
X162190058Y-122497887D01*
X162062141Y-122583358D01*
X161953358Y-122692141D01*
X161867887Y-122820058D01*
X161809013Y-122962191D01*
X161779000Y-123113078D01*
X106622451Y-123113078D01*
X106590898Y-123036903D01*
X106456180Y-122835283D01*
X106284717Y-122663820D01*
X106083097Y-122529102D01*
X105859069Y-122436307D01*
X105621243Y-122389000D01*
X105378757Y-122389000D01*
X105140931Y-122436307D01*
X104916903Y-122529102D01*
X104715283Y-122663820D01*
X104543820Y-122835283D01*
X104409102Y-123036903D01*
X104316307Y-123260931D01*
X104269000Y-123498757D01*
X100406000Y-123498757D01*
X100406000Y-120958757D01*
X104269000Y-120958757D01*
X104269000Y-121201243D01*
X104316307Y-121439069D01*
X104409102Y-121663097D01*
X104543820Y-121864717D01*
X104715283Y-122036180D01*
X104916903Y-122170898D01*
X105140931Y-122263693D01*
X105378757Y-122311000D01*
X105621243Y-122311000D01*
X105859069Y-122263693D01*
X106083097Y-122170898D01*
X106284717Y-122036180D01*
X106456180Y-121864717D01*
X106590898Y-121663097D01*
X106622832Y-121586000D01*
X178615154Y-121586000D01*
X178640000Y-121588447D01*
X178664846Y-121586000D01*
X178664854Y-121586000D01*
X178739193Y-121578678D01*
X178834575Y-121549745D01*
X178922479Y-121502759D01*
X178999527Y-121439527D01*
X179015376Y-121420215D01*
X180205591Y-120230000D01*
X193171928Y-120230000D01*
X193184188Y-120354482D01*
X193220498Y-120474180D01*
X193279463Y-120584494D01*
X193358815Y-120681185D01*
X193455506Y-120760537D01*
X193565820Y-120819502D01*
X193685518Y-120855812D01*
X193810000Y-120868072D01*
X194020294Y-120866927D01*
X193875283Y-120963820D01*
X193703820Y-121135283D01*
X193569102Y-121336903D01*
X193476307Y-121560931D01*
X193429000Y-121798757D01*
X193429000Y-122041243D01*
X193476307Y-122279069D01*
X193569102Y-122503097D01*
X193703820Y-122704717D01*
X193875283Y-122876180D01*
X194076903Y-123010898D01*
X194300931Y-123103693D01*
X194538757Y-123151000D01*
X194781243Y-123151000D01*
X195019069Y-123103693D01*
X195243097Y-123010898D01*
X195444717Y-122876180D01*
X195616180Y-122704717D01*
X195750898Y-122503097D01*
X195843693Y-122279069D01*
X195891000Y-122041243D01*
X195891000Y-121798757D01*
X195843693Y-121560931D01*
X195750898Y-121336903D01*
X195616180Y-121135283D01*
X195444717Y-120963820D01*
X195299706Y-120866927D01*
X195510000Y-120868072D01*
X195634482Y-120855812D01*
X195754180Y-120819502D01*
X195864494Y-120760537D01*
X195961185Y-120681185D01*
X196040537Y-120584494D01*
X196099502Y-120474180D01*
X196135812Y-120354482D01*
X196148072Y-120230000D01*
X196145000Y-119665750D01*
X195986250Y-119507000D01*
X194787000Y-119507000D01*
X194787000Y-119527000D01*
X194533000Y-119527000D01*
X194533000Y-119507000D01*
X193333750Y-119507000D01*
X193175000Y-119665750D01*
X193171928Y-120230000D01*
X180205591Y-120230000D01*
X180680220Y-119755372D01*
X180699527Y-119739527D01*
X180762759Y-119662479D01*
X180809745Y-119574575D01*
X180838678Y-119479193D01*
X180846000Y-119404854D01*
X180846000Y-119404847D01*
X180848447Y-119380001D01*
X180846000Y-119355155D01*
X180846000Y-118530000D01*
X193171928Y-118530000D01*
X193175000Y-119094250D01*
X193333750Y-119253000D01*
X194533000Y-119253000D01*
X194533000Y-118053750D01*
X194787000Y-118053750D01*
X194787000Y-119253000D01*
X195986250Y-119253000D01*
X196145000Y-119094250D01*
X196148072Y-118530000D01*
X196135812Y-118405518D01*
X196099502Y-118285820D01*
X196040537Y-118175506D01*
X195961185Y-118078815D01*
X195864494Y-117999463D01*
X195754180Y-117940498D01*
X195634482Y-117904188D01*
X195510000Y-117891928D01*
X194945750Y-117895000D01*
X194787000Y-118053750D01*
X194533000Y-118053750D01*
X194374250Y-117895000D01*
X193810000Y-117891928D01*
X193685518Y-117904188D01*
X193565820Y-117940498D01*
X193455506Y-117999463D01*
X193358815Y-118078815D01*
X193279463Y-118175506D01*
X193220498Y-118285820D01*
X193184188Y-118405518D01*
X193171928Y-118530000D01*
X180846000Y-118530000D01*
X180846000Y-115368712D01*
X180899413Y-115346588D01*
X181092843Y-115217342D01*
X181257342Y-115052843D01*
X181386588Y-114859413D01*
X181475614Y-114644485D01*
X181521000Y-114416318D01*
X181521000Y-114183682D01*
X181475614Y-113955515D01*
X181386588Y-113740587D01*
X181257342Y-113547157D01*
X181210185Y-113500000D01*
X181697157Y-113500000D01*
X181697157Y-115100000D01*
X181704513Y-115174689D01*
X181726299Y-115246508D01*
X181761678Y-115312696D01*
X181809289Y-115370711D01*
X181867304Y-115418322D01*
X181933492Y-115453701D01*
X182005311Y-115475487D01*
X182080000Y-115482843D01*
X183680000Y-115482843D01*
X183754689Y-115475487D01*
X183826508Y-115453701D01*
X183892696Y-115418322D01*
X183950711Y-115370711D01*
X183998322Y-115312696D01*
X184033701Y-115246508D01*
X184055487Y-115174689D01*
X184062843Y-115100000D01*
X184062843Y-113880000D01*
X193171928Y-113880000D01*
X193184188Y-114004482D01*
X193220498Y-114124180D01*
X193279463Y-114234494D01*
X193358815Y-114331185D01*
X193455506Y-114410537D01*
X193565820Y-114469502D01*
X193685518Y-114505812D01*
X193810000Y-114518072D01*
X194020294Y-114516927D01*
X193875283Y-114613820D01*
X193703820Y-114785283D01*
X193569102Y-114986903D01*
X193476307Y-115210931D01*
X193429000Y-115448757D01*
X193429000Y-115691243D01*
X193476307Y-115929069D01*
X193569102Y-116153097D01*
X193703820Y-116354717D01*
X193875283Y-116526180D01*
X194076903Y-116660898D01*
X194300931Y-116753693D01*
X194538757Y-116801000D01*
X194781243Y-116801000D01*
X195019069Y-116753693D01*
X195243097Y-116660898D01*
X195444717Y-116526180D01*
X195616180Y-116354717D01*
X195750898Y-116153097D01*
X195843693Y-115929069D01*
X195891000Y-115691243D01*
X195891000Y-115448757D01*
X195843693Y-115210931D01*
X195750898Y-114986903D01*
X195616180Y-114785283D01*
X195444717Y-114613820D01*
X195299706Y-114516927D01*
X195510000Y-114518072D01*
X195634482Y-114505812D01*
X195754180Y-114469502D01*
X195864494Y-114410537D01*
X195961185Y-114331185D01*
X196040537Y-114234494D01*
X196099502Y-114124180D01*
X196135812Y-114004482D01*
X196148072Y-113880000D01*
X196145000Y-113315750D01*
X195986250Y-113157000D01*
X194787000Y-113157000D01*
X194787000Y-113177000D01*
X194533000Y-113177000D01*
X194533000Y-113157000D01*
X193333750Y-113157000D01*
X193175000Y-113315750D01*
X193171928Y-113880000D01*
X184062843Y-113880000D01*
X184062843Y-113500000D01*
X184055487Y-113425311D01*
X184033701Y-113353492D01*
X183998322Y-113287304D01*
X183950711Y-113229289D01*
X183892696Y-113181678D01*
X183826508Y-113146299D01*
X183754689Y-113124513D01*
X183680000Y-113117157D01*
X182080000Y-113117157D01*
X182005311Y-113124513D01*
X181933492Y-113146299D01*
X181867304Y-113181678D01*
X181809289Y-113229289D01*
X181761678Y-113287304D01*
X181726299Y-113353492D01*
X181704513Y-113425311D01*
X181697157Y-113500000D01*
X181210185Y-113500000D01*
X181092843Y-113382658D01*
X180899413Y-113253412D01*
X180684485Y-113164386D01*
X180456318Y-113119000D01*
X180223682Y-113119000D01*
X179995515Y-113164386D01*
X179780587Y-113253412D01*
X179587157Y-113382658D01*
X179422658Y-113547157D01*
X179293412Y-113740587D01*
X179204386Y-113955515D01*
X179159000Y-114183682D01*
X179159000Y-114416318D01*
X179204386Y-114644485D01*
X179293412Y-114859413D01*
X179422658Y-115052843D01*
X179587157Y-115217342D01*
X179780587Y-115346588D01*
X179834001Y-115368713D01*
X179834000Y-119170408D01*
X178430409Y-120574000D01*
X106622832Y-120574000D01*
X106590898Y-120496903D01*
X106456180Y-120295283D01*
X106284717Y-120123820D01*
X106083097Y-119989102D01*
X105859069Y-119896307D01*
X105621243Y-119849000D01*
X105378757Y-119849000D01*
X105140931Y-119896307D01*
X104916903Y-119989102D01*
X104715283Y-120123820D01*
X104543820Y-120295283D01*
X104409102Y-120496903D01*
X104316307Y-120720931D01*
X104269000Y-120958757D01*
X100406000Y-120958757D01*
X100406000Y-116850000D01*
X104011928Y-116850000D01*
X104024188Y-116974482D01*
X104060498Y-117094180D01*
X104119463Y-117204494D01*
X104198815Y-117301185D01*
X104295506Y-117380537D01*
X104405820Y-117439502D01*
X104525518Y-117475812D01*
X104650000Y-117488072D01*
X104860294Y-117486927D01*
X104715283Y-117583820D01*
X104543820Y-117755283D01*
X104409102Y-117956903D01*
X104316307Y-118180931D01*
X104269000Y-118418757D01*
X104269000Y-118661243D01*
X104316307Y-118899069D01*
X104409102Y-119123097D01*
X104543820Y-119324717D01*
X104715283Y-119496180D01*
X104916903Y-119630898D01*
X105140931Y-119723693D01*
X105378757Y-119771000D01*
X105621243Y-119771000D01*
X105859069Y-119723693D01*
X106083097Y-119630898D01*
X106284717Y-119496180D01*
X106456180Y-119324717D01*
X106590898Y-119123097D01*
X106622832Y-119046000D01*
X170995154Y-119046000D01*
X171020000Y-119048447D01*
X171044846Y-119046000D01*
X171044854Y-119046000D01*
X171119193Y-119038678D01*
X171214575Y-119009745D01*
X171302479Y-118962759D01*
X171379527Y-118899527D01*
X171395376Y-118880215D01*
X173060220Y-117215372D01*
X173079527Y-117199527D01*
X173142759Y-117122479D01*
X173189745Y-117034575D01*
X173218678Y-116939193D01*
X173226000Y-116864854D01*
X173226000Y-116864847D01*
X173228447Y-116840001D01*
X173226000Y-116815155D01*
X173226000Y-115368712D01*
X173279413Y-115346588D01*
X173472843Y-115217342D01*
X173637342Y-115052843D01*
X173766588Y-114859413D01*
X173855614Y-114644485D01*
X173898875Y-114427002D01*
X173989375Y-114427002D01*
X173868091Y-114649040D01*
X173962930Y-114913881D01*
X174107615Y-115155131D01*
X174296586Y-115363519D01*
X174522580Y-115531037D01*
X174776913Y-115651246D01*
X174910961Y-115691904D01*
X175133000Y-115569915D01*
X175133000Y-114427000D01*
X175113000Y-114427000D01*
X175113000Y-114173000D01*
X175133000Y-114173000D01*
X175133000Y-114153000D01*
X175387000Y-114153000D01*
X175387000Y-114173000D01*
X175407000Y-114173000D01*
X175407000Y-114427000D01*
X175387000Y-114427000D01*
X175387000Y-115569915D01*
X175609039Y-115691904D01*
X175743087Y-115651246D01*
X175997420Y-115531037D01*
X176223414Y-115363519D01*
X176412385Y-115155131D01*
X176557070Y-114913881D01*
X176651909Y-114649040D01*
X176530625Y-114427002D01*
X176621125Y-114427002D01*
X176664386Y-114644485D01*
X176753412Y-114859413D01*
X176882658Y-115052843D01*
X177047157Y-115217342D01*
X177240587Y-115346588D01*
X177455515Y-115435614D01*
X177683682Y-115481000D01*
X177916318Y-115481000D01*
X178144485Y-115435614D01*
X178359413Y-115346588D01*
X178552843Y-115217342D01*
X178717342Y-115052843D01*
X178846588Y-114859413D01*
X178935614Y-114644485D01*
X178981000Y-114416318D01*
X178981000Y-114183682D01*
X178935614Y-113955515D01*
X178846588Y-113740587D01*
X178717342Y-113547157D01*
X178552843Y-113382658D01*
X178359413Y-113253412D01*
X178144485Y-113164386D01*
X177916318Y-113119000D01*
X177683682Y-113119000D01*
X177455515Y-113164386D01*
X177240587Y-113253412D01*
X177047157Y-113382658D01*
X176882658Y-113547157D01*
X176753412Y-113740587D01*
X176664386Y-113955515D01*
X176621125Y-114172998D01*
X176530625Y-114172998D01*
X176651909Y-113950960D01*
X176557070Y-113686119D01*
X176412385Y-113444869D01*
X176223414Y-113236481D01*
X175997420Y-113068963D01*
X175743087Y-112948754D01*
X175609039Y-112908096D01*
X175387002Y-113030084D01*
X175387002Y-112901000D01*
X180950154Y-112901000D01*
X180975000Y-112903447D01*
X180999846Y-112901000D01*
X180999854Y-112901000D01*
X181074193Y-112893678D01*
X181169575Y-112864745D01*
X181257479Y-112817759D01*
X181334527Y-112754527D01*
X181350376Y-112735215D01*
X181860220Y-112225372D01*
X181879527Y-112209527D01*
X181903759Y-112180000D01*
X193171928Y-112180000D01*
X193175000Y-112744250D01*
X193333750Y-112903000D01*
X194533000Y-112903000D01*
X194533000Y-111703750D01*
X194787000Y-111703750D01*
X194787000Y-112903000D01*
X195986250Y-112903000D01*
X196145000Y-112744250D01*
X196148072Y-112180000D01*
X196135812Y-112055518D01*
X196099502Y-111935820D01*
X196040537Y-111825506D01*
X195961185Y-111728815D01*
X195864494Y-111649463D01*
X195754180Y-111590498D01*
X195634482Y-111554188D01*
X195510000Y-111541928D01*
X194945750Y-111545000D01*
X194787000Y-111703750D01*
X194533000Y-111703750D01*
X194374250Y-111545000D01*
X193810000Y-111541928D01*
X193685518Y-111554188D01*
X193565820Y-111590498D01*
X193455506Y-111649463D01*
X193358815Y-111728815D01*
X193279463Y-111825506D01*
X193220498Y-111935820D01*
X193184188Y-112055518D01*
X193171928Y-112180000D01*
X181903759Y-112180000D01*
X181942759Y-112132479D01*
X181989745Y-112044575D01*
X182018678Y-111949193D01*
X182026000Y-111874854D01*
X182026000Y-111874847D01*
X182028447Y-111850001D01*
X182026000Y-111825155D01*
X182026000Y-108175881D01*
X192003724Y-108175881D01*
X192363912Y-108665548D01*
X193027882Y-109025849D01*
X193749385Y-109249694D01*
X194500695Y-109328480D01*
X195252938Y-109259178D01*
X195977208Y-109044452D01*
X196645670Y-108692555D01*
X196686088Y-108665548D01*
X197046276Y-108175881D01*
X194525000Y-105654605D01*
X192003724Y-108175881D01*
X182026000Y-108175881D01*
X182026000Y-107122832D01*
X182103097Y-107090898D01*
X182304717Y-106956180D01*
X182476180Y-106784717D01*
X182610898Y-106583097D01*
X182703693Y-106359069D01*
X182751000Y-106121243D01*
X182751000Y-105878757D01*
X182829000Y-105878757D01*
X182829000Y-106121243D01*
X182876307Y-106359069D01*
X182969102Y-106583097D01*
X183103820Y-106784717D01*
X183275283Y-106956180D01*
X183476903Y-107090898D01*
X183700931Y-107183693D01*
X183938757Y-107231000D01*
X184181243Y-107231000D01*
X184419069Y-107183693D01*
X184643097Y-107090898D01*
X184844717Y-106956180D01*
X185016180Y-106784717D01*
X185150898Y-106583097D01*
X185198228Y-106468832D01*
X185255843Y-106631252D01*
X185404822Y-106881355D01*
X185599731Y-107097588D01*
X185833080Y-107271641D01*
X186095901Y-107396825D01*
X186243110Y-107441476D01*
X186473000Y-107320155D01*
X186473000Y-106127000D01*
X186727000Y-106127000D01*
X186727000Y-107320155D01*
X186956890Y-107441476D01*
X187104099Y-107396825D01*
X187366920Y-107271641D01*
X187600269Y-107097588D01*
X187795178Y-106881355D01*
X187944157Y-106631252D01*
X188041481Y-106356891D01*
X187920814Y-106127000D01*
X186727000Y-106127000D01*
X186473000Y-106127000D01*
X186453000Y-106127000D01*
X186453000Y-105873000D01*
X186473000Y-105873000D01*
X186473000Y-104679845D01*
X186727000Y-104679845D01*
X186727000Y-105873000D01*
X187920814Y-105873000D01*
X188041481Y-105643109D01*
X187973227Y-105450695D01*
X190671520Y-105450695D01*
X190740822Y-106202938D01*
X190955548Y-106927208D01*
X191307445Y-107595670D01*
X191334452Y-107636088D01*
X191824119Y-107996276D01*
X194345395Y-105475000D01*
X194704605Y-105475000D01*
X197225881Y-107996276D01*
X197715548Y-107636088D01*
X198075849Y-106972118D01*
X198299694Y-106250615D01*
X198378480Y-105499305D01*
X198309178Y-104747062D01*
X198094452Y-104022792D01*
X197742555Y-103354330D01*
X197715548Y-103313912D01*
X197225881Y-102953724D01*
X194704605Y-105475000D01*
X194345395Y-105475000D01*
X191824119Y-102953724D01*
X191334452Y-103313912D01*
X190974151Y-103977882D01*
X190750306Y-104699385D01*
X190671520Y-105450695D01*
X187973227Y-105450695D01*
X187944157Y-105368748D01*
X187795178Y-105118645D01*
X187600269Y-104902412D01*
X187366920Y-104728359D01*
X187104099Y-104603175D01*
X186956890Y-104558524D01*
X186727000Y-104679845D01*
X186473000Y-104679845D01*
X186243110Y-104558524D01*
X186095901Y-104603175D01*
X185833080Y-104728359D01*
X185599731Y-104902412D01*
X185404822Y-105118645D01*
X185255843Y-105368748D01*
X185198228Y-105531168D01*
X185150898Y-105416903D01*
X185016180Y-105215283D01*
X184844717Y-105043820D01*
X184643097Y-104909102D01*
X184419069Y-104816307D01*
X184181243Y-104769000D01*
X183938757Y-104769000D01*
X183700931Y-104816307D01*
X183476903Y-104909102D01*
X183275283Y-105043820D01*
X183103820Y-105215283D01*
X182969102Y-105416903D01*
X182876307Y-105640931D01*
X182829000Y-105878757D01*
X182751000Y-105878757D01*
X182703693Y-105640931D01*
X182610898Y-105416903D01*
X182476180Y-105215283D01*
X182304717Y-105043820D01*
X182103097Y-104909102D01*
X181879069Y-104816307D01*
X181641243Y-104769000D01*
X181398757Y-104769000D01*
X181160931Y-104816307D01*
X180936903Y-104909102D01*
X180735283Y-105043820D01*
X180563820Y-105215283D01*
X180429102Y-105416903D01*
X180336307Y-105640931D01*
X180289000Y-105878757D01*
X180289000Y-106121243D01*
X180336307Y-106359069D01*
X180429102Y-106583097D01*
X180563820Y-106784717D01*
X180735283Y-106956180D01*
X180936903Y-107090898D01*
X181014001Y-107122833D01*
X181014000Y-111640408D01*
X180765409Y-111889000D01*
X155599854Y-111889000D01*
X155575000Y-111886552D01*
X155550146Y-111889000D01*
X155475807Y-111896322D01*
X155380425Y-111925255D01*
X155292521Y-111972241D01*
X155215473Y-112035473D01*
X155199629Y-112054779D01*
X154599780Y-112654629D01*
X154580474Y-112670473D01*
X154517242Y-112747521D01*
X154505029Y-112770370D01*
X154470255Y-112835426D01*
X154441322Y-112930808D01*
X154431553Y-113030000D01*
X154434001Y-113054856D01*
X154434001Y-113231287D01*
X154380587Y-113253412D01*
X154187157Y-113382658D01*
X154022658Y-113547157D01*
X153893412Y-113740587D01*
X153804386Y-113955515D01*
X153759000Y-114183682D01*
X153759000Y-114416318D01*
X153804386Y-114644485D01*
X153893412Y-114859413D01*
X154022658Y-115052843D01*
X154187157Y-115217342D01*
X154380587Y-115346588D01*
X154595515Y-115435614D01*
X154823682Y-115481000D01*
X155056318Y-115481000D01*
X155284485Y-115435614D01*
X155499413Y-115346588D01*
X155692843Y-115217342D01*
X155857342Y-115052843D01*
X155986588Y-114859413D01*
X156075614Y-114644485D01*
X156121000Y-114416318D01*
X156121000Y-114183682D01*
X156299000Y-114183682D01*
X156299000Y-114416318D01*
X156344386Y-114644485D01*
X156433412Y-114859413D01*
X156562658Y-115052843D01*
X156727157Y-115217342D01*
X156920587Y-115346588D01*
X157135515Y-115435614D01*
X157363682Y-115481000D01*
X157596318Y-115481000D01*
X157824485Y-115435614D01*
X158039413Y-115346588D01*
X158232843Y-115217342D01*
X158397342Y-115052843D01*
X158526588Y-114859413D01*
X158615614Y-114644485D01*
X158661000Y-114416318D01*
X158661000Y-114183682D01*
X158839000Y-114183682D01*
X158839000Y-114416318D01*
X158884386Y-114644485D01*
X158973412Y-114859413D01*
X159102658Y-115052843D01*
X159267157Y-115217342D01*
X159460587Y-115346588D01*
X159675515Y-115435614D01*
X159903682Y-115481000D01*
X160136318Y-115481000D01*
X160364485Y-115435614D01*
X160579413Y-115346588D01*
X160772843Y-115217342D01*
X160937342Y-115052843D01*
X161066588Y-114859413D01*
X161155614Y-114644485D01*
X161201000Y-114416318D01*
X161201000Y-114183682D01*
X161379000Y-114183682D01*
X161379000Y-114416318D01*
X161424386Y-114644485D01*
X161513412Y-114859413D01*
X161642658Y-115052843D01*
X161807157Y-115217342D01*
X162000587Y-115346588D01*
X162215515Y-115435614D01*
X162443682Y-115481000D01*
X162676318Y-115481000D01*
X162904485Y-115435614D01*
X163119413Y-115346588D01*
X163312843Y-115217342D01*
X163477342Y-115052843D01*
X163606588Y-114859413D01*
X163695614Y-114644485D01*
X163741000Y-114416318D01*
X163741000Y-114183682D01*
X163919000Y-114183682D01*
X163919000Y-114416318D01*
X163964386Y-114644485D01*
X164053412Y-114859413D01*
X164182658Y-115052843D01*
X164347157Y-115217342D01*
X164540587Y-115346588D01*
X164755515Y-115435614D01*
X164983682Y-115481000D01*
X165216318Y-115481000D01*
X165444485Y-115435614D01*
X165659413Y-115346588D01*
X165852843Y-115217342D01*
X166017342Y-115052843D01*
X166146588Y-114859413D01*
X166235614Y-114644485D01*
X166281000Y-114416318D01*
X166281000Y-114183682D01*
X166459000Y-114183682D01*
X166459000Y-114416318D01*
X166504386Y-114644485D01*
X166593412Y-114859413D01*
X166722658Y-115052843D01*
X166887157Y-115217342D01*
X167080587Y-115346588D01*
X167295515Y-115435614D01*
X167523682Y-115481000D01*
X167756318Y-115481000D01*
X167984485Y-115435614D01*
X168199413Y-115346588D01*
X168392843Y-115217342D01*
X168557342Y-115052843D01*
X168686588Y-114859413D01*
X168775614Y-114644485D01*
X168821000Y-114416318D01*
X168821000Y-114183682D01*
X168999000Y-114183682D01*
X168999000Y-114416318D01*
X169044386Y-114644485D01*
X169133412Y-114859413D01*
X169262658Y-115052843D01*
X169427157Y-115217342D01*
X169620587Y-115346588D01*
X169835515Y-115435614D01*
X170063682Y-115481000D01*
X170296318Y-115481000D01*
X170524485Y-115435614D01*
X170739413Y-115346588D01*
X170932843Y-115217342D01*
X171097342Y-115052843D01*
X171226588Y-114859413D01*
X171315614Y-114644485D01*
X171361000Y-114416318D01*
X171361000Y-114183682D01*
X171315614Y-113955515D01*
X171226588Y-113740587D01*
X171097342Y-113547157D01*
X170932843Y-113382658D01*
X170739413Y-113253412D01*
X170524485Y-113164386D01*
X170296318Y-113119000D01*
X170063682Y-113119000D01*
X169835515Y-113164386D01*
X169620587Y-113253412D01*
X169427157Y-113382658D01*
X169262658Y-113547157D01*
X169133412Y-113740587D01*
X169044386Y-113955515D01*
X168999000Y-114183682D01*
X168821000Y-114183682D01*
X168775614Y-113955515D01*
X168686588Y-113740587D01*
X168557342Y-113547157D01*
X168392843Y-113382658D01*
X168199413Y-113253412D01*
X167984485Y-113164386D01*
X167756318Y-113119000D01*
X167523682Y-113119000D01*
X167295515Y-113164386D01*
X167080587Y-113253412D01*
X166887157Y-113382658D01*
X166722658Y-113547157D01*
X166593412Y-113740587D01*
X166504386Y-113955515D01*
X166459000Y-114183682D01*
X166281000Y-114183682D01*
X166235614Y-113955515D01*
X166146588Y-113740587D01*
X166017342Y-113547157D01*
X165852843Y-113382658D01*
X165659413Y-113253412D01*
X165444485Y-113164386D01*
X165216318Y-113119000D01*
X164983682Y-113119000D01*
X164755515Y-113164386D01*
X164540587Y-113253412D01*
X164347157Y-113382658D01*
X164182658Y-113547157D01*
X164053412Y-113740587D01*
X163964386Y-113955515D01*
X163919000Y-114183682D01*
X163741000Y-114183682D01*
X163695614Y-113955515D01*
X163606588Y-113740587D01*
X163477342Y-113547157D01*
X163312843Y-113382658D01*
X163119413Y-113253412D01*
X162904485Y-113164386D01*
X162676318Y-113119000D01*
X162443682Y-113119000D01*
X162215515Y-113164386D01*
X162000587Y-113253412D01*
X161807157Y-113382658D01*
X161642658Y-113547157D01*
X161513412Y-113740587D01*
X161424386Y-113955515D01*
X161379000Y-114183682D01*
X161201000Y-114183682D01*
X161155614Y-113955515D01*
X161066588Y-113740587D01*
X160937342Y-113547157D01*
X160772843Y-113382658D01*
X160579413Y-113253412D01*
X160364485Y-113164386D01*
X160136318Y-113119000D01*
X159903682Y-113119000D01*
X159675515Y-113164386D01*
X159460587Y-113253412D01*
X159267157Y-113382658D01*
X159102658Y-113547157D01*
X158973412Y-113740587D01*
X158884386Y-113955515D01*
X158839000Y-114183682D01*
X158661000Y-114183682D01*
X158615614Y-113955515D01*
X158526588Y-113740587D01*
X158397342Y-113547157D01*
X158232843Y-113382658D01*
X158039413Y-113253412D01*
X157824485Y-113164386D01*
X157596318Y-113119000D01*
X157363682Y-113119000D01*
X157135515Y-113164386D01*
X156920587Y-113253412D01*
X156727157Y-113382658D01*
X156562658Y-113547157D01*
X156433412Y-113740587D01*
X156344386Y-113955515D01*
X156299000Y-114183682D01*
X156121000Y-114183682D01*
X156075614Y-113955515D01*
X155986588Y-113740587D01*
X155857342Y-113547157D01*
X155692843Y-113382658D01*
X155499413Y-113253412D01*
X155451872Y-113233720D01*
X155784592Y-112901000D01*
X175132998Y-112901000D01*
X175132998Y-113030084D01*
X174910961Y-112908096D01*
X174776913Y-112948754D01*
X174522580Y-113068963D01*
X174296586Y-113236481D01*
X174107615Y-113444869D01*
X173962930Y-113686119D01*
X173868091Y-113950960D01*
X173989375Y-114172998D01*
X173898875Y-114172998D01*
X173855614Y-113955515D01*
X173766588Y-113740587D01*
X173637342Y-113547157D01*
X173472843Y-113382658D01*
X173279413Y-113253412D01*
X173064485Y-113164386D01*
X172836318Y-113119000D01*
X172603682Y-113119000D01*
X172375515Y-113164386D01*
X172160587Y-113253412D01*
X171967157Y-113382658D01*
X171802658Y-113547157D01*
X171673412Y-113740587D01*
X171584386Y-113955515D01*
X171539000Y-114183682D01*
X171539000Y-114416318D01*
X171584386Y-114644485D01*
X171673412Y-114859413D01*
X171802658Y-115052843D01*
X171967157Y-115217342D01*
X172160587Y-115346588D01*
X172214001Y-115368713D01*
X172214000Y-116630408D01*
X170810409Y-118034000D01*
X106622832Y-118034000D01*
X106590898Y-117956903D01*
X106456180Y-117755283D01*
X106284717Y-117583820D01*
X106139706Y-117486927D01*
X106350000Y-117488072D01*
X106474482Y-117475812D01*
X106594180Y-117439502D01*
X106704494Y-117380537D01*
X106801185Y-117301185D01*
X106880537Y-117204494D01*
X106939502Y-117094180D01*
X106975812Y-116974482D01*
X106988072Y-116850000D01*
X106985000Y-116285750D01*
X106826250Y-116127000D01*
X105627000Y-116127000D01*
X105627000Y-116147000D01*
X105373000Y-116147000D01*
X105373000Y-116127000D01*
X104173750Y-116127000D01*
X104015000Y-116285750D01*
X104011928Y-116850000D01*
X100406000Y-116850000D01*
X100406000Y-115150000D01*
X104011928Y-115150000D01*
X104015000Y-115714250D01*
X104173750Y-115873000D01*
X105373000Y-115873000D01*
X105373000Y-114673750D01*
X105627000Y-114673750D01*
X105627000Y-115873000D01*
X106826250Y-115873000D01*
X106985000Y-115714250D01*
X106988072Y-115150000D01*
X106975812Y-115025518D01*
X106939502Y-114905820D01*
X106880537Y-114795506D01*
X106801185Y-114698815D01*
X106704494Y-114619463D01*
X106594180Y-114560498D01*
X106474482Y-114524188D01*
X106350000Y-114511928D01*
X105785750Y-114515000D01*
X105627000Y-114673750D01*
X105373000Y-114673750D01*
X105214250Y-114515000D01*
X104650000Y-114511928D01*
X104525518Y-114524188D01*
X104405820Y-114560498D01*
X104295506Y-114619463D01*
X104198815Y-114698815D01*
X104119463Y-114795506D01*
X104060498Y-114905820D01*
X104024188Y-115025518D01*
X104011928Y-115150000D01*
X100406000Y-115150000D01*
X100406000Y-114183682D01*
X146139000Y-114183682D01*
X146139000Y-114416318D01*
X146184386Y-114644485D01*
X146273412Y-114859413D01*
X146402658Y-115052843D01*
X146567157Y-115217342D01*
X146760587Y-115346588D01*
X146975515Y-115435614D01*
X147203682Y-115481000D01*
X147436318Y-115481000D01*
X147664485Y-115435614D01*
X147879413Y-115346588D01*
X148072843Y-115217342D01*
X148237342Y-115052843D01*
X148366588Y-114859413D01*
X148455614Y-114644485D01*
X148501000Y-114416318D01*
X148501000Y-114183682D01*
X148679000Y-114183682D01*
X148679000Y-114416318D01*
X148724386Y-114644485D01*
X148813412Y-114859413D01*
X148942658Y-115052843D01*
X149107157Y-115217342D01*
X149300587Y-115346588D01*
X149515515Y-115435614D01*
X149743682Y-115481000D01*
X149976318Y-115481000D01*
X150204485Y-115435614D01*
X150419413Y-115346588D01*
X150612843Y-115217342D01*
X150777342Y-115052843D01*
X150906588Y-114859413D01*
X150995614Y-114644485D01*
X151041000Y-114416318D01*
X151041000Y-114183682D01*
X151219000Y-114183682D01*
X151219000Y-114416318D01*
X151264386Y-114644485D01*
X151353412Y-114859413D01*
X151482658Y-115052843D01*
X151647157Y-115217342D01*
X151840587Y-115346588D01*
X152055515Y-115435614D01*
X152283682Y-115481000D01*
X152516318Y-115481000D01*
X152744485Y-115435614D01*
X152959413Y-115346588D01*
X153152843Y-115217342D01*
X153317342Y-115052843D01*
X153446588Y-114859413D01*
X153535614Y-114644485D01*
X153581000Y-114416318D01*
X153581000Y-114183682D01*
X153535614Y-113955515D01*
X153446588Y-113740587D01*
X153317342Y-113547157D01*
X153152843Y-113382658D01*
X152959413Y-113253412D01*
X152906000Y-113231288D01*
X152906000Y-111969591D01*
X153244592Y-111631000D01*
X178410154Y-111631000D01*
X178435000Y-111633447D01*
X178459846Y-111631000D01*
X178459854Y-111631000D01*
X178534193Y-111623678D01*
X178629575Y-111594745D01*
X178717479Y-111547759D01*
X178794527Y-111484527D01*
X178810376Y-111465215D01*
X179320220Y-110955372D01*
X179339527Y-110939527D01*
X179402759Y-110862479D01*
X179449745Y-110774575D01*
X179478678Y-110679193D01*
X179486000Y-110604854D01*
X179486000Y-110604847D01*
X179488447Y-110580001D01*
X179486000Y-110555155D01*
X179486000Y-107122832D01*
X179563097Y-107090898D01*
X179764717Y-106956180D01*
X179936180Y-106784717D01*
X180070898Y-106583097D01*
X180163693Y-106359069D01*
X180211000Y-106121243D01*
X180211000Y-105878757D01*
X180163693Y-105640931D01*
X180070898Y-105416903D01*
X179936180Y-105215283D01*
X179764717Y-105043820D01*
X179563097Y-104909102D01*
X179339069Y-104816307D01*
X179101243Y-104769000D01*
X178858757Y-104769000D01*
X178620931Y-104816307D01*
X178396903Y-104909102D01*
X178195283Y-105043820D01*
X178023820Y-105215283D01*
X177889102Y-105416903D01*
X177796307Y-105640931D01*
X177749000Y-105878757D01*
X177749000Y-106121243D01*
X177796307Y-106359069D01*
X177889102Y-106583097D01*
X178023820Y-106784717D01*
X178195283Y-106956180D01*
X178396903Y-107090898D01*
X178474001Y-107122833D01*
X178474000Y-110370408D01*
X178225409Y-110619000D01*
X153059854Y-110619000D01*
X153035000Y-110616552D01*
X153010146Y-110619000D01*
X152935807Y-110626322D01*
X152840425Y-110655255D01*
X152752521Y-110702241D01*
X152675473Y-110765473D01*
X152659629Y-110784779D01*
X152059780Y-111384629D01*
X152040474Y-111400473D01*
X151977242Y-111477521D01*
X151965029Y-111500370D01*
X151930255Y-111565426D01*
X151901322Y-111660808D01*
X151891553Y-111760000D01*
X151894001Y-111784856D01*
X151894000Y-113231287D01*
X151840587Y-113253412D01*
X151647157Y-113382658D01*
X151482658Y-113547157D01*
X151353412Y-113740587D01*
X151264386Y-113955515D01*
X151219000Y-114183682D01*
X151041000Y-114183682D01*
X150995614Y-113955515D01*
X150906588Y-113740587D01*
X150777342Y-113547157D01*
X150612843Y-113382658D01*
X150419413Y-113253412D01*
X150366000Y-113231288D01*
X150366000Y-110699591D01*
X150704592Y-110361000D01*
X175870154Y-110361000D01*
X175895000Y-110363447D01*
X175919846Y-110361000D01*
X175919854Y-110361000D01*
X175994193Y-110353678D01*
X176089575Y-110324745D01*
X176177479Y-110277759D01*
X176254527Y-110214527D01*
X176270376Y-110195215D01*
X176780220Y-109685372D01*
X176799527Y-109669527D01*
X176862759Y-109592479D01*
X176909745Y-109504575D01*
X176938678Y-109409193D01*
X176946000Y-109334854D01*
X176946000Y-109334847D01*
X176948447Y-109310001D01*
X176946000Y-109285155D01*
X176946000Y-107122832D01*
X177023097Y-107090898D01*
X177224717Y-106956180D01*
X177396180Y-106784717D01*
X177530898Y-106583097D01*
X177623693Y-106359069D01*
X177671000Y-106121243D01*
X177671000Y-105878757D01*
X177623693Y-105640931D01*
X177530898Y-105416903D01*
X177396180Y-105215283D01*
X177224717Y-105043820D01*
X177023097Y-104909102D01*
X176799069Y-104816307D01*
X176561243Y-104769000D01*
X176318757Y-104769000D01*
X176080931Y-104816307D01*
X175856903Y-104909102D01*
X175655283Y-105043820D01*
X175483820Y-105215283D01*
X175349102Y-105416903D01*
X175256307Y-105640931D01*
X175209000Y-105878757D01*
X175209000Y-106121243D01*
X175256307Y-106359069D01*
X175349102Y-106583097D01*
X175483820Y-106784717D01*
X175655283Y-106956180D01*
X175856903Y-107090898D01*
X175934001Y-107122833D01*
X175934000Y-109100408D01*
X175685409Y-109349000D01*
X150519854Y-109349000D01*
X150495000Y-109346552D01*
X150470146Y-109349000D01*
X150395807Y-109356322D01*
X150300425Y-109385255D01*
X150212521Y-109432241D01*
X150135473Y-109495473D01*
X150119629Y-109514779D01*
X149519780Y-110114629D01*
X149500474Y-110130473D01*
X149437242Y-110207521D01*
X149425029Y-110230370D01*
X149390255Y-110295426D01*
X149361322Y-110390808D01*
X149351553Y-110490000D01*
X149354001Y-110514856D01*
X149354000Y-113231288D01*
X149300587Y-113253412D01*
X149107157Y-113382658D01*
X148942658Y-113547157D01*
X148813412Y-113740587D01*
X148724386Y-113955515D01*
X148679000Y-114183682D01*
X148501000Y-114183682D01*
X148455614Y-113955515D01*
X148366588Y-113740587D01*
X148237342Y-113547157D01*
X148072843Y-113382658D01*
X147879413Y-113253412D01*
X147826000Y-113231288D01*
X147826000Y-109429591D01*
X148164592Y-109091000D01*
X173330154Y-109091000D01*
X173355000Y-109093447D01*
X173379846Y-109091000D01*
X173379854Y-109091000D01*
X173454193Y-109083678D01*
X173549575Y-109054745D01*
X173637479Y-109007759D01*
X173714527Y-108944527D01*
X173730376Y-108925215D01*
X174240220Y-108415372D01*
X174259527Y-108399527D01*
X174322759Y-108322479D01*
X174369745Y-108234575D01*
X174398678Y-108139193D01*
X174406000Y-108064854D01*
X174406000Y-108064847D01*
X174408447Y-108040001D01*
X174406000Y-108015155D01*
X174406000Y-107122832D01*
X174483097Y-107090898D01*
X174684717Y-106956180D01*
X174856180Y-106784717D01*
X174990898Y-106583097D01*
X175083693Y-106359069D01*
X175131000Y-106121243D01*
X175131000Y-105878757D01*
X175083693Y-105640931D01*
X174990898Y-105416903D01*
X174856180Y-105215283D01*
X174684717Y-105043820D01*
X174483097Y-104909102D01*
X174259069Y-104816307D01*
X174021243Y-104769000D01*
X173778757Y-104769000D01*
X173540931Y-104816307D01*
X173316903Y-104909102D01*
X173115283Y-105043820D01*
X172943820Y-105215283D01*
X172809102Y-105416903D01*
X172716307Y-105640931D01*
X172669000Y-105878757D01*
X172669000Y-106121243D01*
X172716307Y-106359069D01*
X172809102Y-106583097D01*
X172943820Y-106784717D01*
X173115283Y-106956180D01*
X173316903Y-107090898D01*
X173394000Y-107122833D01*
X173394000Y-107830408D01*
X173145409Y-108079000D01*
X147979854Y-108079000D01*
X147955000Y-108076552D01*
X147930146Y-108079000D01*
X147855807Y-108086322D01*
X147760425Y-108115255D01*
X147672521Y-108162241D01*
X147595473Y-108225473D01*
X147579629Y-108244779D01*
X146979780Y-108844629D01*
X146960474Y-108860473D01*
X146897242Y-108937521D01*
X146885029Y-108960370D01*
X146850255Y-109025426D01*
X146821322Y-109120808D01*
X146811553Y-109220000D01*
X146814001Y-109244856D01*
X146814000Y-113231288D01*
X146760587Y-113253412D01*
X146567157Y-113382658D01*
X146402658Y-113547157D01*
X146273412Y-113740587D01*
X146184386Y-113955515D01*
X146139000Y-114183682D01*
X100406000Y-114183682D01*
X100406000Y-108175881D01*
X102953724Y-108175881D01*
X103313912Y-108665548D01*
X103977882Y-109025849D01*
X104699385Y-109249694D01*
X105450695Y-109328480D01*
X106202938Y-109259178D01*
X106927208Y-109044452D01*
X107595670Y-108692555D01*
X107636088Y-108665548D01*
X107996276Y-108175881D01*
X105475000Y-105654605D01*
X102953724Y-108175881D01*
X100406000Y-108175881D01*
X100406000Y-105450695D01*
X101621520Y-105450695D01*
X101690822Y-106202938D01*
X101905548Y-106927208D01*
X102257445Y-107595670D01*
X102284452Y-107636088D01*
X102774119Y-107996276D01*
X105295395Y-105475000D01*
X105654605Y-105475000D01*
X108175881Y-107996276D01*
X108665548Y-107636088D01*
X109025849Y-106972118D01*
X109063735Y-106850000D01*
X147011928Y-106850000D01*
X147024188Y-106974482D01*
X147060498Y-107094180D01*
X147119463Y-107204494D01*
X147198815Y-107301185D01*
X147295506Y-107380537D01*
X147405820Y-107439502D01*
X147525518Y-107475812D01*
X147650000Y-107488072D01*
X148214250Y-107485000D01*
X148373000Y-107326250D01*
X148373000Y-106127000D01*
X147173750Y-106127000D01*
X147015000Y-106285750D01*
X147011928Y-106850000D01*
X109063735Y-106850000D01*
X109249694Y-106250615D01*
X109328480Y-105499305D01*
X109296300Y-105150000D01*
X147011928Y-105150000D01*
X147015000Y-105714250D01*
X147173750Y-105873000D01*
X148373000Y-105873000D01*
X148373000Y-104673750D01*
X148627000Y-104673750D01*
X148627000Y-105873000D01*
X148647000Y-105873000D01*
X148647000Y-106127000D01*
X148627000Y-106127000D01*
X148627000Y-107326250D01*
X148785750Y-107485000D01*
X149350000Y-107488072D01*
X149474482Y-107475812D01*
X149594180Y-107439502D01*
X149704494Y-107380537D01*
X149801185Y-107301185D01*
X149880537Y-107204494D01*
X149939502Y-107094180D01*
X149975812Y-106974482D01*
X149988072Y-106850000D01*
X149986927Y-106639706D01*
X150083820Y-106784717D01*
X150255283Y-106956180D01*
X150456903Y-107090898D01*
X150680931Y-107183693D01*
X150918757Y-107231000D01*
X151161243Y-107231000D01*
X151399069Y-107183693D01*
X151623097Y-107090898D01*
X151824717Y-106956180D01*
X151996180Y-106784717D01*
X152130898Y-106583097D01*
X152223693Y-106359069D01*
X152271000Y-106121243D01*
X152271000Y-105878757D01*
X152349000Y-105878757D01*
X152349000Y-106121243D01*
X152396307Y-106359069D01*
X152489102Y-106583097D01*
X152623820Y-106784717D01*
X152795283Y-106956180D01*
X152996903Y-107090898D01*
X153220931Y-107183693D01*
X153458757Y-107231000D01*
X153701243Y-107231000D01*
X153939069Y-107183693D01*
X154163097Y-107090898D01*
X154364717Y-106956180D01*
X154536180Y-106784717D01*
X154670898Y-106583097D01*
X154763693Y-106359069D01*
X154811000Y-106121243D01*
X154811000Y-105878757D01*
X154889000Y-105878757D01*
X154889000Y-106121243D01*
X154936307Y-106359069D01*
X155029102Y-106583097D01*
X155163820Y-106784717D01*
X155335283Y-106956180D01*
X155536903Y-107090898D01*
X155760931Y-107183693D01*
X155998757Y-107231000D01*
X156241243Y-107231000D01*
X156479069Y-107183693D01*
X156703097Y-107090898D01*
X156904717Y-106956180D01*
X157076180Y-106784717D01*
X157210898Y-106583097D01*
X157258228Y-106468832D01*
X157315843Y-106631252D01*
X157464822Y-106881355D01*
X157659731Y-107097588D01*
X157893080Y-107271641D01*
X158155901Y-107396825D01*
X158303110Y-107441476D01*
X158533000Y-107320155D01*
X158533000Y-106127000D01*
X158513000Y-106127000D01*
X158513000Y-105873000D01*
X158533000Y-105873000D01*
X158533000Y-104679845D01*
X158787000Y-104679845D01*
X158787000Y-105873000D01*
X158807000Y-105873000D01*
X158807000Y-106127000D01*
X158787000Y-106127000D01*
X158787000Y-107320155D01*
X159016890Y-107441476D01*
X159164099Y-107396825D01*
X159426920Y-107271641D01*
X159660269Y-107097588D01*
X159855178Y-106881355D01*
X160004157Y-106631252D01*
X160061772Y-106468832D01*
X160109102Y-106583097D01*
X160243820Y-106784717D01*
X160415283Y-106956180D01*
X160616903Y-107090898D01*
X160840931Y-107183693D01*
X161078757Y-107231000D01*
X161321243Y-107231000D01*
X161559069Y-107183693D01*
X161783097Y-107090898D01*
X161984717Y-106956180D01*
X162156180Y-106784717D01*
X162290898Y-106583097D01*
X162383693Y-106359069D01*
X162431000Y-106121243D01*
X162431000Y-105878757D01*
X162509000Y-105878757D01*
X162509000Y-106121243D01*
X162556307Y-106359069D01*
X162649102Y-106583097D01*
X162783820Y-106784717D01*
X162955283Y-106956180D01*
X163156903Y-107090898D01*
X163380931Y-107183693D01*
X163618757Y-107231000D01*
X163861243Y-107231000D01*
X164099069Y-107183693D01*
X164323097Y-107090898D01*
X164524717Y-106956180D01*
X164696180Y-106784717D01*
X164830898Y-106583097D01*
X164923693Y-106359069D01*
X164971000Y-106121243D01*
X164971000Y-105878757D01*
X165049000Y-105878757D01*
X165049000Y-106121243D01*
X165096307Y-106359069D01*
X165189102Y-106583097D01*
X165323820Y-106784717D01*
X165495283Y-106956180D01*
X165696903Y-107090898D01*
X165920931Y-107183693D01*
X166158757Y-107231000D01*
X166401243Y-107231000D01*
X166639069Y-107183693D01*
X166863097Y-107090898D01*
X167064717Y-106956180D01*
X167236180Y-106784717D01*
X167370898Y-106583097D01*
X167463693Y-106359069D01*
X167511000Y-106121243D01*
X167511000Y-105878757D01*
X167589000Y-105878757D01*
X167589000Y-106121243D01*
X167636307Y-106359069D01*
X167729102Y-106583097D01*
X167863820Y-106784717D01*
X168035283Y-106956180D01*
X168236903Y-107090898D01*
X168460931Y-107183693D01*
X168698757Y-107231000D01*
X168941243Y-107231000D01*
X169179069Y-107183693D01*
X169403097Y-107090898D01*
X169604717Y-106956180D01*
X169776180Y-106784717D01*
X169910898Y-106583097D01*
X170003693Y-106359069D01*
X170051000Y-106121243D01*
X170051000Y-105878757D01*
X170129000Y-105878757D01*
X170129000Y-106121243D01*
X170176307Y-106359069D01*
X170269102Y-106583097D01*
X170403820Y-106784717D01*
X170575283Y-106956180D01*
X170776903Y-107090898D01*
X171000931Y-107183693D01*
X171238757Y-107231000D01*
X171481243Y-107231000D01*
X171719069Y-107183693D01*
X171943097Y-107090898D01*
X172144717Y-106956180D01*
X172316180Y-106784717D01*
X172450898Y-106583097D01*
X172543693Y-106359069D01*
X172591000Y-106121243D01*
X172591000Y-105878757D01*
X172543693Y-105640931D01*
X172450898Y-105416903D01*
X172316180Y-105215283D01*
X172144717Y-105043820D01*
X171943097Y-104909102D01*
X171719069Y-104816307D01*
X171481243Y-104769000D01*
X171238757Y-104769000D01*
X171000931Y-104816307D01*
X170776903Y-104909102D01*
X170575283Y-105043820D01*
X170403820Y-105215283D01*
X170269102Y-105416903D01*
X170176307Y-105640931D01*
X170129000Y-105878757D01*
X170051000Y-105878757D01*
X170003693Y-105640931D01*
X169910898Y-105416903D01*
X169776180Y-105215283D01*
X169604717Y-105043820D01*
X169403097Y-104909102D01*
X169179069Y-104816307D01*
X168941243Y-104769000D01*
X168698757Y-104769000D01*
X168460931Y-104816307D01*
X168236903Y-104909102D01*
X168035283Y-105043820D01*
X167863820Y-105215283D01*
X167729102Y-105416903D01*
X167636307Y-105640931D01*
X167589000Y-105878757D01*
X167511000Y-105878757D01*
X167463693Y-105640931D01*
X167370898Y-105416903D01*
X167236180Y-105215283D01*
X167064717Y-105043820D01*
X166863097Y-104909102D01*
X166639069Y-104816307D01*
X166401243Y-104769000D01*
X166158757Y-104769000D01*
X165920931Y-104816307D01*
X165696903Y-104909102D01*
X165495283Y-105043820D01*
X165323820Y-105215283D01*
X165189102Y-105416903D01*
X165096307Y-105640931D01*
X165049000Y-105878757D01*
X164971000Y-105878757D01*
X164923693Y-105640931D01*
X164830898Y-105416903D01*
X164696180Y-105215283D01*
X164524717Y-105043820D01*
X164323097Y-104909102D01*
X164099069Y-104816307D01*
X163861243Y-104769000D01*
X163618757Y-104769000D01*
X163380931Y-104816307D01*
X163156903Y-104909102D01*
X162955283Y-105043820D01*
X162783820Y-105215283D01*
X162649102Y-105416903D01*
X162556307Y-105640931D01*
X162509000Y-105878757D01*
X162431000Y-105878757D01*
X162383693Y-105640931D01*
X162290898Y-105416903D01*
X162156180Y-105215283D01*
X161984717Y-105043820D01*
X161783097Y-104909102D01*
X161559069Y-104816307D01*
X161321243Y-104769000D01*
X161078757Y-104769000D01*
X160840931Y-104816307D01*
X160616903Y-104909102D01*
X160415283Y-105043820D01*
X160243820Y-105215283D01*
X160109102Y-105416903D01*
X160061772Y-105531168D01*
X160004157Y-105368748D01*
X159855178Y-105118645D01*
X159660269Y-104902412D01*
X159426920Y-104728359D01*
X159164099Y-104603175D01*
X159016890Y-104558524D01*
X158787000Y-104679845D01*
X158533000Y-104679845D01*
X158303110Y-104558524D01*
X158155901Y-104603175D01*
X157893080Y-104728359D01*
X157659731Y-104902412D01*
X157464822Y-105118645D01*
X157315843Y-105368748D01*
X157258228Y-105531168D01*
X157210898Y-105416903D01*
X157076180Y-105215283D01*
X156904717Y-105043820D01*
X156703097Y-104909102D01*
X156479069Y-104816307D01*
X156241243Y-104769000D01*
X155998757Y-104769000D01*
X155760931Y-104816307D01*
X155536903Y-104909102D01*
X155335283Y-105043820D01*
X155163820Y-105215283D01*
X155029102Y-105416903D01*
X154936307Y-105640931D01*
X154889000Y-105878757D01*
X154811000Y-105878757D01*
X154763693Y-105640931D01*
X154670898Y-105416903D01*
X154536180Y-105215283D01*
X154364717Y-105043820D01*
X154163097Y-104909102D01*
X153939069Y-104816307D01*
X153701243Y-104769000D01*
X153458757Y-104769000D01*
X153220931Y-104816307D01*
X152996903Y-104909102D01*
X152795283Y-105043820D01*
X152623820Y-105215283D01*
X152489102Y-105416903D01*
X152396307Y-105640931D01*
X152349000Y-105878757D01*
X152271000Y-105878757D01*
X152223693Y-105640931D01*
X152130898Y-105416903D01*
X151996180Y-105215283D01*
X151824717Y-105043820D01*
X151623097Y-104909102D01*
X151399069Y-104816307D01*
X151161243Y-104769000D01*
X150918757Y-104769000D01*
X150680931Y-104816307D01*
X150456903Y-104909102D01*
X150255283Y-105043820D01*
X150083820Y-105215283D01*
X149986927Y-105360294D01*
X149988072Y-105150000D01*
X149975812Y-105025518D01*
X149939502Y-104905820D01*
X149880537Y-104795506D01*
X149801185Y-104698815D01*
X149704494Y-104619463D01*
X149594180Y-104560498D01*
X149474482Y-104524188D01*
X149350000Y-104511928D01*
X148785750Y-104515000D01*
X148627000Y-104673750D01*
X148373000Y-104673750D01*
X148214250Y-104515000D01*
X147650000Y-104511928D01*
X147525518Y-104524188D01*
X147405820Y-104560498D01*
X147295506Y-104619463D01*
X147198815Y-104698815D01*
X147119463Y-104795506D01*
X147060498Y-104905820D01*
X147024188Y-105025518D01*
X147011928Y-105150000D01*
X109296300Y-105150000D01*
X109259178Y-104747062D01*
X109044452Y-104022792D01*
X108692555Y-103354330D01*
X108665548Y-103313912D01*
X108175881Y-102953724D01*
X105654605Y-105475000D01*
X105295395Y-105475000D01*
X102774119Y-102953724D01*
X102284452Y-103313912D01*
X101924151Y-103977882D01*
X101700306Y-104699385D01*
X101621520Y-105450695D01*
X100406000Y-105450695D01*
X100406000Y-102774119D01*
X102953724Y-102774119D01*
X105475000Y-105295395D01*
X107996276Y-102774119D01*
X192003724Y-102774119D01*
X194525000Y-105295395D01*
X197046276Y-102774119D01*
X196686088Y-102284452D01*
X196022118Y-101924151D01*
X195300615Y-101700306D01*
X194549305Y-101621520D01*
X193797062Y-101690822D01*
X193072792Y-101905548D01*
X192404330Y-102257445D01*
X192363912Y-102284452D01*
X192003724Y-102774119D01*
X107996276Y-102774119D01*
X107636088Y-102284452D01*
X106972118Y-101924151D01*
X106250615Y-101700306D01*
X105499305Y-101621520D01*
X104747062Y-101690822D01*
X104022792Y-101905548D01*
X103354330Y-102257445D01*
X103313912Y-102284452D01*
X102953724Y-102774119D01*
X100406000Y-102774119D01*
X100406000Y-100406000D01*
X199594000Y-100406000D01*
X199594001Y-149594000D01*
G37*
X199594001Y-149594000D02*
X100406000Y-149594000D01*
X100406000Y-147225881D01*
X102953724Y-147225881D01*
X103313912Y-147715548D01*
X103977882Y-148075849D01*
X104699385Y-148299694D01*
X105450695Y-148378480D01*
X106202938Y-148309178D01*
X106927208Y-148094452D01*
X107595670Y-147742555D01*
X107636088Y-147715548D01*
X107996276Y-147225881D01*
X192003724Y-147225881D01*
X192363912Y-147715548D01*
X193027882Y-148075849D01*
X193749385Y-148299694D01*
X194500695Y-148378480D01*
X195252938Y-148309178D01*
X195977208Y-148094452D01*
X196645670Y-147742555D01*
X196686088Y-147715548D01*
X197046276Y-147225881D01*
X194525000Y-144704605D01*
X192003724Y-147225881D01*
X107996276Y-147225881D01*
X105475000Y-144704605D01*
X102953724Y-147225881D01*
X100406000Y-147225881D01*
X100406000Y-144500695D01*
X101621520Y-144500695D01*
X101690822Y-145252938D01*
X101905548Y-145977208D01*
X102257445Y-146645670D01*
X102284452Y-146686088D01*
X102774119Y-147046276D01*
X105295395Y-144525000D01*
X105654605Y-144525000D01*
X108175881Y-147046276D01*
X108665548Y-146686088D01*
X109025849Y-146022118D01*
X109249694Y-145300615D01*
X109293932Y-144878757D01*
X182729000Y-144878757D01*
X182729000Y-145121243D01*
X182776307Y-145359069D01*
X182869102Y-145583097D01*
X183003820Y-145784717D01*
X183175283Y-145956180D01*
X183376903Y-146090898D01*
X183600931Y-146183693D01*
X183838757Y-146231000D01*
X184081243Y-146231000D01*
X184319069Y-146183693D01*
X184543097Y-146090898D01*
X184744717Y-145956180D01*
X184916180Y-145784717D01*
X185013073Y-145639706D01*
X185011928Y-145850000D01*
X185024188Y-145974482D01*
X185060498Y-146094180D01*
X185119463Y-146204494D01*
X185198815Y-146301185D01*
X185295506Y-146380537D01*
X185405820Y-146439502D01*
X185525518Y-146475812D01*
X185650000Y-146488072D01*
X186214250Y-146485000D01*
X186373000Y-146326250D01*
X186373000Y-145127000D01*
X186627000Y-145127000D01*
X186627000Y-146326250D01*
X186785750Y-146485000D01*
X187350000Y-146488072D01*
X187474482Y-146475812D01*
X187594180Y-146439502D01*
X187704494Y-146380537D01*
X187801185Y-146301185D01*
X187880537Y-146204494D01*
X187939502Y-146094180D01*
X187975812Y-145974482D01*
X187988072Y-145850000D01*
X187985000Y-145285750D01*
X187826250Y-145127000D01*
X186627000Y-145127000D01*
X186373000Y-145127000D01*
X186353000Y-145127000D01*
X186353000Y-144873000D01*
X186373000Y-144873000D01*
X186373000Y-143673750D01*
X186627000Y-143673750D01*
X186627000Y-144873000D01*
X187826250Y-144873000D01*
X187985000Y-144714250D01*
X187986162Y-144500695D01*
X190671520Y-144500695D01*
X190740822Y-145252938D01*
X190955548Y-145977208D01*
X191307445Y-146645670D01*
X191334452Y-146686088D01*
X191824119Y-147046276D01*
X194345395Y-144525000D01*
X194704605Y-144525000D01*
X197225881Y-147046276D01*
X197715548Y-146686088D01*
X198075849Y-146022118D01*
X198299694Y-145300615D01*
X198378480Y-144549305D01*
X198309178Y-143797062D01*
X198094452Y-143072792D01*
X197742555Y-142404330D01*
X197715548Y-142363912D01*
X197225881Y-142003724D01*
X194704605Y-144525000D01*
X194345395Y-144525000D01*
X191824119Y-142003724D01*
X191334452Y-142363912D01*
X190974151Y-143027882D01*
X190750306Y-143749385D01*
X190671520Y-144500695D01*
X187986162Y-144500695D01*
X187988072Y-144150000D01*
X187975812Y-144025518D01*
X187939502Y-143905820D01*
X187880537Y-143795506D01*
X187801185Y-143698815D01*
X187704494Y-143619463D01*
X187594180Y-143560498D01*
X187474482Y-143524188D01*
X187350000Y-143511928D01*
X186785750Y-143515000D01*
X186627000Y-143673750D01*
X186373000Y-143673750D01*
X186214250Y-143515000D01*
X185650000Y-143511928D01*
X185525518Y-143524188D01*
X185405820Y-143560498D01*
X185295506Y-143619463D01*
X185198815Y-143698815D01*
X185119463Y-143795506D01*
X185060498Y-143905820D01*
X185024188Y-144025518D01*
X185011928Y-144150000D01*
X185013073Y-144360294D01*
X184916180Y-144215283D01*
X184744717Y-144043820D01*
X184543097Y-143909102D01*
X184319069Y-143816307D01*
X184081243Y-143769000D01*
X183838757Y-143769000D01*
X183600931Y-143816307D01*
X183376903Y-143909102D01*
X183175283Y-144043820D01*
X183003820Y-144215283D01*
X182869102Y-144416903D01*
X182776307Y-144640931D01*
X182729000Y-144878757D01*
X109293932Y-144878757D01*
X109328480Y-144549305D01*
X109259178Y-143797062D01*
X109044452Y-143072792D01*
X108692555Y-142404330D01*
X108665548Y-142363912D01*
X108175881Y-142003724D01*
X105654605Y-144525000D01*
X105295395Y-144525000D01*
X102774119Y-142003724D01*
X102284452Y-142363912D01*
X101924151Y-143027882D01*
X101700306Y-143749385D01*
X101621520Y-144500695D01*
X100406000Y-144500695D01*
X100406000Y-141824119D01*
X102953724Y-141824119D01*
X105475000Y-144345395D01*
X107996276Y-141824119D01*
X192003724Y-141824119D01*
X194525000Y-144345395D01*
X197046276Y-141824119D01*
X196686088Y-141334452D01*
X196022118Y-140974151D01*
X195300615Y-140750306D01*
X194549305Y-140671520D01*
X193797062Y-140740822D01*
X193072792Y-140955548D01*
X192404330Y-141307445D01*
X192363912Y-141334452D01*
X192003724Y-141824119D01*
X107996276Y-141824119D01*
X107636088Y-141334452D01*
X106972118Y-140974151D01*
X106250615Y-140750306D01*
X105499305Y-140671520D01*
X104747062Y-140740822D01*
X104022792Y-140955548D01*
X103354330Y-141307445D01*
X103313912Y-141334452D01*
X102953724Y-141824119D01*
X100406000Y-141824119D01*
X100406000Y-128690000D01*
X113067157Y-128690000D01*
X113067157Y-130390000D01*
X113074513Y-130464689D01*
X113096299Y-130536508D01*
X113131678Y-130602696D01*
X113179289Y-130660711D01*
X113237304Y-130708322D01*
X113303492Y-130743701D01*
X113375311Y-130765487D01*
X113450000Y-130772843D01*
X115150000Y-130772843D01*
X115224689Y-130765487D01*
X115296508Y-130743701D01*
X115362696Y-130708322D01*
X115420711Y-130660711D01*
X115468322Y-130602696D01*
X115503701Y-130536508D01*
X115525487Y-130464689D01*
X115532843Y-130390000D01*
X115532843Y-130233367D01*
X115644822Y-130421355D01*
X115839731Y-130637588D01*
X116073080Y-130811641D01*
X116335901Y-130936825D01*
X116483110Y-130981476D01*
X116713000Y-130860155D01*
X116713000Y-129667000D01*
X116693000Y-129667000D01*
X116693000Y-129413000D01*
X116713000Y-129413000D01*
X116713000Y-128219845D01*
X116967000Y-128219845D01*
X116967000Y-129413000D01*
X116987000Y-129413000D01*
X116987000Y-129667000D01*
X116967000Y-129667000D01*
X116967000Y-130860155D01*
X117196890Y-130981476D01*
X117344099Y-130936825D01*
X117606920Y-130811641D01*
X117840269Y-130637588D01*
X118035178Y-130421355D01*
X118184157Y-130171252D01*
X118241772Y-130008832D01*
X118289102Y-130123097D01*
X118423820Y-130324717D01*
X118595283Y-130496180D01*
X118796903Y-130630898D01*
X119020931Y-130723693D01*
X119258757Y-130771000D01*
X119501243Y-130771000D01*
X119739069Y-130723693D01*
X119963097Y-130630898D01*
X120164717Y-130496180D01*
X120336180Y-130324717D01*
X120470898Y-130123097D01*
X120563693Y-129899069D01*
X120611000Y-129661243D01*
X120611000Y-129418757D01*
X120689000Y-129418757D01*
X120689000Y-129661243D01*
X120736307Y-129899069D01*
X120829102Y-130123097D01*
X120963820Y-130324717D01*
X121135283Y-130496180D01*
X121336903Y-130630898D01*
X121560931Y-130723693D01*
X121798757Y-130771000D01*
X122041243Y-130771000D01*
X122279069Y-130723693D01*
X122503097Y-130630898D01*
X122704717Y-130496180D01*
X122876180Y-130324717D01*
X123010898Y-130123097D01*
X123103693Y-129899069D01*
X123151000Y-129661243D01*
X123151000Y-129418757D01*
X123229000Y-129418757D01*
X123229000Y-129661243D01*
X123276307Y-129899069D01*
X123369102Y-130123097D01*
X123503820Y-130324717D01*
X123675283Y-130496180D01*
X123876903Y-130630898D01*
X124100931Y-130723693D01*
X124338757Y-130771000D01*
X124581243Y-130771000D01*
X124819069Y-130723693D01*
X125043097Y-130630898D01*
X125244717Y-130496180D01*
X125416180Y-130324717D01*
X125550898Y-130123097D01*
X125643693Y-129899069D01*
X125691000Y-129661243D01*
X125691000Y-129418757D01*
X125769000Y-129418757D01*
X125769000Y-129661243D01*
X125816307Y-129899069D01*
X125909102Y-130123097D01*
X126043820Y-130324717D01*
X126215283Y-130496180D01*
X126416903Y-130630898D01*
X126640931Y-130723693D01*
X126878757Y-130771000D01*
X127121243Y-130771000D01*
X127359069Y-130723693D01*
X127583097Y-130630898D01*
X127784717Y-130496180D01*
X127956180Y-130324717D01*
X128090898Y-130123097D01*
X128183693Y-129899069D01*
X128231000Y-129661243D01*
X128231000Y-129418757D01*
X128309000Y-129418757D01*
X128309000Y-129661243D01*
X128356307Y-129899069D01*
X128449102Y-130123097D01*
X128583820Y-130324717D01*
X128755283Y-130496180D01*
X128956903Y-130630898D01*
X129180931Y-130723693D01*
X129418757Y-130771000D01*
X129661243Y-130771000D01*
X129899069Y-130723693D01*
X130123097Y-130630898D01*
X130324717Y-130496180D01*
X130496180Y-130324717D01*
X130630898Y-130123097D01*
X130723693Y-129899069D01*
X130771000Y-129661243D01*
X130771000Y-129423682D01*
X146139000Y-129423682D01*
X146139000Y-129656318D01*
X146184386Y-129884485D01*
X146273412Y-130099413D01*
X146402658Y-130292843D01*
X146567157Y-130457342D01*
X146760587Y-130586588D01*
X146975515Y-130675614D01*
X147203682Y-130721000D01*
X147436318Y-130721000D01*
X147664485Y-130675614D01*
X147879413Y-130586588D01*
X148072843Y-130457342D01*
X148237342Y-130292843D01*
X148366588Y-130099413D01*
X148455614Y-129884485D01*
X148501000Y-129656318D01*
X148501000Y-129423682D01*
X148679000Y-129423682D01*
X148679000Y-129656318D01*
X148724386Y-129884485D01*
X148813412Y-130099413D01*
X148942658Y-130292843D01*
X149107157Y-130457342D01*
X149300587Y-130586588D01*
X149515515Y-130675614D01*
X149743682Y-130721000D01*
X149976318Y-130721000D01*
X150204485Y-130675614D01*
X150419413Y-130586588D01*
X150612843Y-130457342D01*
X150777342Y-130292843D01*
X150906588Y-130099413D01*
X150995614Y-129884485D01*
X151041000Y-129656318D01*
X151041000Y-129423682D01*
X151219000Y-129423682D01*
X151219000Y-129656318D01*
X151264386Y-129884485D01*
X151353412Y-130099413D01*
X151482658Y-130292843D01*
X151647157Y-130457342D01*
X151840587Y-130586588D01*
X152055515Y-130675614D01*
X152283682Y-130721000D01*
X152516318Y-130721000D01*
X152744485Y-130675614D01*
X152959413Y-130586588D01*
X153152843Y-130457342D01*
X153317342Y-130292843D01*
X153446588Y-130099413D01*
X153535614Y-129884485D01*
X153581000Y-129656318D01*
X153581000Y-129423682D01*
X153759000Y-129423682D01*
X153759000Y-129656318D01*
X153804386Y-129884485D01*
X153893412Y-130099413D01*
X154022658Y-130292843D01*
X154187157Y-130457342D01*
X154380587Y-130586588D01*
X154595515Y-130675614D01*
X154823682Y-130721000D01*
X155056318Y-130721000D01*
X155284485Y-130675614D01*
X155499413Y-130586588D01*
X155692843Y-130457342D01*
X155857342Y-130292843D01*
X155986588Y-130099413D01*
X156075614Y-129884485D01*
X156121000Y-129656318D01*
X156121000Y-129423682D01*
X156299000Y-129423682D01*
X156299000Y-129656318D01*
X156344386Y-129884485D01*
X156433412Y-130099413D01*
X156562658Y-130292843D01*
X156727157Y-130457342D01*
X156920587Y-130586588D01*
X157135515Y-130675614D01*
X157363682Y-130721000D01*
X157596318Y-130721000D01*
X157824485Y-130675614D01*
X158039413Y-130586588D01*
X158232843Y-130457342D01*
X158397342Y-130292843D01*
X158526588Y-130099413D01*
X158615614Y-129884485D01*
X158661000Y-129656318D01*
X158661000Y-129423682D01*
X158839000Y-129423682D01*
X158839000Y-129656318D01*
X158884386Y-129884485D01*
X158973412Y-130099413D01*
X159102658Y-130292843D01*
X159267157Y-130457342D01*
X159460587Y-130586588D01*
X159675515Y-130675614D01*
X159903682Y-130721000D01*
X160136318Y-130721000D01*
X160364485Y-130675614D01*
X160579413Y-130586588D01*
X160772843Y-130457342D01*
X160937342Y-130292843D01*
X161066588Y-130099413D01*
X161155614Y-129884485D01*
X161201000Y-129656318D01*
X161201000Y-129423682D01*
X161379000Y-129423682D01*
X161379000Y-129656318D01*
X161424386Y-129884485D01*
X161513412Y-130099413D01*
X161642658Y-130292843D01*
X161807157Y-130457342D01*
X162000587Y-130586588D01*
X162054000Y-130608713D01*
X162054001Y-132055144D01*
X162051553Y-132080000D01*
X162061322Y-132179192D01*
X162090255Y-132274574D01*
X162090256Y-132274575D01*
X162137242Y-132362479D01*
X162200474Y-132439527D01*
X162219781Y-132455372D01*
X164724628Y-134960220D01*
X164740473Y-134979527D01*
X164817521Y-135042759D01*
X164905425Y-135089745D01*
X164978607Y-135111944D01*
X165000806Y-135118678D01*
X165010694Y-135119652D01*
X165075146Y-135126000D01*
X165075153Y-135126000D01*
X165099999Y-135128447D01*
X165124845Y-135126000D01*
X189020409Y-135126000D01*
X191394628Y-137500220D01*
X191410473Y-137519527D01*
X191487521Y-137582759D01*
X191575425Y-137629745D01*
X191648607Y-137651944D01*
X191670806Y-137658678D01*
X191680694Y-137659652D01*
X191745146Y-137666000D01*
X191745153Y-137666000D01*
X191769999Y-137668447D01*
X191794845Y-137666000D01*
X193537168Y-137666000D01*
X193569102Y-137743097D01*
X193703820Y-137944717D01*
X193875283Y-138116180D01*
X194076903Y-138250898D01*
X194300931Y-138343693D01*
X194538757Y-138391000D01*
X194781243Y-138391000D01*
X195019069Y-138343693D01*
X195243097Y-138250898D01*
X195444717Y-138116180D01*
X195616180Y-137944717D01*
X195750898Y-137743097D01*
X195843693Y-137519069D01*
X195891000Y-137281243D01*
X195891000Y-137038757D01*
X195843693Y-136800931D01*
X195750898Y-136576903D01*
X195616180Y-136375283D01*
X195444717Y-136203820D01*
X195299706Y-136106927D01*
X195510000Y-136108072D01*
X195634482Y-136095812D01*
X195754180Y-136059502D01*
X195864494Y-136000537D01*
X195961185Y-135921185D01*
X196040537Y-135824494D01*
X196099502Y-135714180D01*
X196135812Y-135594482D01*
X196148072Y-135470000D01*
X196145000Y-134905750D01*
X195986250Y-134747000D01*
X194787000Y-134747000D01*
X194787000Y-134767000D01*
X194533000Y-134767000D01*
X194533000Y-134747000D01*
X193333750Y-134747000D01*
X193175000Y-134905750D01*
X193171928Y-135470000D01*
X193184188Y-135594482D01*
X193220498Y-135714180D01*
X193279463Y-135824494D01*
X193358815Y-135921185D01*
X193455506Y-136000537D01*
X193565820Y-136059502D01*
X193685518Y-136095812D01*
X193810000Y-136108072D01*
X194020294Y-136106927D01*
X193875283Y-136203820D01*
X193703820Y-136375283D01*
X193569102Y-136576903D01*
X193537168Y-136654000D01*
X191979592Y-136654000D01*
X189605376Y-134279785D01*
X189589527Y-134260473D01*
X189512479Y-134197241D01*
X189424575Y-134150255D01*
X189329193Y-134121322D01*
X189254854Y-134114000D01*
X189254846Y-134114000D01*
X189230000Y-134111553D01*
X189205154Y-134114000D01*
X165309592Y-134114000D01*
X164965592Y-133770000D01*
X193171928Y-133770000D01*
X193175000Y-134334250D01*
X193333750Y-134493000D01*
X194533000Y-134493000D01*
X194533000Y-133293750D01*
X194787000Y-133293750D01*
X194787000Y-134493000D01*
X195986250Y-134493000D01*
X196145000Y-134334250D01*
X196148072Y-133770000D01*
X196135812Y-133645518D01*
X196099502Y-133525820D01*
X196040537Y-133415506D01*
X195961185Y-133318815D01*
X195864494Y-133239463D01*
X195754180Y-133180498D01*
X195634482Y-133144188D01*
X195510000Y-133131928D01*
X194945750Y-133135000D01*
X194787000Y-133293750D01*
X194533000Y-133293750D01*
X194374250Y-133135000D01*
X193810000Y-133131928D01*
X193685518Y-133144188D01*
X193565820Y-133180498D01*
X193455506Y-133239463D01*
X193358815Y-133318815D01*
X193279463Y-133415506D01*
X193220498Y-133525820D01*
X193184188Y-133645518D01*
X193171928Y-133770000D01*
X164965592Y-133770000D01*
X163066000Y-131870409D01*
X163066000Y-130608712D01*
X163119413Y-130586588D01*
X163312843Y-130457342D01*
X163477342Y-130292843D01*
X163606588Y-130099413D01*
X163695614Y-129884485D01*
X163741000Y-129656318D01*
X163741000Y-129423682D01*
X163695614Y-129195515D01*
X163606588Y-128980587D01*
X163477342Y-128787157D01*
X163312843Y-128622658D01*
X163119413Y-128493412D01*
X162904485Y-128404386D01*
X162676318Y-128359000D01*
X162443682Y-128359000D01*
X162215515Y-128404386D01*
X162000587Y-128493412D01*
X161807157Y-128622658D01*
X161642658Y-128787157D01*
X161513412Y-128980587D01*
X161424386Y-129195515D01*
X161379000Y-129423682D01*
X161201000Y-129423682D01*
X161155614Y-129195515D01*
X161066588Y-128980587D01*
X160937342Y-128787157D01*
X160772843Y-128622658D01*
X160579413Y-128493412D01*
X160364485Y-128404386D01*
X160136318Y-128359000D01*
X159903682Y-128359000D01*
X159675515Y-128404386D01*
X159460587Y-128493412D01*
X159267157Y-128622658D01*
X159102658Y-128787157D01*
X158973412Y-128980587D01*
X158884386Y-129195515D01*
X158839000Y-129423682D01*
X158661000Y-129423682D01*
X158615614Y-129195515D01*
X158526588Y-128980587D01*
X158397342Y-128787157D01*
X158232843Y-128622658D01*
X158039413Y-128493412D01*
X157824485Y-128404386D01*
X157596318Y-128359000D01*
X157363682Y-128359000D01*
X157135515Y-128404386D01*
X156920587Y-128493412D01*
X156727157Y-128622658D01*
X156562658Y-128787157D01*
X156433412Y-128980587D01*
X156344386Y-129195515D01*
X156299000Y-129423682D01*
X156121000Y-129423682D01*
X156075614Y-129195515D01*
X155986588Y-128980587D01*
X155857342Y-128787157D01*
X155692843Y-128622658D01*
X155499413Y-128493412D01*
X155284485Y-128404386D01*
X155056318Y-128359000D01*
X154823682Y-128359000D01*
X154595515Y-128404386D01*
X154380587Y-128493412D01*
X154187157Y-128622658D01*
X154022658Y-128787157D01*
X153893412Y-128980587D01*
X153804386Y-129195515D01*
X153759000Y-129423682D01*
X153581000Y-129423682D01*
X153535614Y-129195515D01*
X153446588Y-128980587D01*
X153317342Y-128787157D01*
X153152843Y-128622658D01*
X152959413Y-128493412D01*
X152744485Y-128404386D01*
X152516318Y-128359000D01*
X152283682Y-128359000D01*
X152055515Y-128404386D01*
X151840587Y-128493412D01*
X151647157Y-128622658D01*
X151482658Y-128787157D01*
X151353412Y-128980587D01*
X151264386Y-129195515D01*
X151219000Y-129423682D01*
X151041000Y-129423682D01*
X150995614Y-129195515D01*
X150906588Y-128980587D01*
X150777342Y-128787157D01*
X150612843Y-128622658D01*
X150419413Y-128493412D01*
X150204485Y-128404386D01*
X149976318Y-128359000D01*
X149743682Y-128359000D01*
X149515515Y-128404386D01*
X149300587Y-128493412D01*
X149107157Y-128622658D01*
X148942658Y-128787157D01*
X148813412Y-128980587D01*
X148724386Y-129195515D01*
X148679000Y-129423682D01*
X148501000Y-129423682D01*
X148455614Y-129195515D01*
X148366588Y-128980587D01*
X148237342Y-128787157D01*
X148072843Y-128622658D01*
X147879413Y-128493412D01*
X147664485Y-128404386D01*
X147436318Y-128359000D01*
X147203682Y-128359000D01*
X146975515Y-128404386D01*
X146760587Y-128493412D01*
X146567157Y-128622658D01*
X146402658Y-128787157D01*
X146273412Y-128980587D01*
X146184386Y-129195515D01*
X146139000Y-129423682D01*
X130771000Y-129423682D01*
X130771000Y-129418757D01*
X130723693Y-129180931D01*
X130630898Y-128956903D01*
X130496180Y-128755283D01*
X130324717Y-128583820D01*
X130123097Y-128449102D01*
X129899069Y-128356307D01*
X129661243Y-128309000D01*
X129418757Y-128309000D01*
X129180931Y-128356307D01*
X128956903Y-128449102D01*
X128755283Y-128583820D01*
X128583820Y-128755283D01*
X128449102Y-128956903D01*
X128356307Y-129180931D01*
X128309000Y-129418757D01*
X128231000Y-129418757D01*
X128183693Y-129180931D01*
X128090898Y-128956903D01*
X127956180Y-128755283D01*
X127784717Y-128583820D01*
X127583097Y-128449102D01*
X127359069Y-128356307D01*
X127121243Y-128309000D01*
X126878757Y-128309000D01*
X126640931Y-128356307D01*
X126416903Y-128449102D01*
X126215283Y-128583820D01*
X126043820Y-128755283D01*
X125909102Y-128956903D01*
X125816307Y-129180931D01*
X125769000Y-129418757D01*
X125691000Y-129418757D01*
X125643693Y-129180931D01*
X125550898Y-128956903D01*
X125416180Y-128755283D01*
X125244717Y-128583820D01*
X125043097Y-128449102D01*
X124819069Y-128356307D01*
X124581243Y-128309000D01*
X124338757Y-128309000D01*
X124100931Y-128356307D01*
X123876903Y-128449102D01*
X123675283Y-128583820D01*
X123503820Y-128755283D01*
X123369102Y-128956903D01*
X123276307Y-129180931D01*
X123229000Y-129418757D01*
X123151000Y-129418757D01*
X123103693Y-129180931D01*
X123010898Y-128956903D01*
X122876180Y-128755283D01*
X122704717Y-128583820D01*
X122503097Y-128449102D01*
X122279069Y-128356307D01*
X122041243Y-128309000D01*
X121798757Y-128309000D01*
X121560931Y-128356307D01*
X121336903Y-128449102D01*
X121135283Y-128583820D01*
X120963820Y-128755283D01*
X120829102Y-128956903D01*
X120736307Y-129180931D01*
X120689000Y-129418757D01*
X120611000Y-129418757D01*
X120563693Y-129180931D01*
X120470898Y-128956903D01*
X120336180Y-128755283D01*
X120164717Y-128583820D01*
X119963097Y-128449102D01*
X119739069Y-128356307D01*
X119501243Y-128309000D01*
X119258757Y-128309000D01*
X119020931Y-128356307D01*
X118796903Y-128449102D01*
X118595283Y-128583820D01*
X118423820Y-128755283D01*
X118289102Y-128956903D01*
X118241772Y-129071168D01*
X118184157Y-128908748D01*
X118035178Y-128658645D01*
X117840269Y-128442412D01*
X117606920Y-128268359D01*
X117344099Y-128143175D01*
X117196890Y-128098524D01*
X116967000Y-128219845D01*
X116713000Y-128219845D01*
X116483110Y-128098524D01*
X116335901Y-128143175D01*
X116073080Y-128268359D01*
X115839731Y-128442412D01*
X115644822Y-128658645D01*
X115532843Y-128846633D01*
X115532843Y-128690000D01*
X115525487Y-128615311D01*
X115503701Y-128543492D01*
X115468322Y-128477304D01*
X115420711Y-128419289D01*
X115362696Y-128371678D01*
X115296508Y-128336299D01*
X115224689Y-128314513D01*
X115150000Y-128307157D01*
X113450000Y-128307157D01*
X113375311Y-128314513D01*
X113303492Y-128336299D01*
X113237304Y-128371678D01*
X113179289Y-128419289D01*
X113131678Y-128477304D01*
X113096299Y-128543492D01*
X113074513Y-128615311D01*
X113067157Y-128690000D01*
X100406000Y-128690000D01*
X100406000Y-126923078D01*
X126219000Y-126923078D01*
X126219000Y-127076922D01*
X126249013Y-127227809D01*
X126307887Y-127369942D01*
X126393358Y-127497859D01*
X126502141Y-127606642D01*
X126630058Y-127692113D01*
X126772191Y-127750987D01*
X126923078Y-127781000D01*
X127076922Y-127781000D01*
X127227809Y-127750987D01*
X127369942Y-127692113D01*
X127497859Y-127606642D01*
X127598501Y-127506000D01*
X163620409Y-127506000D01*
X164588128Y-128473720D01*
X164540587Y-128493412D01*
X164347157Y-128622658D01*
X164182658Y-128787157D01*
X164053412Y-128980587D01*
X163964386Y-129195515D01*
X163919000Y-129423682D01*
X163919000Y-129656318D01*
X163964386Y-129884485D01*
X164053412Y-130099413D01*
X164182658Y-130292843D01*
X164347157Y-130457342D01*
X164540587Y-130586588D01*
X164755515Y-130675614D01*
X164983682Y-130721000D01*
X165216318Y-130721000D01*
X165444485Y-130675614D01*
X165659413Y-130586588D01*
X165852843Y-130457342D01*
X166017342Y-130292843D01*
X166146588Y-130099413D01*
X166235614Y-129884485D01*
X166281000Y-129656318D01*
X166281000Y-129423682D01*
X166459000Y-129423682D01*
X166459000Y-129656318D01*
X166504386Y-129884485D01*
X166593412Y-130099413D01*
X166722658Y-130292843D01*
X166887157Y-130457342D01*
X167080587Y-130586588D01*
X167295515Y-130675614D01*
X167523682Y-130721000D01*
X167756318Y-130721000D01*
X167984485Y-130675614D01*
X168199413Y-130586588D01*
X168392843Y-130457342D01*
X168557342Y-130292843D01*
X168686588Y-130099413D01*
X168775614Y-129884485D01*
X168821000Y-129656318D01*
X168821000Y-129423682D01*
X168999000Y-129423682D01*
X168999000Y-129656318D01*
X169044386Y-129884485D01*
X169133412Y-130099413D01*
X169262658Y-130292843D01*
X169427157Y-130457342D01*
X169620587Y-130586588D01*
X169835515Y-130675614D01*
X170063682Y-130721000D01*
X170296318Y-130721000D01*
X170524485Y-130675614D01*
X170739413Y-130586588D01*
X170932843Y-130457342D01*
X171097342Y-130292843D01*
X171226588Y-130099413D01*
X171315614Y-129884485D01*
X171361000Y-129656318D01*
X171361000Y-129423682D01*
X171539000Y-129423682D01*
X171539000Y-129656318D01*
X171584386Y-129884485D01*
X171673412Y-130099413D01*
X171802658Y-130292843D01*
X171967157Y-130457342D01*
X172160587Y-130586588D01*
X172375515Y-130675614D01*
X172603682Y-130721000D01*
X172836318Y-130721000D01*
X173064485Y-130675614D01*
X173279413Y-130586588D01*
X173472843Y-130457342D01*
X173637342Y-130292843D01*
X173766588Y-130099413D01*
X173855614Y-129884485D01*
X173901000Y-129656318D01*
X173901000Y-129423682D01*
X174079000Y-129423682D01*
X174079000Y-129656318D01*
X174124386Y-129884485D01*
X174213412Y-130099413D01*
X174342658Y-130292843D01*
X174507157Y-130457342D01*
X174700587Y-130586588D01*
X174915515Y-130675614D01*
X175143682Y-130721000D01*
X175376318Y-130721000D01*
X175604485Y-130675614D01*
X175819413Y-130586588D01*
X176012843Y-130457342D01*
X176177342Y-130292843D01*
X176306588Y-130099413D01*
X176395614Y-129884485D01*
X176441000Y-129656318D01*
X176441000Y-129423682D01*
X176619000Y-129423682D01*
X176619000Y-129656318D01*
X176664386Y-129884485D01*
X176753412Y-130099413D01*
X176882658Y-130292843D01*
X177047157Y-130457342D01*
X177240587Y-130586588D01*
X177455515Y-130675614D01*
X177683682Y-130721000D01*
X177916318Y-130721000D01*
X178144485Y-130675614D01*
X178359413Y-130586588D01*
X178552843Y-130457342D01*
X178717342Y-130292843D01*
X178846588Y-130099413D01*
X178935614Y-129884485D01*
X178978875Y-129667002D01*
X179069375Y-129667002D01*
X178948091Y-129889040D01*
X179042930Y-130153881D01*
X179187615Y-130395131D01*
X179376586Y-130603519D01*
X179602580Y-130771037D01*
X179856913Y-130891246D01*
X179990961Y-130931904D01*
X180213000Y-130809915D01*
X180213000Y-129667000D01*
X180193000Y-129667000D01*
X180193000Y-129413000D01*
X180213000Y-129413000D01*
X180213000Y-128270085D01*
X180467000Y-128270085D01*
X180467000Y-129413000D01*
X180487000Y-129413000D01*
X180487000Y-129667000D01*
X180467000Y-129667000D01*
X180467000Y-130809915D01*
X180689039Y-130931904D01*
X180823087Y-130891246D01*
X181077420Y-130771037D01*
X181303414Y-130603519D01*
X181492385Y-130395131D01*
X181637070Y-130153881D01*
X181731909Y-129889040D01*
X181610625Y-129667002D01*
X181701125Y-129667002D01*
X181744386Y-129884485D01*
X181833412Y-130099413D01*
X181962658Y-130292843D01*
X182127157Y-130457342D01*
X182320587Y-130586588D01*
X182535515Y-130675614D01*
X182763682Y-130721000D01*
X182996318Y-130721000D01*
X183224485Y-130675614D01*
X183439413Y-130586588D01*
X183632843Y-130457342D01*
X183797342Y-130292843D01*
X183926588Y-130099413D01*
X184015614Y-129884485D01*
X184061000Y-129656318D01*
X184061000Y-129423682D01*
X184015614Y-129195515D01*
X183926588Y-128980587D01*
X183797342Y-128787157D01*
X183632843Y-128622658D01*
X183439413Y-128493412D01*
X183224485Y-128404386D01*
X182996318Y-128359000D01*
X182763682Y-128359000D01*
X182535515Y-128404386D01*
X182320587Y-128493412D01*
X182127157Y-128622658D01*
X181962658Y-128787157D01*
X181833412Y-128980587D01*
X181744386Y-129195515D01*
X181701125Y-129412998D01*
X181610625Y-129412998D01*
X181731909Y-129190960D01*
X181637070Y-128926119D01*
X181492385Y-128684869D01*
X181303414Y-128476481D01*
X181077420Y-128308963D01*
X180823087Y-128188754D01*
X180689039Y-128148096D01*
X180467000Y-128270085D01*
X180213000Y-128270085D01*
X179990961Y-128148096D01*
X179856913Y-128188754D01*
X179602580Y-128308963D01*
X179376586Y-128476481D01*
X179187615Y-128684869D01*
X179042930Y-128926119D01*
X178948091Y-129190960D01*
X179069375Y-129412998D01*
X178978875Y-129412998D01*
X178935614Y-129195515D01*
X178846588Y-128980587D01*
X178717342Y-128787157D01*
X178552843Y-128622658D01*
X178359413Y-128493412D01*
X178144485Y-128404386D01*
X177916318Y-128359000D01*
X177683682Y-128359000D01*
X177455515Y-128404386D01*
X177240587Y-128493412D01*
X177047157Y-128622658D01*
X176882658Y-128787157D01*
X176753412Y-128980587D01*
X176664386Y-129195515D01*
X176619000Y-129423682D01*
X176441000Y-129423682D01*
X176395614Y-129195515D01*
X176306588Y-128980587D01*
X176177342Y-128787157D01*
X176012843Y-128622658D01*
X175819413Y-128493412D01*
X175604485Y-128404386D01*
X175376318Y-128359000D01*
X175143682Y-128359000D01*
X174915515Y-128404386D01*
X174700587Y-128493412D01*
X174507157Y-128622658D01*
X174342658Y-128787157D01*
X174213412Y-128980587D01*
X174124386Y-129195515D01*
X174079000Y-129423682D01*
X173901000Y-129423682D01*
X173855614Y-129195515D01*
X173766588Y-128980587D01*
X173637342Y-128787157D01*
X173472843Y-128622658D01*
X173279413Y-128493412D01*
X173064485Y-128404386D01*
X172836318Y-128359000D01*
X172603682Y-128359000D01*
X172375515Y-128404386D01*
X172160587Y-128493412D01*
X171967157Y-128622658D01*
X171802658Y-128787157D01*
X171673412Y-128980587D01*
X171584386Y-129195515D01*
X171539000Y-129423682D01*
X171361000Y-129423682D01*
X171315614Y-129195515D01*
X171226588Y-128980587D01*
X171097342Y-128787157D01*
X170932843Y-128622658D01*
X170739413Y-128493412D01*
X170524485Y-128404386D01*
X170296318Y-128359000D01*
X170063682Y-128359000D01*
X169835515Y-128404386D01*
X169620587Y-128493412D01*
X169427157Y-128622658D01*
X169262658Y-128787157D01*
X169133412Y-128980587D01*
X169044386Y-129195515D01*
X168999000Y-129423682D01*
X168821000Y-129423682D01*
X168775614Y-129195515D01*
X168686588Y-128980587D01*
X168557342Y-128787157D01*
X168392843Y-128622658D01*
X168199413Y-128493412D01*
X167984485Y-128404386D01*
X167756318Y-128359000D01*
X167523682Y-128359000D01*
X167295515Y-128404386D01*
X167080587Y-128493412D01*
X166887157Y-128622658D01*
X166722658Y-128787157D01*
X166593412Y-128980587D01*
X166504386Y-129195515D01*
X166459000Y-129423682D01*
X166281000Y-129423682D01*
X166235614Y-129195515D01*
X166146588Y-128980587D01*
X166017342Y-128787157D01*
X165852843Y-128622658D01*
X165659413Y-128493412D01*
X165606000Y-128471288D01*
X165606000Y-128294845D01*
X165608447Y-128269999D01*
X165606000Y-128245153D01*
X165606000Y-128245146D01*
X165598678Y-128170807D01*
X165569745Y-128075425D01*
X165522759Y-127987521D01*
X165459527Y-127910473D01*
X165440220Y-127894628D01*
X164205376Y-126659785D01*
X164189527Y-126640473D01*
X164112479Y-126577241D01*
X164024575Y-126530255D01*
X163929193Y-126501322D01*
X163854854Y-126494000D01*
X163854846Y-126494000D01*
X163830000Y-126491553D01*
X163805154Y-126494000D01*
X127598501Y-126494000D01*
X127497859Y-126393358D01*
X127369942Y-126307887D01*
X127227809Y-126249013D01*
X127076922Y-126219000D01*
X126923078Y-126219000D01*
X126772191Y-126249013D01*
X126630058Y-126307887D01*
X126502141Y-126393358D01*
X126393358Y-126502141D01*
X126307887Y-126630058D01*
X126249013Y-126772191D01*
X126219000Y-126923078D01*
X100406000Y-126923078D01*
X100406000Y-123498757D01*
X104269000Y-123498757D01*
X104269000Y-123741243D01*
X104316307Y-123979069D01*
X104409102Y-124203097D01*
X104543820Y-124404717D01*
X104715283Y-124576180D01*
X104916903Y-124710898D01*
X105140931Y-124803693D01*
X105378757Y-124851000D01*
X105621243Y-124851000D01*
X105859069Y-124803693D01*
X106083097Y-124710898D01*
X106284717Y-124576180D01*
X106456180Y-124404717D01*
X106590898Y-124203097D01*
X106683693Y-123979069D01*
X106731000Y-123741243D01*
X106731000Y-123498757D01*
X106683693Y-123260931D01*
X106622451Y-123113078D01*
X161779000Y-123113078D01*
X161779000Y-123266922D01*
X161809013Y-123417809D01*
X161867887Y-123559942D01*
X161953358Y-123687859D01*
X162054001Y-123788502D01*
X162054000Y-124435153D01*
X162051553Y-124460000D01*
X162054000Y-124484846D01*
X162054000Y-124484853D01*
X162061322Y-124559192D01*
X162090255Y-124654574D01*
X162137241Y-124742479D01*
X162200473Y-124819527D01*
X162219785Y-124835376D01*
X163454628Y-126070220D01*
X163470473Y-126089527D01*
X163547521Y-126152759D01*
X163635425Y-126199745D01*
X163730806Y-126228678D01*
X163740694Y-126229652D01*
X163805146Y-126236000D01*
X163805153Y-126236000D01*
X163829999Y-126238447D01*
X163854845Y-126236000D01*
X183940409Y-126236000D01*
X188854628Y-131150220D01*
X188870473Y-131169527D01*
X188947521Y-131232759D01*
X189035425Y-131279745D01*
X189130807Y-131308678D01*
X189230000Y-131318448D01*
X189254854Y-131316000D01*
X193537168Y-131316000D01*
X193569102Y-131393097D01*
X193703820Y-131594717D01*
X193875283Y-131766180D01*
X194076903Y-131900898D01*
X194300931Y-131993693D01*
X194538757Y-132041000D01*
X194781243Y-132041000D01*
X195019069Y-131993693D01*
X195243097Y-131900898D01*
X195444717Y-131766180D01*
X195616180Y-131594717D01*
X195750898Y-131393097D01*
X195843693Y-131169069D01*
X195891000Y-130931243D01*
X195891000Y-130688757D01*
X195843693Y-130450931D01*
X195750898Y-130226903D01*
X195616180Y-130025283D01*
X195444717Y-129853820D01*
X195299706Y-129756927D01*
X195510000Y-129758072D01*
X195634482Y-129745812D01*
X195754180Y-129709502D01*
X195864494Y-129650537D01*
X195961185Y-129571185D01*
X196040537Y-129474494D01*
X196099502Y-129364180D01*
X196135812Y-129244482D01*
X196148072Y-129120000D01*
X196145000Y-128555750D01*
X195986250Y-128397000D01*
X194787000Y-128397000D01*
X194787000Y-128417000D01*
X194533000Y-128417000D01*
X194533000Y-128397000D01*
X193333750Y-128397000D01*
X193175000Y-128555750D01*
X193171928Y-129120000D01*
X193184188Y-129244482D01*
X193220498Y-129364180D01*
X193279463Y-129474494D01*
X193358815Y-129571185D01*
X193455506Y-129650537D01*
X193565820Y-129709502D01*
X193685518Y-129745812D01*
X193810000Y-129758072D01*
X194020294Y-129756927D01*
X193875283Y-129853820D01*
X193703820Y-130025283D01*
X193569102Y-130226903D01*
X193537168Y-130304000D01*
X189439592Y-130304000D01*
X186555592Y-127420000D01*
X193171928Y-127420000D01*
X193175000Y-127984250D01*
X193333750Y-128143000D01*
X194533000Y-128143000D01*
X194533000Y-126943750D01*
X194787000Y-126943750D01*
X194787000Y-128143000D01*
X195986250Y-128143000D01*
X196145000Y-127984250D01*
X196148072Y-127420000D01*
X196135812Y-127295518D01*
X196099502Y-127175820D01*
X196040537Y-127065506D01*
X195961185Y-126968815D01*
X195864494Y-126889463D01*
X195754180Y-126830498D01*
X195634482Y-126794188D01*
X195510000Y-126781928D01*
X194945750Y-126785000D01*
X194787000Y-126943750D01*
X194533000Y-126943750D01*
X194374250Y-126785000D01*
X193810000Y-126781928D01*
X193685518Y-126794188D01*
X193565820Y-126830498D01*
X193455506Y-126889463D01*
X193358815Y-126968815D01*
X193279463Y-127065506D01*
X193220498Y-127175820D01*
X193184188Y-127295518D01*
X193171928Y-127420000D01*
X186555592Y-127420000D01*
X184525376Y-125389785D01*
X184509527Y-125370473D01*
X184432479Y-125307241D01*
X184344575Y-125260255D01*
X184249193Y-125231322D01*
X184174854Y-125224000D01*
X184174846Y-125224000D01*
X184150000Y-125221553D01*
X184125154Y-125224000D01*
X164039592Y-125224000D01*
X163154349Y-124338757D01*
X193429000Y-124338757D01*
X193429000Y-124581243D01*
X193476307Y-124819069D01*
X193569102Y-125043097D01*
X193703820Y-125244717D01*
X193875283Y-125416180D01*
X194076903Y-125550898D01*
X194300931Y-125643693D01*
X194538757Y-125691000D01*
X194781243Y-125691000D01*
X195019069Y-125643693D01*
X195243097Y-125550898D01*
X195444717Y-125416180D01*
X195616180Y-125244717D01*
X195750898Y-125043097D01*
X195843693Y-124819069D01*
X195891000Y-124581243D01*
X195891000Y-124338757D01*
X195843693Y-124100931D01*
X195750898Y-123876903D01*
X195616180Y-123675283D01*
X195444717Y-123503820D01*
X195243097Y-123369102D01*
X195019069Y-123276307D01*
X194781243Y-123229000D01*
X194538757Y-123229000D01*
X194300931Y-123276307D01*
X194076903Y-123369102D01*
X193875283Y-123503820D01*
X193703820Y-123675283D01*
X193569102Y-123876903D01*
X193476307Y-124100931D01*
X193429000Y-124338757D01*
X163154349Y-124338757D01*
X163066000Y-124250409D01*
X163066000Y-123788501D01*
X163166642Y-123687859D01*
X163252113Y-123559942D01*
X163310987Y-123417809D01*
X163341000Y-123266922D01*
X163341000Y-123113078D01*
X163310987Y-122962191D01*
X163252113Y-122820058D01*
X163166642Y-122692141D01*
X163057859Y-122583358D01*
X162929942Y-122497887D01*
X162787809Y-122439013D01*
X162636922Y-122409000D01*
X162483078Y-122409000D01*
X162332191Y-122439013D01*
X162190058Y-122497887D01*
X162062141Y-122583358D01*
X161953358Y-122692141D01*
X161867887Y-122820058D01*
X161809013Y-122962191D01*
X161779000Y-123113078D01*
X106622451Y-123113078D01*
X106590898Y-123036903D01*
X106456180Y-122835283D01*
X106284717Y-122663820D01*
X106083097Y-122529102D01*
X105859069Y-122436307D01*
X105621243Y-122389000D01*
X105378757Y-122389000D01*
X105140931Y-122436307D01*
X104916903Y-122529102D01*
X104715283Y-122663820D01*
X104543820Y-122835283D01*
X104409102Y-123036903D01*
X104316307Y-123260931D01*
X104269000Y-123498757D01*
X100406000Y-123498757D01*
X100406000Y-120958757D01*
X104269000Y-120958757D01*
X104269000Y-121201243D01*
X104316307Y-121439069D01*
X104409102Y-121663097D01*
X104543820Y-121864717D01*
X104715283Y-122036180D01*
X104916903Y-122170898D01*
X105140931Y-122263693D01*
X105378757Y-122311000D01*
X105621243Y-122311000D01*
X105859069Y-122263693D01*
X106083097Y-122170898D01*
X106284717Y-122036180D01*
X106456180Y-121864717D01*
X106590898Y-121663097D01*
X106622832Y-121586000D01*
X178615154Y-121586000D01*
X178640000Y-121588447D01*
X178664846Y-121586000D01*
X178664854Y-121586000D01*
X178739193Y-121578678D01*
X178834575Y-121549745D01*
X178922479Y-121502759D01*
X178999527Y-121439527D01*
X179015376Y-121420215D01*
X180205591Y-120230000D01*
X193171928Y-120230000D01*
X193184188Y-120354482D01*
X193220498Y-120474180D01*
X193279463Y-120584494D01*
X193358815Y-120681185D01*
X193455506Y-120760537D01*
X193565820Y-120819502D01*
X193685518Y-120855812D01*
X193810000Y-120868072D01*
X194020294Y-120866927D01*
X193875283Y-120963820D01*
X193703820Y-121135283D01*
X193569102Y-121336903D01*
X193476307Y-121560931D01*
X193429000Y-121798757D01*
X193429000Y-122041243D01*
X193476307Y-122279069D01*
X193569102Y-122503097D01*
X193703820Y-122704717D01*
X193875283Y-122876180D01*
X194076903Y-123010898D01*
X194300931Y-123103693D01*
X194538757Y-123151000D01*
X194781243Y-123151000D01*
X195019069Y-123103693D01*
X195243097Y-123010898D01*
X195444717Y-122876180D01*
X195616180Y-122704717D01*
X195750898Y-122503097D01*
X195843693Y-122279069D01*
X195891000Y-122041243D01*
X195891000Y-121798757D01*
X195843693Y-121560931D01*
X195750898Y-121336903D01*
X195616180Y-121135283D01*
X195444717Y-120963820D01*
X195299706Y-120866927D01*
X195510000Y-120868072D01*
X195634482Y-120855812D01*
X195754180Y-120819502D01*
X195864494Y-120760537D01*
X195961185Y-120681185D01*
X196040537Y-120584494D01*
X196099502Y-120474180D01*
X196135812Y-120354482D01*
X196148072Y-120230000D01*
X196145000Y-119665750D01*
X195986250Y-119507000D01*
X194787000Y-119507000D01*
X194787000Y-119527000D01*
X194533000Y-119527000D01*
X194533000Y-119507000D01*
X193333750Y-119507000D01*
X193175000Y-119665750D01*
X193171928Y-120230000D01*
X180205591Y-120230000D01*
X180680220Y-119755372D01*
X180699527Y-119739527D01*
X180762759Y-119662479D01*
X180809745Y-119574575D01*
X180838678Y-119479193D01*
X180846000Y-119404854D01*
X180846000Y-119404847D01*
X180848447Y-119380001D01*
X180846000Y-119355155D01*
X180846000Y-118530000D01*
X193171928Y-118530000D01*
X193175000Y-119094250D01*
X193333750Y-119253000D01*
X194533000Y-119253000D01*
X194533000Y-118053750D01*
X194787000Y-118053750D01*
X194787000Y-119253000D01*
X195986250Y-119253000D01*
X196145000Y-119094250D01*
X196148072Y-118530000D01*
X196135812Y-118405518D01*
X196099502Y-118285820D01*
X196040537Y-118175506D01*
X195961185Y-118078815D01*
X195864494Y-117999463D01*
X195754180Y-117940498D01*
X195634482Y-117904188D01*
X195510000Y-117891928D01*
X194945750Y-117895000D01*
X194787000Y-118053750D01*
X194533000Y-118053750D01*
X194374250Y-117895000D01*
X193810000Y-117891928D01*
X193685518Y-117904188D01*
X193565820Y-117940498D01*
X193455506Y-117999463D01*
X193358815Y-118078815D01*
X193279463Y-118175506D01*
X193220498Y-118285820D01*
X193184188Y-118405518D01*
X193171928Y-118530000D01*
X180846000Y-118530000D01*
X180846000Y-115368712D01*
X180899413Y-115346588D01*
X181092843Y-115217342D01*
X181257342Y-115052843D01*
X181386588Y-114859413D01*
X181475614Y-114644485D01*
X181521000Y-114416318D01*
X181521000Y-114183682D01*
X181475614Y-113955515D01*
X181386588Y-113740587D01*
X181257342Y-113547157D01*
X181210185Y-113500000D01*
X181697157Y-113500000D01*
X181697157Y-115100000D01*
X181704513Y-115174689D01*
X181726299Y-115246508D01*
X181761678Y-115312696D01*
X181809289Y-115370711D01*
X181867304Y-115418322D01*
X181933492Y-115453701D01*
X182005311Y-115475487D01*
X182080000Y-115482843D01*
X183680000Y-115482843D01*
X183754689Y-115475487D01*
X183826508Y-115453701D01*
X183892696Y-115418322D01*
X183950711Y-115370711D01*
X183998322Y-115312696D01*
X184033701Y-115246508D01*
X184055487Y-115174689D01*
X184062843Y-115100000D01*
X184062843Y-113880000D01*
X193171928Y-113880000D01*
X193184188Y-114004482D01*
X193220498Y-114124180D01*
X193279463Y-114234494D01*
X193358815Y-114331185D01*
X193455506Y-114410537D01*
X193565820Y-114469502D01*
X193685518Y-114505812D01*
X193810000Y-114518072D01*
X194020294Y-114516927D01*
X193875283Y-114613820D01*
X193703820Y-114785283D01*
X193569102Y-114986903D01*
X193476307Y-115210931D01*
X193429000Y-115448757D01*
X193429000Y-115691243D01*
X193476307Y-115929069D01*
X193569102Y-116153097D01*
X193703820Y-116354717D01*
X193875283Y-116526180D01*
X194076903Y-116660898D01*
X194300931Y-116753693D01*
X194538757Y-116801000D01*
X194781243Y-116801000D01*
X195019069Y-116753693D01*
X195243097Y-116660898D01*
X195444717Y-116526180D01*
X195616180Y-116354717D01*
X195750898Y-116153097D01*
X195843693Y-115929069D01*
X195891000Y-115691243D01*
X195891000Y-115448757D01*
X195843693Y-115210931D01*
X195750898Y-114986903D01*
X195616180Y-114785283D01*
X195444717Y-114613820D01*
X195299706Y-114516927D01*
X195510000Y-114518072D01*
X195634482Y-114505812D01*
X195754180Y-114469502D01*
X195864494Y-114410537D01*
X195961185Y-114331185D01*
X196040537Y-114234494D01*
X196099502Y-114124180D01*
X196135812Y-114004482D01*
X196148072Y-113880000D01*
X196145000Y-113315750D01*
X195986250Y-113157000D01*
X194787000Y-113157000D01*
X194787000Y-113177000D01*
X194533000Y-113177000D01*
X194533000Y-113157000D01*
X193333750Y-113157000D01*
X193175000Y-113315750D01*
X193171928Y-113880000D01*
X184062843Y-113880000D01*
X184062843Y-113500000D01*
X184055487Y-113425311D01*
X184033701Y-113353492D01*
X183998322Y-113287304D01*
X183950711Y-113229289D01*
X183892696Y-113181678D01*
X183826508Y-113146299D01*
X183754689Y-113124513D01*
X183680000Y-113117157D01*
X182080000Y-113117157D01*
X182005311Y-113124513D01*
X181933492Y-113146299D01*
X181867304Y-113181678D01*
X181809289Y-113229289D01*
X181761678Y-113287304D01*
X181726299Y-113353492D01*
X181704513Y-113425311D01*
X181697157Y-113500000D01*
X181210185Y-113500000D01*
X181092843Y-113382658D01*
X180899413Y-113253412D01*
X180684485Y-113164386D01*
X180456318Y-113119000D01*
X180223682Y-113119000D01*
X179995515Y-113164386D01*
X179780587Y-113253412D01*
X179587157Y-113382658D01*
X179422658Y-113547157D01*
X179293412Y-113740587D01*
X179204386Y-113955515D01*
X179159000Y-114183682D01*
X179159000Y-114416318D01*
X179204386Y-114644485D01*
X179293412Y-114859413D01*
X179422658Y-115052843D01*
X179587157Y-115217342D01*
X179780587Y-115346588D01*
X179834001Y-115368713D01*
X179834000Y-119170408D01*
X178430409Y-120574000D01*
X106622832Y-120574000D01*
X106590898Y-120496903D01*
X106456180Y-120295283D01*
X106284717Y-120123820D01*
X106083097Y-119989102D01*
X105859069Y-119896307D01*
X105621243Y-119849000D01*
X105378757Y-119849000D01*
X105140931Y-119896307D01*
X104916903Y-119989102D01*
X104715283Y-120123820D01*
X104543820Y-120295283D01*
X104409102Y-120496903D01*
X104316307Y-120720931D01*
X104269000Y-120958757D01*
X100406000Y-120958757D01*
X100406000Y-116850000D01*
X104011928Y-116850000D01*
X104024188Y-116974482D01*
X104060498Y-117094180D01*
X104119463Y-117204494D01*
X104198815Y-117301185D01*
X104295506Y-117380537D01*
X104405820Y-117439502D01*
X104525518Y-117475812D01*
X104650000Y-117488072D01*
X104860294Y-117486927D01*
X104715283Y-117583820D01*
X104543820Y-117755283D01*
X104409102Y-117956903D01*
X104316307Y-118180931D01*
X104269000Y-118418757D01*
X104269000Y-118661243D01*
X104316307Y-118899069D01*
X104409102Y-119123097D01*
X104543820Y-119324717D01*
X104715283Y-119496180D01*
X104916903Y-119630898D01*
X105140931Y-119723693D01*
X105378757Y-119771000D01*
X105621243Y-119771000D01*
X105859069Y-119723693D01*
X106083097Y-119630898D01*
X106284717Y-119496180D01*
X106456180Y-119324717D01*
X106590898Y-119123097D01*
X106622832Y-119046000D01*
X170995154Y-119046000D01*
X171020000Y-119048447D01*
X171044846Y-119046000D01*
X171044854Y-119046000D01*
X171119193Y-119038678D01*
X171214575Y-119009745D01*
X171302479Y-118962759D01*
X171379527Y-118899527D01*
X171395376Y-118880215D01*
X173060220Y-117215372D01*
X173079527Y-117199527D01*
X173142759Y-117122479D01*
X173189745Y-117034575D01*
X173218678Y-116939193D01*
X173226000Y-116864854D01*
X173226000Y-116864847D01*
X173228447Y-116840001D01*
X173226000Y-116815155D01*
X173226000Y-115368712D01*
X173279413Y-115346588D01*
X173472843Y-115217342D01*
X173637342Y-115052843D01*
X173766588Y-114859413D01*
X173855614Y-114644485D01*
X173898875Y-114427002D01*
X173989375Y-114427002D01*
X173868091Y-114649040D01*
X173962930Y-114913881D01*
X174107615Y-115155131D01*
X174296586Y-115363519D01*
X174522580Y-115531037D01*
X174776913Y-115651246D01*
X174910961Y-115691904D01*
X175133000Y-115569915D01*
X175133000Y-114427000D01*
X175113000Y-114427000D01*
X175113000Y-114173000D01*
X175133000Y-114173000D01*
X175133000Y-114153000D01*
X175387000Y-114153000D01*
X175387000Y-114173000D01*
X175407000Y-114173000D01*
X175407000Y-114427000D01*
X175387000Y-114427000D01*
X175387000Y-115569915D01*
X175609039Y-115691904D01*
X175743087Y-115651246D01*
X175997420Y-115531037D01*
X176223414Y-115363519D01*
X176412385Y-115155131D01*
X176557070Y-114913881D01*
X176651909Y-114649040D01*
X176530625Y-114427002D01*
X176621125Y-114427002D01*
X176664386Y-114644485D01*
X176753412Y-114859413D01*
X176882658Y-115052843D01*
X177047157Y-115217342D01*
X177240587Y-115346588D01*
X177455515Y-115435614D01*
X177683682Y-115481000D01*
X177916318Y-115481000D01*
X178144485Y-115435614D01*
X178359413Y-115346588D01*
X178552843Y-115217342D01*
X178717342Y-115052843D01*
X178846588Y-114859413D01*
X178935614Y-114644485D01*
X178981000Y-114416318D01*
X178981000Y-114183682D01*
X178935614Y-113955515D01*
X178846588Y-113740587D01*
X178717342Y-113547157D01*
X178552843Y-113382658D01*
X178359413Y-113253412D01*
X178144485Y-113164386D01*
X177916318Y-113119000D01*
X177683682Y-113119000D01*
X177455515Y-113164386D01*
X177240587Y-113253412D01*
X177047157Y-113382658D01*
X176882658Y-113547157D01*
X176753412Y-113740587D01*
X176664386Y-113955515D01*
X176621125Y-114172998D01*
X176530625Y-114172998D01*
X176651909Y-113950960D01*
X176557070Y-113686119D01*
X176412385Y-113444869D01*
X176223414Y-113236481D01*
X175997420Y-113068963D01*
X175743087Y-112948754D01*
X175609039Y-112908096D01*
X175387002Y-113030084D01*
X175387002Y-112901000D01*
X180950154Y-112901000D01*
X180975000Y-112903447D01*
X180999846Y-112901000D01*
X180999854Y-112901000D01*
X181074193Y-112893678D01*
X181169575Y-112864745D01*
X181257479Y-112817759D01*
X181334527Y-112754527D01*
X181350376Y-112735215D01*
X181860220Y-112225372D01*
X181879527Y-112209527D01*
X181903759Y-112180000D01*
X193171928Y-112180000D01*
X193175000Y-112744250D01*
X193333750Y-112903000D01*
X194533000Y-112903000D01*
X194533000Y-111703750D01*
X194787000Y-111703750D01*
X194787000Y-112903000D01*
X195986250Y-112903000D01*
X196145000Y-112744250D01*
X196148072Y-112180000D01*
X196135812Y-112055518D01*
X196099502Y-111935820D01*
X196040537Y-111825506D01*
X195961185Y-111728815D01*
X195864494Y-111649463D01*
X195754180Y-111590498D01*
X195634482Y-111554188D01*
X195510000Y-111541928D01*
X194945750Y-111545000D01*
X194787000Y-111703750D01*
X194533000Y-111703750D01*
X194374250Y-111545000D01*
X193810000Y-111541928D01*
X193685518Y-111554188D01*
X193565820Y-111590498D01*
X193455506Y-111649463D01*
X193358815Y-111728815D01*
X193279463Y-111825506D01*
X193220498Y-111935820D01*
X193184188Y-112055518D01*
X193171928Y-112180000D01*
X181903759Y-112180000D01*
X181942759Y-112132479D01*
X181989745Y-112044575D01*
X182018678Y-111949193D01*
X182026000Y-111874854D01*
X182026000Y-111874847D01*
X182028447Y-111850001D01*
X182026000Y-111825155D01*
X182026000Y-108175881D01*
X192003724Y-108175881D01*
X192363912Y-108665548D01*
X193027882Y-109025849D01*
X193749385Y-109249694D01*
X194500695Y-109328480D01*
X195252938Y-109259178D01*
X195977208Y-109044452D01*
X196645670Y-108692555D01*
X196686088Y-108665548D01*
X197046276Y-108175881D01*
X194525000Y-105654605D01*
X192003724Y-108175881D01*
X182026000Y-108175881D01*
X182026000Y-107122832D01*
X182103097Y-107090898D01*
X182304717Y-106956180D01*
X182476180Y-106784717D01*
X182610898Y-106583097D01*
X182703693Y-106359069D01*
X182751000Y-106121243D01*
X182751000Y-105878757D01*
X182829000Y-105878757D01*
X182829000Y-106121243D01*
X182876307Y-106359069D01*
X182969102Y-106583097D01*
X183103820Y-106784717D01*
X183275283Y-106956180D01*
X183476903Y-107090898D01*
X183700931Y-107183693D01*
X183938757Y-107231000D01*
X184181243Y-107231000D01*
X184419069Y-107183693D01*
X184643097Y-107090898D01*
X184844717Y-106956180D01*
X185016180Y-106784717D01*
X185150898Y-106583097D01*
X185198228Y-106468832D01*
X185255843Y-106631252D01*
X185404822Y-106881355D01*
X185599731Y-107097588D01*
X185833080Y-107271641D01*
X186095901Y-107396825D01*
X186243110Y-107441476D01*
X186473000Y-107320155D01*
X186473000Y-106127000D01*
X186727000Y-106127000D01*
X186727000Y-107320155D01*
X186956890Y-107441476D01*
X187104099Y-107396825D01*
X187366920Y-107271641D01*
X187600269Y-107097588D01*
X187795178Y-106881355D01*
X187944157Y-106631252D01*
X188041481Y-106356891D01*
X187920814Y-106127000D01*
X186727000Y-106127000D01*
X186473000Y-106127000D01*
X186453000Y-106127000D01*
X186453000Y-105873000D01*
X186473000Y-105873000D01*
X186473000Y-104679845D01*
X186727000Y-104679845D01*
X186727000Y-105873000D01*
X187920814Y-105873000D01*
X188041481Y-105643109D01*
X187973227Y-105450695D01*
X190671520Y-105450695D01*
X190740822Y-106202938D01*
X190955548Y-106927208D01*
X191307445Y-107595670D01*
X191334452Y-107636088D01*
X191824119Y-107996276D01*
X194345395Y-105475000D01*
X194704605Y-105475000D01*
X197225881Y-107996276D01*
X197715548Y-107636088D01*
X198075849Y-106972118D01*
X198299694Y-106250615D01*
X198378480Y-105499305D01*
X198309178Y-104747062D01*
X198094452Y-104022792D01*
X197742555Y-103354330D01*
X197715548Y-103313912D01*
X197225881Y-102953724D01*
X194704605Y-105475000D01*
X194345395Y-105475000D01*
X191824119Y-102953724D01*
X191334452Y-103313912D01*
X190974151Y-103977882D01*
X190750306Y-104699385D01*
X190671520Y-105450695D01*
X187973227Y-105450695D01*
X187944157Y-105368748D01*
X187795178Y-105118645D01*
X187600269Y-104902412D01*
X187366920Y-104728359D01*
X187104099Y-104603175D01*
X186956890Y-104558524D01*
X186727000Y-104679845D01*
X186473000Y-104679845D01*
X186243110Y-104558524D01*
X186095901Y-104603175D01*
X185833080Y-104728359D01*
X185599731Y-104902412D01*
X185404822Y-105118645D01*
X185255843Y-105368748D01*
X185198228Y-105531168D01*
X185150898Y-105416903D01*
X185016180Y-105215283D01*
X184844717Y-105043820D01*
X184643097Y-104909102D01*
X184419069Y-104816307D01*
X184181243Y-104769000D01*
X183938757Y-104769000D01*
X183700931Y-104816307D01*
X183476903Y-104909102D01*
X183275283Y-105043820D01*
X183103820Y-105215283D01*
X182969102Y-105416903D01*
X182876307Y-105640931D01*
X182829000Y-105878757D01*
X182751000Y-105878757D01*
X182703693Y-105640931D01*
X182610898Y-105416903D01*
X182476180Y-105215283D01*
X182304717Y-105043820D01*
X182103097Y-104909102D01*
X181879069Y-104816307D01*
X181641243Y-104769000D01*
X181398757Y-104769000D01*
X181160931Y-104816307D01*
X180936903Y-104909102D01*
X180735283Y-105043820D01*
X180563820Y-105215283D01*
X180429102Y-105416903D01*
X180336307Y-105640931D01*
X180289000Y-105878757D01*
X180289000Y-106121243D01*
X180336307Y-106359069D01*
X180429102Y-106583097D01*
X180563820Y-106784717D01*
X180735283Y-106956180D01*
X180936903Y-107090898D01*
X181014001Y-107122833D01*
X181014000Y-111640408D01*
X180765409Y-111889000D01*
X155599854Y-111889000D01*
X155575000Y-111886552D01*
X155550146Y-111889000D01*
X155475807Y-111896322D01*
X155380425Y-111925255D01*
X155292521Y-111972241D01*
X155215473Y-112035473D01*
X155199629Y-112054779D01*
X154599780Y-112654629D01*
X154580474Y-112670473D01*
X154517242Y-112747521D01*
X154505029Y-112770370D01*
X154470255Y-112835426D01*
X154441322Y-112930808D01*
X154431553Y-113030000D01*
X154434001Y-113054856D01*
X154434001Y-113231287D01*
X154380587Y-113253412D01*
X154187157Y-113382658D01*
X154022658Y-113547157D01*
X153893412Y-113740587D01*
X153804386Y-113955515D01*
X153759000Y-114183682D01*
X153759000Y-114416318D01*
X153804386Y-114644485D01*
X153893412Y-114859413D01*
X154022658Y-115052843D01*
X154187157Y-115217342D01*
X154380587Y-115346588D01*
X154595515Y-115435614D01*
X154823682Y-115481000D01*
X155056318Y-115481000D01*
X155284485Y-115435614D01*
X155499413Y-115346588D01*
X155692843Y-115217342D01*
X155857342Y-115052843D01*
X155986588Y-114859413D01*
X156075614Y-114644485D01*
X156121000Y-114416318D01*
X156121000Y-114183682D01*
X156299000Y-114183682D01*
X156299000Y-114416318D01*
X156344386Y-114644485D01*
X156433412Y-114859413D01*
X156562658Y-115052843D01*
X156727157Y-115217342D01*
X156920587Y-115346588D01*
X157135515Y-115435614D01*
X157363682Y-115481000D01*
X157596318Y-115481000D01*
X157824485Y-115435614D01*
X158039413Y-115346588D01*
X158232843Y-115217342D01*
X158397342Y-115052843D01*
X158526588Y-114859413D01*
X158615614Y-114644485D01*
X158661000Y-114416318D01*
X158661000Y-114183682D01*
X158839000Y-114183682D01*
X158839000Y-114416318D01*
X158884386Y-114644485D01*
X158973412Y-114859413D01*
X159102658Y-115052843D01*
X159267157Y-115217342D01*
X159460587Y-115346588D01*
X159675515Y-115435614D01*
X159903682Y-115481000D01*
X160136318Y-115481000D01*
X160364485Y-115435614D01*
X160579413Y-115346588D01*
X160772843Y-115217342D01*
X160937342Y-115052843D01*
X161066588Y-114859413D01*
X161155614Y-114644485D01*
X161201000Y-114416318D01*
X161201000Y-114183682D01*
X161379000Y-114183682D01*
X161379000Y-114416318D01*
X161424386Y-114644485D01*
X161513412Y-114859413D01*
X161642658Y-115052843D01*
X161807157Y-115217342D01*
X162000587Y-115346588D01*
X162215515Y-115435614D01*
X162443682Y-115481000D01*
X162676318Y-115481000D01*
X162904485Y-115435614D01*
X163119413Y-115346588D01*
X163312843Y-115217342D01*
X163477342Y-115052843D01*
X163606588Y-114859413D01*
X163695614Y-114644485D01*
X163741000Y-114416318D01*
X163741000Y-114183682D01*
X163919000Y-114183682D01*
X163919000Y-114416318D01*
X163964386Y-114644485D01*
X164053412Y-114859413D01*
X164182658Y-115052843D01*
X164347157Y-115217342D01*
X164540587Y-115346588D01*
X164755515Y-115435614D01*
X164983682Y-115481000D01*
X165216318Y-115481000D01*
X165444485Y-115435614D01*
X165659413Y-115346588D01*
X165852843Y-115217342D01*
X166017342Y-115052843D01*
X166146588Y-114859413D01*
X166235614Y-114644485D01*
X166281000Y-114416318D01*
X166281000Y-114183682D01*
X166459000Y-114183682D01*
X166459000Y-114416318D01*
X166504386Y-114644485D01*
X166593412Y-114859413D01*
X166722658Y-115052843D01*
X166887157Y-115217342D01*
X167080587Y-115346588D01*
X167295515Y-115435614D01*
X167523682Y-115481000D01*
X167756318Y-115481000D01*
X167984485Y-115435614D01*
X168199413Y-115346588D01*
X168392843Y-115217342D01*
X168557342Y-115052843D01*
X168686588Y-114859413D01*
X168775614Y-114644485D01*
X168821000Y-114416318D01*
X168821000Y-114183682D01*
X168999000Y-114183682D01*
X168999000Y-114416318D01*
X169044386Y-114644485D01*
X169133412Y-114859413D01*
X169262658Y-115052843D01*
X169427157Y-115217342D01*
X169620587Y-115346588D01*
X169835515Y-115435614D01*
X170063682Y-115481000D01*
X170296318Y-115481000D01*
X170524485Y-115435614D01*
X170739413Y-115346588D01*
X170932843Y-115217342D01*
X171097342Y-115052843D01*
X171226588Y-114859413D01*
X171315614Y-114644485D01*
X171361000Y-114416318D01*
X171361000Y-114183682D01*
X171315614Y-113955515D01*
X171226588Y-113740587D01*
X171097342Y-113547157D01*
X170932843Y-113382658D01*
X170739413Y-113253412D01*
X170524485Y-113164386D01*
X170296318Y-113119000D01*
X170063682Y-113119000D01*
X169835515Y-113164386D01*
X169620587Y-113253412D01*
X169427157Y-113382658D01*
X169262658Y-113547157D01*
X169133412Y-113740587D01*
X169044386Y-113955515D01*
X168999000Y-114183682D01*
X168821000Y-114183682D01*
X168775614Y-113955515D01*
X168686588Y-113740587D01*
X168557342Y-113547157D01*
X168392843Y-113382658D01*
X168199413Y-113253412D01*
X167984485Y-113164386D01*
X167756318Y-113119000D01*
X167523682Y-113119000D01*
X167295515Y-113164386D01*
X167080587Y-113253412D01*
X166887157Y-113382658D01*
X166722658Y-113547157D01*
X166593412Y-113740587D01*
X166504386Y-113955515D01*
X166459000Y-114183682D01*
X166281000Y-114183682D01*
X166235614Y-113955515D01*
X166146588Y-113740587D01*
X166017342Y-113547157D01*
X165852843Y-113382658D01*
X165659413Y-113253412D01*
X165444485Y-113164386D01*
X165216318Y-113119000D01*
X164983682Y-113119000D01*
X164755515Y-113164386D01*
X164540587Y-113253412D01*
X164347157Y-113382658D01*
X164182658Y-113547157D01*
X164053412Y-113740587D01*
X163964386Y-113955515D01*
X163919000Y-114183682D01*
X163741000Y-114183682D01*
X163695614Y-113955515D01*
X163606588Y-113740587D01*
X163477342Y-113547157D01*
X163312843Y-113382658D01*
X163119413Y-113253412D01*
X162904485Y-113164386D01*
X162676318Y-113119000D01*
X162443682Y-113119000D01*
X162215515Y-113164386D01*
X162000587Y-113253412D01*
X161807157Y-113382658D01*
X161642658Y-113547157D01*
X161513412Y-113740587D01*
X161424386Y-113955515D01*
X161379000Y-114183682D01*
X161201000Y-114183682D01*
X161155614Y-113955515D01*
X161066588Y-113740587D01*
X160937342Y-113547157D01*
X160772843Y-113382658D01*
X160579413Y-113253412D01*
X160364485Y-113164386D01*
X160136318Y-113119000D01*
X159903682Y-113119000D01*
X159675515Y-113164386D01*
X159460587Y-113253412D01*
X159267157Y-113382658D01*
X159102658Y-113547157D01*
X158973412Y-113740587D01*
X158884386Y-113955515D01*
X158839000Y-114183682D01*
X158661000Y-114183682D01*
X158615614Y-113955515D01*
X158526588Y-113740587D01*
X158397342Y-113547157D01*
X158232843Y-113382658D01*
X158039413Y-113253412D01*
X157824485Y-113164386D01*
X157596318Y-113119000D01*
X157363682Y-113119000D01*
X157135515Y-113164386D01*
X156920587Y-113253412D01*
X156727157Y-113382658D01*
X156562658Y-113547157D01*
X156433412Y-113740587D01*
X156344386Y-113955515D01*
X156299000Y-114183682D01*
X156121000Y-114183682D01*
X156075614Y-113955515D01*
X155986588Y-113740587D01*
X155857342Y-113547157D01*
X155692843Y-113382658D01*
X155499413Y-113253412D01*
X155451872Y-113233720D01*
X155784592Y-112901000D01*
X175132998Y-112901000D01*
X175132998Y-113030084D01*
X174910961Y-112908096D01*
X174776913Y-112948754D01*
X174522580Y-113068963D01*
X174296586Y-113236481D01*
X174107615Y-113444869D01*
X173962930Y-113686119D01*
X173868091Y-113950960D01*
X173989375Y-114172998D01*
X173898875Y-114172998D01*
X173855614Y-113955515D01*
X173766588Y-113740587D01*
X173637342Y-113547157D01*
X173472843Y-113382658D01*
X173279413Y-113253412D01*
X173064485Y-113164386D01*
X172836318Y-113119000D01*
X172603682Y-113119000D01*
X172375515Y-113164386D01*
X172160587Y-113253412D01*
X171967157Y-113382658D01*
X171802658Y-113547157D01*
X171673412Y-113740587D01*
X171584386Y-113955515D01*
X171539000Y-114183682D01*
X171539000Y-114416318D01*
X171584386Y-114644485D01*
X171673412Y-114859413D01*
X171802658Y-115052843D01*
X171967157Y-115217342D01*
X172160587Y-115346588D01*
X172214001Y-115368713D01*
X172214000Y-116630408D01*
X170810409Y-118034000D01*
X106622832Y-118034000D01*
X106590898Y-117956903D01*
X106456180Y-117755283D01*
X106284717Y-117583820D01*
X106139706Y-117486927D01*
X106350000Y-117488072D01*
X106474482Y-117475812D01*
X106594180Y-117439502D01*
X106704494Y-117380537D01*
X106801185Y-117301185D01*
X106880537Y-117204494D01*
X106939502Y-117094180D01*
X106975812Y-116974482D01*
X106988072Y-116850000D01*
X106985000Y-116285750D01*
X106826250Y-116127000D01*
X105627000Y-116127000D01*
X105627000Y-116147000D01*
X105373000Y-116147000D01*
X105373000Y-116127000D01*
X104173750Y-116127000D01*
X104015000Y-116285750D01*
X104011928Y-116850000D01*
X100406000Y-116850000D01*
X100406000Y-115150000D01*
X104011928Y-115150000D01*
X104015000Y-115714250D01*
X104173750Y-115873000D01*
X105373000Y-115873000D01*
X105373000Y-114673750D01*
X105627000Y-114673750D01*
X105627000Y-115873000D01*
X106826250Y-115873000D01*
X106985000Y-115714250D01*
X106988072Y-115150000D01*
X106975812Y-115025518D01*
X106939502Y-114905820D01*
X106880537Y-114795506D01*
X106801185Y-114698815D01*
X106704494Y-114619463D01*
X106594180Y-114560498D01*
X106474482Y-114524188D01*
X106350000Y-114511928D01*
X105785750Y-114515000D01*
X105627000Y-114673750D01*
X105373000Y-114673750D01*
X105214250Y-114515000D01*
X104650000Y-114511928D01*
X104525518Y-114524188D01*
X104405820Y-114560498D01*
X104295506Y-114619463D01*
X104198815Y-114698815D01*
X104119463Y-114795506D01*
X104060498Y-114905820D01*
X104024188Y-115025518D01*
X104011928Y-115150000D01*
X100406000Y-115150000D01*
X100406000Y-114183682D01*
X146139000Y-114183682D01*
X146139000Y-114416318D01*
X146184386Y-114644485D01*
X146273412Y-114859413D01*
X146402658Y-115052843D01*
X146567157Y-115217342D01*
X146760587Y-115346588D01*
X146975515Y-115435614D01*
X147203682Y-115481000D01*
X147436318Y-115481000D01*
X147664485Y-115435614D01*
X147879413Y-115346588D01*
X148072843Y-115217342D01*
X148237342Y-115052843D01*
X148366588Y-114859413D01*
X148455614Y-114644485D01*
X148501000Y-114416318D01*
X148501000Y-114183682D01*
X148679000Y-114183682D01*
X148679000Y-114416318D01*
X148724386Y-114644485D01*
X148813412Y-114859413D01*
X148942658Y-115052843D01*
X149107157Y-115217342D01*
X149300587Y-115346588D01*
X149515515Y-115435614D01*
X149743682Y-115481000D01*
X149976318Y-115481000D01*
X150204485Y-115435614D01*
X150419413Y-115346588D01*
X150612843Y-115217342D01*
X150777342Y-115052843D01*
X150906588Y-114859413D01*
X150995614Y-114644485D01*
X151041000Y-114416318D01*
X151041000Y-114183682D01*
X151219000Y-114183682D01*
X151219000Y-114416318D01*
X151264386Y-114644485D01*
X151353412Y-114859413D01*
X151482658Y-115052843D01*
X151647157Y-115217342D01*
X151840587Y-115346588D01*
X152055515Y-115435614D01*
X152283682Y-115481000D01*
X152516318Y-115481000D01*
X152744485Y-115435614D01*
X152959413Y-115346588D01*
X153152843Y-115217342D01*
X153317342Y-115052843D01*
X153446588Y-114859413D01*
X153535614Y-114644485D01*
X153581000Y-114416318D01*
X153581000Y-114183682D01*
X153535614Y-113955515D01*
X153446588Y-113740587D01*
X153317342Y-113547157D01*
X153152843Y-113382658D01*
X152959413Y-113253412D01*
X152906000Y-113231288D01*
X152906000Y-111969591D01*
X153244592Y-111631000D01*
X178410154Y-111631000D01*
X178435000Y-111633447D01*
X178459846Y-111631000D01*
X178459854Y-111631000D01*
X178534193Y-111623678D01*
X178629575Y-111594745D01*
X178717479Y-111547759D01*
X178794527Y-111484527D01*
X178810376Y-111465215D01*
X179320220Y-110955372D01*
X179339527Y-110939527D01*
X179402759Y-110862479D01*
X179449745Y-110774575D01*
X179478678Y-110679193D01*
X179486000Y-110604854D01*
X179486000Y-110604847D01*
X179488447Y-110580001D01*
X179486000Y-110555155D01*
X179486000Y-107122832D01*
X179563097Y-107090898D01*
X179764717Y-106956180D01*
X179936180Y-106784717D01*
X180070898Y-106583097D01*
X180163693Y-106359069D01*
X180211000Y-106121243D01*
X180211000Y-105878757D01*
X180163693Y-105640931D01*
X180070898Y-105416903D01*
X179936180Y-105215283D01*
X179764717Y-105043820D01*
X179563097Y-104909102D01*
X179339069Y-104816307D01*
X179101243Y-104769000D01*
X178858757Y-104769000D01*
X178620931Y-104816307D01*
X178396903Y-104909102D01*
X178195283Y-105043820D01*
X178023820Y-105215283D01*
X177889102Y-105416903D01*
X177796307Y-105640931D01*
X177749000Y-105878757D01*
X177749000Y-106121243D01*
X177796307Y-106359069D01*
X177889102Y-106583097D01*
X178023820Y-106784717D01*
X178195283Y-106956180D01*
X178396903Y-107090898D01*
X178474001Y-107122833D01*
X178474000Y-110370408D01*
X178225409Y-110619000D01*
X153059854Y-110619000D01*
X153035000Y-110616552D01*
X153010146Y-110619000D01*
X152935807Y-110626322D01*
X152840425Y-110655255D01*
X152752521Y-110702241D01*
X152675473Y-110765473D01*
X152659629Y-110784779D01*
X152059780Y-111384629D01*
X152040474Y-111400473D01*
X151977242Y-111477521D01*
X151965029Y-111500370D01*
X151930255Y-111565426D01*
X151901322Y-111660808D01*
X151891553Y-111760000D01*
X151894001Y-111784856D01*
X151894000Y-113231287D01*
X151840587Y-113253412D01*
X151647157Y-113382658D01*
X151482658Y-113547157D01*
X151353412Y-113740587D01*
X151264386Y-113955515D01*
X151219000Y-114183682D01*
X151041000Y-114183682D01*
X150995614Y-113955515D01*
X150906588Y-113740587D01*
X150777342Y-113547157D01*
X150612843Y-113382658D01*
X150419413Y-113253412D01*
X150366000Y-113231288D01*
X150366000Y-110699591D01*
X150704592Y-110361000D01*
X175870154Y-110361000D01*
X175895000Y-110363447D01*
X175919846Y-110361000D01*
X175919854Y-110361000D01*
X175994193Y-110353678D01*
X176089575Y-110324745D01*
X176177479Y-110277759D01*
X176254527Y-110214527D01*
X176270376Y-110195215D01*
X176780220Y-109685372D01*
X176799527Y-109669527D01*
X176862759Y-109592479D01*
X176909745Y-109504575D01*
X176938678Y-109409193D01*
X176946000Y-109334854D01*
X176946000Y-109334847D01*
X176948447Y-109310001D01*
X176946000Y-109285155D01*
X176946000Y-107122832D01*
X177023097Y-107090898D01*
X177224717Y-106956180D01*
X177396180Y-106784717D01*
X177530898Y-106583097D01*
X177623693Y-106359069D01*
X177671000Y-106121243D01*
X177671000Y-105878757D01*
X177623693Y-105640931D01*
X177530898Y-105416903D01*
X177396180Y-105215283D01*
X177224717Y-105043820D01*
X177023097Y-104909102D01*
X176799069Y-104816307D01*
X176561243Y-104769000D01*
X176318757Y-104769000D01*
X176080931Y-104816307D01*
X175856903Y-104909102D01*
X175655283Y-105043820D01*
X175483820Y-105215283D01*
X175349102Y-105416903D01*
X175256307Y-105640931D01*
X175209000Y-105878757D01*
X175209000Y-106121243D01*
X175256307Y-106359069D01*
X175349102Y-106583097D01*
X175483820Y-106784717D01*
X175655283Y-106956180D01*
X175856903Y-107090898D01*
X175934001Y-107122833D01*
X175934000Y-109100408D01*
X175685409Y-109349000D01*
X150519854Y-109349000D01*
X150495000Y-109346552D01*
X150470146Y-109349000D01*
X150395807Y-109356322D01*
X150300425Y-109385255D01*
X150212521Y-109432241D01*
X150135473Y-109495473D01*
X150119629Y-109514779D01*
X149519780Y-110114629D01*
X149500474Y-110130473D01*
X149437242Y-110207521D01*
X149425029Y-110230370D01*
X149390255Y-110295426D01*
X149361322Y-110390808D01*
X149351553Y-110490000D01*
X149354001Y-110514856D01*
X149354000Y-113231288D01*
X149300587Y-113253412D01*
X149107157Y-113382658D01*
X148942658Y-113547157D01*
X148813412Y-113740587D01*
X148724386Y-113955515D01*
X148679000Y-114183682D01*
X148501000Y-114183682D01*
X148455614Y-113955515D01*
X148366588Y-113740587D01*
X148237342Y-113547157D01*
X148072843Y-113382658D01*
X147879413Y-113253412D01*
X147826000Y-113231288D01*
X147826000Y-109429591D01*
X148164592Y-109091000D01*
X173330154Y-109091000D01*
X173355000Y-109093447D01*
X173379846Y-109091000D01*
X173379854Y-109091000D01*
X173454193Y-109083678D01*
X173549575Y-109054745D01*
X173637479Y-109007759D01*
X173714527Y-108944527D01*
X173730376Y-108925215D01*
X174240220Y-108415372D01*
X174259527Y-108399527D01*
X174322759Y-108322479D01*
X174369745Y-108234575D01*
X174398678Y-108139193D01*
X174406000Y-108064854D01*
X174406000Y-108064847D01*
X174408447Y-108040001D01*
X174406000Y-108015155D01*
X174406000Y-107122832D01*
X174483097Y-107090898D01*
X174684717Y-106956180D01*
X174856180Y-106784717D01*
X174990898Y-106583097D01*
X175083693Y-106359069D01*
X175131000Y-106121243D01*
X175131000Y-105878757D01*
X175083693Y-105640931D01*
X174990898Y-105416903D01*
X174856180Y-105215283D01*
X174684717Y-105043820D01*
X174483097Y-104909102D01*
X174259069Y-104816307D01*
X174021243Y-104769000D01*
X173778757Y-104769000D01*
X173540931Y-104816307D01*
X173316903Y-104909102D01*
X173115283Y-105043820D01*
X172943820Y-105215283D01*
X172809102Y-105416903D01*
X172716307Y-105640931D01*
X172669000Y-105878757D01*
X172669000Y-106121243D01*
X172716307Y-106359069D01*
X172809102Y-106583097D01*
X172943820Y-106784717D01*
X173115283Y-106956180D01*
X173316903Y-107090898D01*
X173394000Y-107122833D01*
X173394000Y-107830408D01*
X173145409Y-108079000D01*
X147979854Y-108079000D01*
X147955000Y-108076552D01*
X147930146Y-108079000D01*
X147855807Y-108086322D01*
X147760425Y-108115255D01*
X147672521Y-108162241D01*
X147595473Y-108225473D01*
X147579629Y-108244779D01*
X146979780Y-108844629D01*
X146960474Y-108860473D01*
X146897242Y-108937521D01*
X146885029Y-108960370D01*
X146850255Y-109025426D01*
X146821322Y-109120808D01*
X146811553Y-109220000D01*
X146814001Y-109244856D01*
X146814000Y-113231288D01*
X146760587Y-113253412D01*
X146567157Y-113382658D01*
X146402658Y-113547157D01*
X146273412Y-113740587D01*
X146184386Y-113955515D01*
X146139000Y-114183682D01*
X100406000Y-114183682D01*
X100406000Y-108175881D01*
X102953724Y-108175881D01*
X103313912Y-108665548D01*
X103977882Y-109025849D01*
X104699385Y-109249694D01*
X105450695Y-109328480D01*
X106202938Y-109259178D01*
X106927208Y-109044452D01*
X107595670Y-108692555D01*
X107636088Y-108665548D01*
X107996276Y-108175881D01*
X105475000Y-105654605D01*
X102953724Y-108175881D01*
X100406000Y-108175881D01*
X100406000Y-105450695D01*
X101621520Y-105450695D01*
X101690822Y-106202938D01*
X101905548Y-106927208D01*
X102257445Y-107595670D01*
X102284452Y-107636088D01*
X102774119Y-107996276D01*
X105295395Y-105475000D01*
X105654605Y-105475000D01*
X108175881Y-107996276D01*
X108665548Y-107636088D01*
X109025849Y-106972118D01*
X109063735Y-106850000D01*
X147011928Y-106850000D01*
X147024188Y-106974482D01*
X147060498Y-107094180D01*
X147119463Y-107204494D01*
X147198815Y-107301185D01*
X147295506Y-107380537D01*
X147405820Y-107439502D01*
X147525518Y-107475812D01*
X147650000Y-107488072D01*
X148214250Y-107485000D01*
X148373000Y-107326250D01*
X148373000Y-106127000D01*
X147173750Y-106127000D01*
X147015000Y-106285750D01*
X147011928Y-106850000D01*
X109063735Y-106850000D01*
X109249694Y-106250615D01*
X109328480Y-105499305D01*
X109296300Y-105150000D01*
X147011928Y-105150000D01*
X147015000Y-105714250D01*
X147173750Y-105873000D01*
X148373000Y-105873000D01*
X148373000Y-104673750D01*
X148627000Y-104673750D01*
X148627000Y-105873000D01*
X148647000Y-105873000D01*
X148647000Y-106127000D01*
X148627000Y-106127000D01*
X148627000Y-107326250D01*
X148785750Y-107485000D01*
X149350000Y-107488072D01*
X149474482Y-107475812D01*
X149594180Y-107439502D01*
X149704494Y-107380537D01*
X149801185Y-107301185D01*
X149880537Y-107204494D01*
X149939502Y-107094180D01*
X149975812Y-106974482D01*
X149988072Y-106850000D01*
X149986927Y-106639706D01*
X150083820Y-106784717D01*
X150255283Y-106956180D01*
X150456903Y-107090898D01*
X150680931Y-107183693D01*
X150918757Y-107231000D01*
X151161243Y-107231000D01*
X151399069Y-107183693D01*
X151623097Y-107090898D01*
X151824717Y-106956180D01*
X151996180Y-106784717D01*
X152130898Y-106583097D01*
X152223693Y-106359069D01*
X152271000Y-106121243D01*
X152271000Y-105878757D01*
X152349000Y-105878757D01*
X152349000Y-106121243D01*
X152396307Y-106359069D01*
X152489102Y-106583097D01*
X152623820Y-106784717D01*
X152795283Y-106956180D01*
X152996903Y-107090898D01*
X153220931Y-107183693D01*
X153458757Y-107231000D01*
X153701243Y-107231000D01*
X153939069Y-107183693D01*
X154163097Y-107090898D01*
X154364717Y-106956180D01*
X154536180Y-106784717D01*
X154670898Y-106583097D01*
X154763693Y-106359069D01*
X154811000Y-106121243D01*
X154811000Y-105878757D01*
X154889000Y-105878757D01*
X154889000Y-106121243D01*
X154936307Y-106359069D01*
X155029102Y-106583097D01*
X155163820Y-106784717D01*
X155335283Y-106956180D01*
X155536903Y-107090898D01*
X155760931Y-107183693D01*
X155998757Y-107231000D01*
X156241243Y-107231000D01*
X156479069Y-107183693D01*
X156703097Y-107090898D01*
X156904717Y-106956180D01*
X157076180Y-106784717D01*
X157210898Y-106583097D01*
X157258228Y-106468832D01*
X157315843Y-106631252D01*
X157464822Y-106881355D01*
X157659731Y-107097588D01*
X157893080Y-107271641D01*
X158155901Y-107396825D01*
X158303110Y-107441476D01*
X158533000Y-107320155D01*
X158533000Y-106127000D01*
X158513000Y-106127000D01*
X158513000Y-105873000D01*
X158533000Y-105873000D01*
X158533000Y-104679845D01*
X158787000Y-104679845D01*
X158787000Y-105873000D01*
X158807000Y-105873000D01*
X158807000Y-106127000D01*
X158787000Y-106127000D01*
X158787000Y-107320155D01*
X159016890Y-107441476D01*
X159164099Y-107396825D01*
X159426920Y-107271641D01*
X159660269Y-107097588D01*
X159855178Y-106881355D01*
X160004157Y-106631252D01*
X160061772Y-106468832D01*
X160109102Y-106583097D01*
X160243820Y-106784717D01*
X160415283Y-106956180D01*
X160616903Y-107090898D01*
X160840931Y-107183693D01*
X161078757Y-107231000D01*
X161321243Y-107231000D01*
X161559069Y-107183693D01*
X161783097Y-107090898D01*
X161984717Y-106956180D01*
X162156180Y-106784717D01*
X162290898Y-106583097D01*
X162383693Y-106359069D01*
X162431000Y-106121243D01*
X162431000Y-105878757D01*
X162509000Y-105878757D01*
X162509000Y-106121243D01*
X162556307Y-106359069D01*
X162649102Y-106583097D01*
X162783820Y-106784717D01*
X162955283Y-106956180D01*
X163156903Y-107090898D01*
X163380931Y-107183693D01*
X163618757Y-107231000D01*
X163861243Y-107231000D01*
X164099069Y-107183693D01*
X164323097Y-107090898D01*
X164524717Y-106956180D01*
X164696180Y-106784717D01*
X164830898Y-106583097D01*
X164923693Y-106359069D01*
X164971000Y-106121243D01*
X164971000Y-105878757D01*
X165049000Y-105878757D01*
X165049000Y-106121243D01*
X165096307Y-106359069D01*
X165189102Y-106583097D01*
X165323820Y-106784717D01*
X165495283Y-106956180D01*
X165696903Y-107090898D01*
X165920931Y-107183693D01*
X166158757Y-107231000D01*
X166401243Y-107231000D01*
X166639069Y-107183693D01*
X166863097Y-107090898D01*
X167064717Y-106956180D01*
X167236180Y-106784717D01*
X167370898Y-106583097D01*
X167463693Y-106359069D01*
X167511000Y-106121243D01*
X167511000Y-105878757D01*
X167589000Y-105878757D01*
X167589000Y-106121243D01*
X167636307Y-106359069D01*
X167729102Y-106583097D01*
X167863820Y-106784717D01*
X168035283Y-106956180D01*
X168236903Y-107090898D01*
X168460931Y-107183693D01*
X168698757Y-107231000D01*
X168941243Y-107231000D01*
X169179069Y-107183693D01*
X169403097Y-107090898D01*
X169604717Y-106956180D01*
X169776180Y-106784717D01*
X169910898Y-106583097D01*
X170003693Y-106359069D01*
X170051000Y-106121243D01*
X170051000Y-105878757D01*
X170129000Y-105878757D01*
X170129000Y-106121243D01*
X170176307Y-106359069D01*
X170269102Y-106583097D01*
X170403820Y-106784717D01*
X170575283Y-106956180D01*
X170776903Y-107090898D01*
X171000931Y-107183693D01*
X171238757Y-107231000D01*
X171481243Y-107231000D01*
X171719069Y-107183693D01*
X171943097Y-107090898D01*
X172144717Y-106956180D01*
X172316180Y-106784717D01*
X172450898Y-106583097D01*
X172543693Y-106359069D01*
X172591000Y-106121243D01*
X172591000Y-105878757D01*
X172543693Y-105640931D01*
X172450898Y-105416903D01*
X172316180Y-105215283D01*
X172144717Y-105043820D01*
X171943097Y-104909102D01*
X171719069Y-104816307D01*
X171481243Y-104769000D01*
X171238757Y-104769000D01*
X171000931Y-104816307D01*
X170776903Y-104909102D01*
X170575283Y-105043820D01*
X170403820Y-105215283D01*
X170269102Y-105416903D01*
X170176307Y-105640931D01*
X170129000Y-105878757D01*
X170051000Y-105878757D01*
X170003693Y-105640931D01*
X169910898Y-105416903D01*
X169776180Y-105215283D01*
X169604717Y-105043820D01*
X169403097Y-104909102D01*
X169179069Y-104816307D01*
X168941243Y-104769000D01*
X168698757Y-104769000D01*
X168460931Y-104816307D01*
X168236903Y-104909102D01*
X168035283Y-105043820D01*
X167863820Y-105215283D01*
X167729102Y-105416903D01*
X167636307Y-105640931D01*
X167589000Y-105878757D01*
X167511000Y-105878757D01*
X167463693Y-105640931D01*
X167370898Y-105416903D01*
X167236180Y-105215283D01*
X167064717Y-105043820D01*
X166863097Y-104909102D01*
X166639069Y-104816307D01*
X166401243Y-104769000D01*
X166158757Y-104769000D01*
X165920931Y-104816307D01*
X165696903Y-104909102D01*
X165495283Y-105043820D01*
X165323820Y-105215283D01*
X165189102Y-105416903D01*
X165096307Y-105640931D01*
X165049000Y-105878757D01*
X164971000Y-105878757D01*
X164923693Y-105640931D01*
X164830898Y-105416903D01*
X164696180Y-105215283D01*
X164524717Y-105043820D01*
X164323097Y-104909102D01*
X164099069Y-104816307D01*
X163861243Y-104769000D01*
X163618757Y-104769000D01*
X163380931Y-104816307D01*
X163156903Y-104909102D01*
X162955283Y-105043820D01*
X162783820Y-105215283D01*
X162649102Y-105416903D01*
X162556307Y-105640931D01*
X162509000Y-105878757D01*
X162431000Y-105878757D01*
X162383693Y-105640931D01*
X162290898Y-105416903D01*
X162156180Y-105215283D01*
X161984717Y-105043820D01*
X161783097Y-104909102D01*
X161559069Y-104816307D01*
X161321243Y-104769000D01*
X161078757Y-104769000D01*
X160840931Y-104816307D01*
X160616903Y-104909102D01*
X160415283Y-105043820D01*
X160243820Y-105215283D01*
X160109102Y-105416903D01*
X160061772Y-105531168D01*
X160004157Y-105368748D01*
X159855178Y-105118645D01*
X159660269Y-104902412D01*
X159426920Y-104728359D01*
X159164099Y-104603175D01*
X159016890Y-104558524D01*
X158787000Y-104679845D01*
X158533000Y-104679845D01*
X158303110Y-104558524D01*
X158155901Y-104603175D01*
X157893080Y-104728359D01*
X157659731Y-104902412D01*
X157464822Y-105118645D01*
X157315843Y-105368748D01*
X157258228Y-105531168D01*
X157210898Y-105416903D01*
X157076180Y-105215283D01*
X156904717Y-105043820D01*
X156703097Y-104909102D01*
X156479069Y-104816307D01*
X156241243Y-104769000D01*
X155998757Y-104769000D01*
X155760931Y-104816307D01*
X155536903Y-104909102D01*
X155335283Y-105043820D01*
X155163820Y-105215283D01*
X155029102Y-105416903D01*
X154936307Y-105640931D01*
X154889000Y-105878757D01*
X154811000Y-105878757D01*
X154763693Y-105640931D01*
X154670898Y-105416903D01*
X154536180Y-105215283D01*
X154364717Y-105043820D01*
X154163097Y-104909102D01*
X153939069Y-104816307D01*
X153701243Y-104769000D01*
X153458757Y-104769000D01*
X153220931Y-104816307D01*
X152996903Y-104909102D01*
X152795283Y-105043820D01*
X152623820Y-105215283D01*
X152489102Y-105416903D01*
X152396307Y-105640931D01*
X152349000Y-105878757D01*
X152271000Y-105878757D01*
X152223693Y-105640931D01*
X152130898Y-105416903D01*
X151996180Y-105215283D01*
X151824717Y-105043820D01*
X151623097Y-104909102D01*
X151399069Y-104816307D01*
X151161243Y-104769000D01*
X150918757Y-104769000D01*
X150680931Y-104816307D01*
X150456903Y-104909102D01*
X150255283Y-105043820D01*
X150083820Y-105215283D01*
X149986927Y-105360294D01*
X149988072Y-105150000D01*
X149975812Y-105025518D01*
X149939502Y-104905820D01*
X149880537Y-104795506D01*
X149801185Y-104698815D01*
X149704494Y-104619463D01*
X149594180Y-104560498D01*
X149474482Y-104524188D01*
X149350000Y-104511928D01*
X148785750Y-104515000D01*
X148627000Y-104673750D01*
X148373000Y-104673750D01*
X148214250Y-104515000D01*
X147650000Y-104511928D01*
X147525518Y-104524188D01*
X147405820Y-104560498D01*
X147295506Y-104619463D01*
X147198815Y-104698815D01*
X147119463Y-104795506D01*
X147060498Y-104905820D01*
X147024188Y-105025518D01*
X147011928Y-105150000D01*
X109296300Y-105150000D01*
X109259178Y-104747062D01*
X109044452Y-104022792D01*
X108692555Y-103354330D01*
X108665548Y-103313912D01*
X108175881Y-102953724D01*
X105654605Y-105475000D01*
X105295395Y-105475000D01*
X102774119Y-102953724D01*
X102284452Y-103313912D01*
X101924151Y-103977882D01*
X101700306Y-104699385D01*
X101621520Y-105450695D01*
X100406000Y-105450695D01*
X100406000Y-102774119D01*
X102953724Y-102774119D01*
X105475000Y-105295395D01*
X107996276Y-102774119D01*
X192003724Y-102774119D01*
X194525000Y-105295395D01*
X197046276Y-102774119D01*
X196686088Y-102284452D01*
X196022118Y-101924151D01*
X195300615Y-101700306D01*
X194549305Y-101621520D01*
X193797062Y-101690822D01*
X193072792Y-101905548D01*
X192404330Y-102257445D01*
X192363912Y-102284452D01*
X192003724Y-102774119D01*
X107996276Y-102774119D01*
X107636088Y-102284452D01*
X106972118Y-101924151D01*
X106250615Y-101700306D01*
X105499305Y-101621520D01*
X104747062Y-101690822D01*
X104022792Y-101905548D01*
X103354330Y-102257445D01*
X103313912Y-102284452D01*
X102953724Y-102774119D01*
X100406000Y-102774119D01*
X100406000Y-100406000D01*
X199594000Y-100406000D01*
X199594001Y-149594000D01*
M02*
